<svg xmlns="http://www.w3.org/2000/svg" width="234" height="234" viewBox="0 0 234 234">
  <g id="Group_2550" data-name="Group 2550" transform="translate(-1026 -391)">
    <g id="logo-tag" transform="translate(1090.878 399.31)">
      <path id="Path_70957" data-name="Path 70957" d="M82.621,112.084H72.68L39.3,169.981c-2.943,5.169-5.222,10.843-4.586,14-4.639-7.608.8-15.111,2.943-18.849l30.592-53.046H58.312L33.127,155.772c-2.943,5.169-5.222,10.843-4.586,14-4.639-7.608.8-15.111,2.943-18.849l22.374-38.81H43.917L26.924,141.563c-2.943,5.169-5.222,10.843-4.586,14-4.639-7.608.8-15.111,2.943-18.849l14.183-24.6H29.522l-8.775,15.243c-2.943,5.169-5.222,10.843-4.586,14-4.639-7.608.8-15.111,2.943-18.849l5.991-10.365H14.226C4.126,112.084-.01,106.782-.01,101.109c0,0-.212-3.738,3.261-9.835L47.814,14S53.938,3.367,55,0c2.81,5.965-1.538,13.865-2.571,15.641C52.135,16.118,8.818,91.3,8.818,91.3c-2.2,3.844-3.42,6.574-3.526,8.722-.212,4.427,4.215,5.2,8.192,5.275L55.714,32.05s6.124-10.63,7.184-14c2.7,5.753-1.67,14.077-2.571,15.641-.239.424-32.236,55.936-41.276,71.6h9.941L62.368,47.4s6.124-10.63,7.184-14c2.7,5.753-2.147,12.99-3.049,14.527-.186.345-20.227,35.1-33.084,57.367H43.36L68.545,61.609s6.124-10.63,7.184-14C78.274,53.02,73.4,60.92,72.68,62.139c-.159.265-13.122,22.772-24.866,43.158h9.941L74.748,75.845s6.124-10.63,7.184-14c2.545,5.408-2.333,13.308-3.049,14.527-.106.212-7.794,13.52-16.675,28.922H72.15l8.775-15.243s6.124-10.63,7.184-14c2.545,5.408-2.333,13.308-3.049,14.527L76.6,105.3H90.071c5.62,0,9.384,1.644,11.638,4.083h0c1.219,1.591,2.916,5.991-2.863,15.985L88,144.187l-34.145,59.2c-2.943,5.169-5.222,10.843-4.586,14-4.639-7.608.318-16.224,2.465-19.962.477-.822.8-1.379,1.007-1.75l40.109-69.588c2.2-3.844,3.42-6.574,3.526-8.722a4.831,4.831,0,0,0-.265-1.909c-.981-2.757-4.613-3.287-7.926-3.367L80.1,126.107,45.958,185.3c-2.943,5.169-5.222,10.843-4.586,14-4.639-7.608.318-16.224,2.465-19.962l38.784-67.282v.027Z" transform="translate(0)" fill="#cba449"/>
      <path id="Path_70958" data-name="Path 70958" d="M28.239,104.05c-1.405-3.42,3.181-10.9,5.408-14.739L72.8,21.393c.186-.345.424-.769.769-1.3,2.174-3.738,7.1-12.354,2.465-19.962C78.847,6.1,74.5,14,73.465,15.772c-.292.477-43.635,75.659-43.635,75.659-2.2,3.844-3.42,6.574-3.526,8.722a4.027,4.027,0,0,0,1.909,3.923Z" transform="translate(-21.012 -0.105)" fill="#646363"/>
      <path id="Path_70959" data-name="Path 70959" d="M166.083,237.846h2.6L199.273,184.8c2.174-3.738,7.608-11.24,2.943-18.849,2.7,5.753-2.147,12.99-3.049,14.527l-33.084,57.367h0Z" transform="translate(-132.664 -132.549)" fill="#646363"/>
      <path id="Path_70960" data-name="Path 70960" d="M237.6,294.337h2.6l22.374-38.81c2.174-3.738,7.608-11.24,2.943-18.849,2.545,5.408-2.333,13.308-3.049,14.527L237.6,294.364Z" transform="translate(-189.786 -189.04)" fill="#646363"/>
      <path id="Path_70961" data-name="Path 70961" d="M309.117,350.723h2.6l14.183-24.6c2.174-3.738,7.608-11.24,2.943-18.849,2.545,5.408-2.333,13.308-3.049,14.527Z" transform="translate(-246.908 -245.426)" fill="#646363"/>
      <path id="Path_70962" data-name="Path 70962" d="M380.5,407.214h2.6l5.991-10.365c2.174-3.738,7.608-11.24,2.943-18.849,2.545,5.408-2.333,13.308-3.049,14.527l-8.457,14.713h0Z" transform="translate(-303.925 -301.917)" fill="#646363"/>
      <path id="Path_70963" data-name="Path 70963" d="M94.566,176.937h2.6l38.784-67.282c2.174-3.738,7.1-12.354,2.465-19.962,2.7,5.753-1.67,14.077-2.571,15.641-.239.424-32.236,55.936-41.276,71.6Z" transform="translate(-75.542 -71.639)" fill="#646363"/>
      <path id="Path_70964" data-name="Path 70964" d="M299.295,550.527a10.023,10.023,0,0,0-2.545-6.84c1.193,1.564,2.863,5.965-2.89,15.932l-10.843,18.822-34.145,59.2c-2.943,5.169-5.222,10.843-4.586,14,1.06-3.367,7.184-14,7.184-14l44.563-77.3c3.473-6.071,3.261-9.835,3.261-9.835h0Z" transform="translate(-195.041 -434.255)" fill="#646363"/>
      <path id="Path_70965" data-name="Path 70965" d="M211.691,558.343h7.343l.848-1.485h-9.941l-.848,1.485-32.528,56.413c-2.943,5.169-5.222,10.843-4.586,14,1.06-3.367,7.184-14,7.184-14Z" transform="translate(-137.288 -444.775)" fill="#646363"/>
      <path id="Path_70966" data-name="Path 70966" d="M172.812,558.343h7.343l.848-1.485h-9.941l-.848,1.485L145.878,600.52c-2.943,5.169-5.222,10.843-4.586,14,1.06-3.367,7.184-14,7.184-14Z" transform="translate(-112.777 -444.775)" fill="#646363"/>
      <path id="Path_70967" data-name="Path 70967" d="M134.011,558.343h7.37l.848-1.485h-9.941l-.848,1.485-16.118,27.968c-2.943,5.169-5.222,10.843-4.586,14,1.06-3.367,7.184-14,7.184-14l16.118-27.968Z" transform="translate(-88.371 -444.775)" fill="#646363"/>
      <path id="Path_70968" data-name="Path 70968" d="M95,558.343h7.37l.848-1.485H93.277l-.848,1.485L84.5,572.1c-2.943,5.169-5.222,10.843-4.586,14,1.06-3.367,7.184-14,7.184-14l7.926-13.759Z" transform="translate(-63.755 -444.775)" fill="#646363"/>
      <path id="Path_70969" data-name="Path 70969" d="M17.385,540.922c2.28,1.935,5.779,3.208,10.71,3.208H38.964l-.848,1.485H31.86c-10.816,0-14.474-4.692-14.474-4.692Z" transform="translate(-13.896 -432.046)" fill="#646363"/>
      <path id="Path_70970" data-name="Path 70970" d="M253.736,558.343c2.6.053,4.931.4,6.177,1.882-.981-2.757-4.613-3.287-7.926-3.367L243.9,570.882l-34.145,59.2c-2.943,5.169-5.222,10.843-4.586,14,1.06-3.367,7.184-14,7.184-14l41.355-71.762h0Z" transform="translate(-163.798 -444.775)" fill="#646363"/>
    </g>
    <rect id="Rectangle_1770" data-name="Rectangle 1770" width="234" height="234" transform="translate(1026 391)" fill="none"/>
  </g>
</svg>
