<svg width="208" height="82" viewBox="0 0 208 82" fill="none" xmlns="http://www.w3.org/2000/svg">
<g clip-path="url(#clip0_2112_12574)">
<path d="M51.2147 54.4728C49.9368 54.4728 48.7623 54.2727 47.0645 53.8239L47.4722 52.0469C48.7684 52.3502 49.9429 52.5321 50.8922 52.5321C52.231 52.5321 53.7889 51.9681 53.7889 50.5732C53.7889 49.6878 53.4237 49.2815 52.0058 48.8387C49.5169 48.0685 47.2044 47.6076 47.2044 44.5995C47.2044 42.1555 48.9692 40.6636 51.7807 40.6636C52.8943 40.6636 54.0688 40.8455 55.8092 41.27L55.7666 41.458C55.578 42.301 54.7747 42.8711 53.9106 42.7498C53.3081 42.6649 52.6691 42.5982 52.2006 42.5982C51.0078 42.5982 49.7725 43.0834 49.7725 44.4115C49.7725 45.4183 50.241 45.764 52.0423 46.2067C54.799 46.892 56.3569 47.5773 56.3569 50.1608C56.3569 52.7444 54.4339 54.4607 51.2147 54.4607V54.4728Z" fill="#1A2F4D"/>
<path d="M60.9514 54.291V42.4952C60.9514 41.5734 61.6999 40.8335 62.6188 40.8335H63.5194V54.297H60.9453L60.9514 54.291Z" fill="#1A2F4D"/>
<path d="M75.9763 54.2907L70.8523 43.3743L70.9558 54.2907H68.8076V40.8271H72.2094L77.3333 51.8284L77.2481 42.5071C77.242 41.5792 77.9905 40.8271 78.9155 40.8271H79.378V54.2907H75.9763Z" fill="#1A2F4D"/>
<path d="M106.842 54.2907V48.1533H101.535V54.2907H98.9609V40.8271H101.535V46.3339H106.842V42.4889C106.842 41.567 107.59 40.8271 108.509 40.8271H109.41V54.2907H106.842Z" fill="#1A2F4D"/>
<path d="M122.433 53.1627L121.721 51.0825H116.439L115.368 54.2907H113.037L117.778 40.8271H120.711L125.591 54.2907H124.015C123.303 54.2907 122.664 53.8358 122.433 53.1627ZM119.031 42.8467L116.968 49.3662H121.161L119.037 42.8467H119.031Z" fill="#1A2F4D"/>
<path d="M152.86 54.4728C151.582 54.4728 150.408 54.2727 148.71 53.8239L149.112 52.0469C150.408 52.3502 151.582 52.5321 152.532 52.5321C153.87 52.5321 155.428 51.9681 155.428 50.5732C155.428 49.6878 155.063 49.2815 153.645 48.8387C151.156 48.0685 148.844 47.6076 148.844 44.5995C148.844 42.1555 150.609 40.6636 153.42 40.6636C154.534 40.6636 155.708 40.8455 157.449 41.27L157.406 41.458C157.217 42.301 156.414 42.8711 155.55 42.7498C154.948 42.6649 154.309 42.5982 153.84 42.5982C152.647 42.5982 151.412 43.0834 151.412 44.4115C151.412 45.4183 151.88 45.764 153.682 46.2067C156.438 46.892 157.996 47.5773 157.996 50.1608C157.996 52.7444 156.073 54.4607 152.854 54.4607L152.86 54.4728Z" fill="#1A2F4D"/>
<path d="M181.254 53.1568L180.548 51.0766H175.26L174.189 54.2848H171.858L176.599 40.8213H179.538L184.419 54.2848H182.843C182.125 54.2848 181.492 53.83 181.26 53.1568H181.254ZM177.853 42.8408L175.79 49.3603H179.982L177.859 42.8408H177.853Z" fill="#1A2F4D"/>
<path d="M94.3544 47.3953H89.0114C89.0114 47.3953 89.2609 49.239 91.0196 49.239H91.9081V52.2289C91.403 52.3926 90.5693 52.5503 89.6382 52.5503C88.5246 52.5503 87.7943 52.2107 87.271 51.4586C86.6625 50.6338 86.3582 49.2814 86.3582 47.5651C86.3582 44.2174 87.4901 42.5982 89.8999 42.5982C90.7884 42.5982 91.8655 42.7195 93.5633 43.0833L93.9467 41.3489C92.0663 40.8273 90.6667 40.6211 89.5713 40.6211C85.847 40.6211 83.6562 43.1015 83.6562 47.5833C83.6562 52.0651 85.701 54.5274 89.2244 54.5274C90.6423 54.5274 92.0907 54.2059 94.3362 53.3387V47.3953H94.3544Z" fill="#1A2F4D"/>
<path d="M142.703 48.2078C145.271 48.2078 145.192 46.3884 145.192 46.3884H139.21V42.6405H142.715C145.283 42.6405 145.204 40.8271 145.204 40.8271H136.636V54.2907C136.636 54.2907 141.997 54.2907 142.703 54.2907C145.271 54.2907 145.192 52.4774 145.192 52.4774H139.21V48.2139H142.703V48.2078Z" fill="#1A2F4D"/>
<path d="M205.499 48.2078C208.067 48.2078 207.982 46.3884 207.982 46.3884H202V42.6405H205.511C208.079 42.6405 208 40.8271 208 40.8271H199.432V54.2907C199.432 54.2907 204.793 54.2907 205.499 54.2907C208.067 54.2907 207.982 52.4774 207.982 52.4774H202V48.2139H205.493L205.499 48.2078Z" fill="#1A2F4D"/>
<path d="M171.499 40.8271H160.241V42.6405H164.312V54.2846H166.886V42.6405H169.016C171.584 42.6405 171.505 40.8271 171.505 40.8271H171.499Z" fill="#1A2F4D"/>
<path d="M196.419 40.8271H185.161V42.6405H189.232V54.2846H191.806V42.6405H193.936C196.504 42.6405 196.425 40.8271 196.425 40.8271H196.419Z" fill="#1A2F4D"/>
<path d="M31.1695 42.0705H27.4148L14.8241 63.8063C13.7104 65.747 12.8524 67.8757 13.0958 69.0643C11.3432 66.2079 13.394 63.3878 14.2094 61.9869L25.7474 42.0766H21.9927L12.4933 58.4754C11.3797 60.4161 10.5217 62.5448 10.7651 63.7335C9.01247 60.877 11.0633 58.057 11.8787 56.656L20.3192 42.0827H16.5645L10.1565 53.1385C9.04289 55.0792 8.18485 57.2079 8.42827 58.3966C6.67566 55.5401 8.72645 52.7201 9.5419 51.3191L14.891 42.0887H11.1363L7.82581 47.8077C6.71217 49.7484 5.85413 51.8771 6.09755 53.0658C4.34494 50.2093 6.39573 47.3892 7.21118 45.9883L9.46887 42.0948H5.37338C1.55781 42.0705 -5.57984e-05 40.0874 -5.57984e-05 37.9587C-5.57984e-05 37.9587 -0.0791665 36.5517 1.2292 34.2714L18.0432 5.25806C18.0432 5.25806 20.3557 1.26751 20.7513 0C21.8101 2.24392 20.1671 5.20348 19.7837 5.87059C19.6741 6.05253 3.32867 34.2714 3.32867 34.2714C2.50106 35.7148 2.03856 36.7397 2.00205 37.5463C1.92294 39.208 3.59643 39.4931 5.08736 39.5294L21.0129 12.0383C21.0129 12.0383 23.3254 8.0478 23.721 6.78029C24.7372 8.93931 23.0942 12.0687 22.7534 12.6509C22.6621 12.8086 10.5886 33.6528 7.18075 39.5294H10.9355L23.5262 17.7937C23.5262 17.7937 25.8387 13.8032 26.2342 12.5356C27.2505 14.6947 25.4249 17.4116 25.0841 17.9878C25.0111 18.1151 17.453 31.1602 12.609 39.5234H16.3637L25.863 23.1245C25.863 23.1245 28.1755 19.134 28.571 17.8665C29.5265 19.8981 27.6887 22.8638 27.4209 23.3186C27.36 23.4217 22.4734 31.8637 18.0372 39.5173H21.7919L28.1998 28.4614C28.1998 28.4614 30.5123 24.4709 30.9079 23.2034C31.8633 25.235 30.0255 28.2007 29.7577 28.6555C29.7151 28.7344 26.8184 33.7316 23.4654 39.5113H27.2201L30.5306 33.7923C30.5306 33.7923 32.843 29.8017 33.2386 28.5342C34.194 30.5659 32.3562 33.5315 32.0884 33.9863L28.8936 39.5052H33.9688C36.0926 39.5052 37.5105 40.1238 38.3564 41.0395V41.0517C38.8128 41.6399 39.4518 43.2895 37.2793 47.0375L33.1899 54.1028L20.3131 76.3237C19.1995 78.2644 18.3414 80.3931 18.5849 81.5818C16.8322 78.7253 18.7005 75.4929 19.5159 74.0859C19.6924 73.7766 19.8141 73.5704 19.8932 73.4309L35.0277 47.3104C35.8553 45.867 36.3178 44.8421 36.3543 44.0355C36.3665 43.7626 36.33 43.5261 36.2569 43.3199C35.8857 42.2828 34.5165 42.0827 33.269 42.0523L30.2202 47.3165L17.3434 69.5374C16.2298 71.4781 15.3717 73.6068 15.6152 74.7954C13.8626 71.939 15.7308 68.7065 16.5462 67.2995L31.1756 42.0463L31.1695 42.0705Z" fill="#CBA449"/>
<path d="M2.72621 39.02C2.19677 37.7404 3.93112 34.9264 4.76482 33.483L19.5342 7.98716C19.6072 7.8598 19.6985 7.70212 19.8202 7.49592C20.6356 6.08892 22.5039 2.86252 20.7512 0C21.8101 2.24392 20.167 5.20348 19.7837 5.87059C19.6741 6.05253 3.32866 34.2714 3.32866 34.2714C2.50104 35.7148 2.03855 36.7397 2.00204 37.5463C1.96553 38.268 2.26371 38.7289 2.72621 39.02Z" fill="#646363"/>
<path d="M12.6094 39.5292H13.5891L25.1271 19.619C25.9426 18.212 27.9933 15.398 26.2407 12.5415C27.257 14.7005 25.4314 17.4175 25.0906 17.9936L12.6155 39.5292H12.6094Z" fill="#646363"/>
<path d="M18.0371 39.5293H19.0169L27.4574 24.9559C28.2728 23.5489 30.3236 20.7349 28.571 17.8784C29.5264 19.9101 27.6886 22.8757 27.4208 23.3305L18.0371 39.5293Z" fill="#646363"/>
<path d="M23.4658 39.5296H24.4456L29.7947 30.2991C30.6101 28.8921 32.6609 26.0781 30.9083 23.2217C31.8637 25.2533 30.0259 28.219 29.7582 28.6738L23.4658 39.5296Z" fill="#646363"/>
<path d="M28.8877 39.5296H29.8675L32.1251 35.6361C32.9406 34.229 34.9914 31.415 33.2388 28.5586C34.1942 30.5903 32.3564 33.5559 32.0886 34.0107L28.8938 39.5296H28.8877Z" fill="#646363"/>
<path d="M7.18066 39.5294H8.16042L22.7898 14.2762C23.6052 12.8692 25.4735 9.64279 23.7209 6.78027C24.7371 8.93929 23.0941 12.0687 22.7533 12.6509C22.662 12.8085 10.5885 33.6528 7.18066 39.5294Z" fill="#646363"/>
<path d="M39.3239 43.6412C39.3239 42.7073 39.0196 41.7976 38.3624 41.0698C38.8127 41.6581 39.4395 43.3077 37.2731 47.0496L33.1837 54.1149L20.3069 76.3358C19.1933 78.2765 18.3353 80.4052 18.5787 81.5939C18.9742 80.3324 21.2867 76.3358 21.2867 76.3358L38.0946 47.3225C39.403 45.0482 39.3239 43.6352 39.3239 43.6352V43.6412Z" fill="#646363"/>
<path d="M28.0657 42.6346H30.8406L31.1631 42.0767H27.4084L27.0859 42.6346L14.8177 63.8124C13.704 65.7531 12.846 67.8818 13.0894 69.0705C13.485 67.809 15.7974 63.8124 15.7974 63.8124L28.0657 42.6346Z" fill="#646363"/>
<path d="M22.6442 42.6346H25.4191L25.7417 42.0767H21.987L21.6644 42.6346L12.4876 58.4694C11.374 60.4101 10.5159 62.5388 10.7593 63.7275C11.1549 62.466 13.4674 58.4694 13.4674 58.4694L22.6442 42.6346Z" fill="#646363"/>
<path d="M17.2156 42.6346H19.9906L20.3131 42.0767H16.5584L16.2359 42.6346L10.1565 53.1325C9.04291 55.0732 8.18487 57.2019 8.42828 58.3906C8.82384 57.1291 11.1363 53.1325 11.1363 53.1325L17.2156 42.6346Z" fill="#646363"/>
<path d="M11.7873 42.6346H14.5623L14.8848 42.0767H11.1301L10.8076 42.6346L7.81963 47.7956C6.706 49.7363 5.84795 51.865 6.09137 53.0537C6.48692 51.7922 8.79939 47.7956 8.79939 47.7956L11.7873 42.6346Z" fill="#646363"/>
<path d="M1.32031 40.8696C2.18444 41.5974 3.50498 42.0704 5.36104 42.0704H9.45653L9.13401 42.6284H6.77894C2.69562 42.6284 1.32031 40.8696 1.32031 40.8696Z" fill="#646363"/>
<path d="M33.9259 42.6346C34.9056 42.6589 35.788 42.7862 36.2566 43.3442C35.8854 42.3071 34.5162 42.107 33.2686 42.0767L30.2198 47.3408L17.3431 69.5617C16.2294 71.5024 15.3714 73.6311 15.6148 74.8198C16.0104 73.5583 18.3228 69.5617 18.3228 69.5617L33.9259 42.6285H33.932L33.9259 42.6346Z" fill="#646363"/>
</g>
<defs>
<clipPath id="clip0_2112_12574">
<rect width="208" height="81.6" fill="white"/>
</clipPath>
</defs>
</svg>
