<?xml version="1.0" encoding="UTF-8"?>
<svg id="Layer_1" data-name="Layer 1" xmlns="http://www.w3.org/2000/svg" xmlns:xlink="http://www.w3.org/1999/xlink" version="1.1" viewBox="0 0 110 43">
  <defs>
    <style>
      .cls-1 {
        fill: #646363;
      }

      .cls-1, .cls-2, .cls-3, .cls-4 {
        stroke-width: 0px;
      }

      .cls-5 {
        clip-path: url(#clippath);
      }

      .cls-2 {
        fill: none;
      }

      .cls-3 {
        fill: #cba449;
      }

      .cls-4 {
        fill: #fff;
      }
    </style>
    <clipPath id="clippath">
      <rect class="cls-2" x=".88" y=".2" width="108.24" height="42.61"/>
    </clipPath>
  </defs>
  <g class="cls-5">
    <g>
      <path class="cls-4" d="M27.53,28.64c-.66,0-1.28-.1-2.16-.34l.21-.93c.67.16,1.29.25,1.78.25.7,0,1.51-.29,1.51-1.02,0-.46-.19-.67-.93-.91-1.3-.4-2.5-.64-2.5-2.21,0-1.28.92-2.06,2.38-2.06.58,0,1.19.09,2.1.32l-.02.1c-.1.44-.52.74-.97.67-.31-.04-.65-.08-.89-.08-.62,0-1.26.25-1.26.95,0,.53.24.71,1.18.94,1.43.36,2.25.72,2.25,2.06s-1,2.25-2.68,2.25h0Z"/>
      <path class="cls-4" d="M32.6,28.54v-6.16c0-.48.39-.87.87-.87h.47v7.03h-1.34,0Z"/>
      <path class="cls-4" d="M40.42,28.54l-2.67-5.7.05,5.7h-1.12v-7.03h1.77l2.67,5.74-.04-4.87c0-.48.39-.88.87-.88h.24v7.03h-1.77Z"/>
      <path class="cls-4" d="M56.48,28.54v-3.2h-2.76v3.2h-1.34v-7.03h1.34v2.88h2.76v-2.01c0-.48.39-.87.87-.87h.47v7.03h-1.34Z"/>
      <path class="cls-4" d="M64.59,27.96l-.37-1.09h-2.75l-.56,1.68h-1.21l2.47-7.03h1.53l2.54,7.03h-.82c-.37,0-.7-.24-.82-.59ZM62.82,22.57l-1.07,3.4h2.18l-1.11-3.4h0Z"/>
      <path class="cls-4" d="M80.43,28.64c-.66,0-1.28-.1-2.16-.34l.21-.93c.67.16,1.29.25,1.78.25.7,0,1.51-.29,1.51-1.02,0-.46-.19-.67-.93-.91-1.3-.4-2.5-.64-2.5-2.21,0-1.28.92-2.06,2.38-2.06.58,0,1.19.09,2.1.32l-.02.1c-.1.44-.52.74-.97.67-.31-.04-.65-.08-.89-.08-.62,0-1.26.25-1.26.95,0,.53.24.71,1.18.94,1.43.36,2.25.72,2.25,2.06s-1,2.25-2.68,2.25h0Z"/>
      <path class="cls-4" d="M95.2,27.95l-.37-1.09h-2.75l-.56,1.68h-1.21l2.47-7.03h1.53l2.54,7.03h-.82c-.37,0-.7-.24-.82-.59h0ZM93.43,22.56l-1.07,3.4h2.18l-1.11-3.4h0Z"/>
      <path class="cls-4" d="M49.98,24.94h-2.78s.13.96,1.05.96h.46v1.56c-.26.09-.7.17-1.18.17-.58,0-.96-.18-1.23-.57-.32-.43-.48-1.14-.48-2.03,0-1.75.59-2.59,1.84-2.59.46,0,1.02.06,1.91.25l.2-.91c-.98-.27-1.71-.38-2.28-.38-1.94,0-3.08,1.3-3.08,3.64s1.06,3.63,2.9,3.63c.74,0,1.49-.17,2.66-.62v-3.1h0Z"/>
      <path class="cls-4" d="M75.14,25.37c1.34,0,1.3-.95,1.3-.95h-3.11v-1.96h1.82c1.34,0,1.3-.95,1.3-.95h-4.46v7.03h3.16c1.34,0,1.3-.95,1.3-.95h-3.11v-2.23h1.82Z"/>
      <path class="cls-4" d="M107.82,25.37c1.34,0,1.29-.95,1.29-.95h-3.11v-1.96h1.83c1.34,0,1.3-.95,1.3-.95h-4.46v7.03h3.16c1.34,0,1.29-.95,1.29-.95h-3.11v-2.23h1.82Z"/>
      <path class="cls-4" d="M90.13,21.51h-5.86v.95h2.12v6.08h1.34v-6.08h1.11c1.34,0,1.3-.95,1.3-.95h0Z"/>
      <path class="cls-4" d="M103.09,21.51h-5.86v.95h2.12v6.08h1.34v-6.08h1.11c1.34,0,1.3-.95,1.3-.95h0Z"/>
      <path class="cls-3" d="M17.1,22.16h-1.95l-6.55,11.35c-.58,1.01-1.03,2.12-.9,2.75-.91-1.49.16-2.96.58-3.7l6-10.4h-1.95l-4.94,8.56c-.58,1.01-1.03,2.12-.9,2.75-.91-1.49.16-2.96.58-3.7l4.39-7.61h-1.95l-3.33,5.77c-.58,1.01-1.03,2.12-.9,2.75-.91-1.49.16-2.96.58-3.7l2.78-4.82h-1.95l-1.72,2.99c-.58,1.01-1.03,2.12-.9,2.75-.91-1.49.16-2.96.58-3.7l1.17-2.03h-2.13c-1.99-.01-2.8-1.05-2.8-2.16,0,0-.04-.73.64-1.93L10.27,2.94s1.2-2.08,1.41-2.75c.55,1.17-.3,2.72-.5,3.07-.06.1-8.56,14.83-8.56,14.83-.43.75-.67,1.29-.69,1.71-.04.87.83,1.02,1.61,1.04L11.81,6.48s1.2-2.08,1.41-2.75c.53,1.13-.33,2.76-.5,3.07-.05.08-6.33,10.97-8.1,14.04h1.95l6.55-11.35s1.2-2.08,1.41-2.75c.53,1.13-.42,2.55-.6,2.85-.04.07-3.97,6.88-6.49,11.25h1.95l4.94-8.56s1.2-2.08,1.41-2.75c.5,1.06-.46,2.61-.6,2.85-.03.05-2.57,4.46-4.88,8.46h1.95l3.33-5.77s1.2-2.08,1.41-2.75c.5,1.06-.46,2.61-.6,2.85-.02.04-1.53,2.65-3.27,5.67h1.95l1.72-2.99s1.2-2.08,1.41-2.75c.5,1.06-.46,2.61-.6,2.85l-1.66,2.88h2.64c1.11,0,1.84.32,2.28.8h0c.24.31.57,1.17-.56,3.13l-2.13,3.69-6.7,11.6c-.58,1.01-1.03,2.12-.9,2.75-.91-1.49.06-3.18.48-3.91.09-.16.16-.27.2-.34l7.88-13.64c.43-.75.67-1.29.69-1.71,0-.14-.01-.27-.05-.37-.19-.54-.91-.65-1.55-.66l-1.59,2.75-6.7,11.6c-.58,1.01-1.03,2.12-.9,2.75-.91-1.49.06-3.18.48-3.91l7.61-13.19h0Z"/>
      <path class="cls-1" d="M2.3,20.57c-.28-.67.63-2.14,1.06-2.89l7.69-13.31c.04-.07.09-.15.15-.26.42-.73,1.4-2.42.48-3.91.55,1.17-.3,2.72-.5,3.07-.06.1-8.56,14.83-8.56,14.83-.43.75-.67,1.29-.69,1.71-.02.38.14.62.38.77Z"/>
      <path class="cls-1" d="M7.44,20.84h.51l6-10.4c.42-.73,1.49-2.2.58-3.7.53,1.13-.42,2.55-.6,2.85l-6.49,11.25h0Z"/>
      <path class="cls-1" d="M10.27,20.84h.51l4.39-7.61c.42-.73,1.49-2.2.58-3.7.5,1.06-.46,2.61-.6,2.85l-4.88,8.46Z"/>
      <path class="cls-1" d="M13.09,20.84h.51l2.78-4.82c.42-.73,1.49-2.2.58-3.7.5,1.06-.46,2.61-.6,2.85l-3.27,5.67Z"/>
      <path class="cls-1" d="M15.91,20.84h.51l1.17-2.03c.42-.73,1.49-2.2.58-3.7.5,1.06-.46,2.61-.6,2.85l-1.66,2.88h0Z"/>
      <path class="cls-1" d="M4.62,20.84h.51l7.61-13.19c.42-.73,1.4-2.42.48-3.91.53,1.13-.33,2.76-.5,3.07-.05.08-6.33,10.97-8.1,14.04Z"/>
      <path class="cls-1" d="M21.34,22.98c0-.49-.16-.96-.5-1.34.23.31.56,1.17-.57,3.12l-2.13,3.69-6.7,11.6c-.58,1.01-1.03,2.12-.9,2.75.21-.66,1.41-2.75,1.41-2.75l8.75-15.15c.68-1.19.64-1.93.64-1.93h0Z"/>
      <path class="cls-1" d="M15.49,22.46h1.44l.17-.29h-1.95l-.17.29-6.38,11.06c-.58,1.01-1.03,2.12-.9,2.75.21-.66,1.41-2.75,1.41-2.75l6.38-11.06Z"/>
      <path class="cls-1" d="M12.66,22.46h1.44l.17-.29h-1.95l-.17.29-4.78,8.27c-.58,1.01-1.03,2.12-.9,2.75.21-.66,1.41-2.75,1.41-2.75l4.78-8.27Z"/>
      <path class="cls-1" d="M9.84,22.46h1.44l.17-.29h-1.95l-.17.29-3.16,5.48c-.58,1.01-1.03,2.12-.9,2.75.21-.66,1.41-2.75,1.41-2.75l3.16-5.48Z"/>
      <path class="cls-1" d="M7.01,22.46h1.44l.17-.29h-1.95l-.17.29-1.55,2.69c-.58,1.01-1.03,2.12-.9,2.75.21-.66,1.41-2.75,1.41-2.75l1.55-2.69Z"/>
      <path class="cls-1" d="M1.57,21.54c.45.38,1.14.63,2.1.63h2.13l-.17.29h-1.23c-2.12,0-2.84-.92-2.84-.92Z"/>
      <path class="cls-1" d="M18.53,22.46c.51.01.97.08,1.21.37-.19-.54-.91-.65-1.55-.66l-1.59,2.75-6.7,11.6c-.58,1.01-1.03,2.12-.9,2.75.21-.66,1.41-2.75,1.41-2.75l8.12-14.06h0,0Z"/>
    </g>
  </g>
</svg>