<svg width="20" height="20" viewBox="0 0 20 20" fill="none" xmlns="http://www.w3.org/2000/svg">
<path fill-rule="evenodd" clip-rule="evenodd" d="M9.99984 3.33366C8.23173 3.33366 6.53603 4.03604 5.28579 5.28628C4.03555 6.53652 3.33317 8.23222 3.33317 10.0003C3.33317 10.8758 3.50561 11.7427 3.84064 12.5515C4.17567 13.3604 4.66673 14.0953 5.28579 14.7144C5.90485 15.3334 6.63978 15.8245 7.44861 16.1595C8.25745 16.4946 9.12436 16.667 9.99984 16.667C10.8753 16.667 11.7422 16.4946 12.5511 16.1595C13.3599 15.8245 14.0948 15.3334 14.7139 14.7144C15.3329 14.0953 15.824 13.3604 16.159 12.5515C16.4941 11.7427 16.6665 10.8758 16.6665 10.0003C16.6665 8.23222 15.9641 6.53652 14.7139 5.28628C13.4636 4.03604 11.7679 3.33366 9.99984 3.33366ZM4.10728 4.10777C5.67008 2.54497 7.7897 1.66699 9.99984 1.66699C12.21 1.66699 14.3296 2.54497 15.8924 4.10777C17.4552 5.67057 18.3332 7.79019 18.3332 10.0003C18.3332 11.0947 18.1176 12.1783 17.6988 13.1894C17.28 14.2004 16.6662 15.1191 15.8924 15.8929C15.1186 16.6667 14.1999 17.2805 13.1889 17.6993C12.1778 18.1181 11.0942 18.3337 9.99984 18.3337C8.90549 18.3337 7.82186 18.1181 6.81081 17.6993C5.79976 17.2805 4.8811 16.6667 4.10728 15.8929C3.33346 15.1191 2.71963 14.2004 2.30084 13.1894C1.88205 12.1783 1.6665 11.0947 1.6665 10.0003C1.6665 7.79019 2.54448 5.67057 4.10728 4.10777ZM9.99984 5.83366C10.4601 5.83366 10.8332 6.20676 10.8332 6.66699V9.65515L13.0891 11.9111C13.4145 12.2365 13.4145 12.7641 13.0891 13.0896C12.7637 13.415 12.236 13.415 11.9106 13.0896L9.41058 10.5896C9.2543 10.4333 9.1665 10.2213 9.1665 10.0003V6.66699C9.1665 6.20676 9.5396 5.83366 9.99984 5.83366Z" fill="#A3A3A3"/>
</svg>
