<svg width="20" height="20" viewBox="0 0 20 20" fill="none" xmlns="http://www.w3.org/2000/svg">
<path fill-rule="evenodd" clip-rule="evenodd" d="M5 4.16667C4.77899 4.16667 4.56702 4.25446 4.41074 4.41074C4.25446 4.56702 4.16667 4.77899 4.16667 5V6.66667C4.16667 6.88768 4.25446 7.09964 4.41074 7.25592C4.56702 7.4122 4.77899 7.5 5 7.5H6.66667C6.88768 7.5 7.09964 7.4122 7.25592 7.25592C7.4122 7.09964 7.5 6.88768 7.5 6.66667V5C7.5 4.77899 7.4122 4.56702 7.25592 4.41074C7.09964 4.25446 6.88768 4.16667 6.66667 4.16667H5ZM3.23223 3.23223C3.70107 2.76339 4.33696 2.5 5 2.5H6.66667C7.32971 2.5 7.96559 2.76339 8.43443 3.23223C8.90327 3.70107 9.16667 4.33696 9.16667 5V6.66667C9.16667 7.32971 8.90327 7.96559 8.43443 8.43443C7.96559 8.90327 7.32971 9.16667 6.66667 9.16667H5C4.33696 9.16667 3.70107 8.90327 3.23223 8.43443C2.76339 7.96559 2.5 7.32971 2.5 6.66667V5C2.5 4.33696 2.76339 3.70107 3.23223 3.23223ZM13.3333 4.16667C13.1123 4.16667 12.9004 4.25446 12.7441 4.41074C12.5878 4.56702 12.5 4.77899 12.5 5V6.66667C12.5 6.88768 12.5878 7.09964 12.7441 7.25592C12.9004 7.4122 13.1123 7.5 13.3333 7.5H15C15.221 7.5 15.433 7.4122 15.5893 7.25592C15.7455 7.09964 15.8333 6.88768 15.8333 6.66667V5C15.8333 4.77899 15.7455 4.56702 15.5893 4.41074C15.433 4.25446 15.221 4.16667 15 4.16667H13.3333ZM11.5656 3.23223C12.0344 2.76339 12.6703 2.5 13.3333 2.5H15C15.663 2.5 16.2989 2.76339 16.7678 3.23223C17.2366 3.70107 17.5 4.33696 17.5 5V6.66667C17.5 7.32971 17.2366 7.96559 16.7678 8.43443C16.2989 8.90327 15.663 9.16667 15 9.16667H13.3333C12.6703 9.16667 12.0344 8.90327 11.5656 8.43443C11.0967 7.96559 10.8333 7.32971 10.8333 6.66667V5C10.8333 4.33696 11.0967 3.70107 11.5656 3.23223ZM5 12.5C4.77899 12.5 4.56702 12.5878 4.41074 12.7441C4.25446 12.9004 4.16667 13.1123 4.16667 13.3333V15C4.16667 15.221 4.25446 15.433 4.41074 15.5893C4.56702 15.7455 4.77899 15.8333 5 15.8333H6.66667C6.88768 15.8333 7.09964 15.7455 7.25592 15.5893C7.4122 15.433 7.5 15.221 7.5 15V13.3333C7.5 13.1123 7.4122 12.9004 7.25592 12.7441C7.09964 12.5878 6.88768 12.5 6.66667 12.5H5ZM3.23223 11.5656C3.70107 11.0967 4.33696 10.8333 5 10.8333H6.66667C7.32971 10.8333 7.96559 11.0967 8.43443 11.5656C8.90327 12.0344 9.16667 12.6703 9.16667 13.3333V15C9.16667 15.663 8.90327 16.2989 8.43443 16.7678C7.96559 17.2366 7.32971 17.5 6.66667 17.5H5C4.33696 17.5 3.70107 17.2366 3.23223 16.7678C2.76339 16.2989 2.5 15.663 2.5 15V13.3333C2.5 12.6703 2.76339 12.0344 3.23223 11.5656ZM13.3333 12.5C13.1123 12.5 12.9004 12.5878 12.7441 12.7441C12.5878 12.9004 12.5 13.1123 12.5 13.3333V15C12.5 15.221 12.5878 15.433 12.7441 15.5893C12.9004 15.7455 13.1123 15.8333 13.3333 15.8333H15C15.221 15.8333 15.433 15.7455 15.5893 15.5893C15.7455 15.433 15.8333 15.221 15.8333 15V13.3333C15.8333 13.1123 15.7455 12.9004 15.5893 12.7441C15.433 12.5878 15.221 12.5 15 12.5H13.3333ZM11.5656 11.5656C12.0344 11.0967 12.6703 10.8333 13.3333 10.8333H15C15.663 10.8333 16.2989 11.0967 16.7678 11.5656C17.2366 12.0344 17.5 12.6703 17.5 13.3333V15C17.5 15.663 17.2366 16.2989 16.7678 16.7678C16.2989 17.2366 15.663 17.5 15 17.5H13.3333C12.6703 17.5 12.0344 17.2366 11.5656 16.7678C11.0967 16.2989 10.8333 15.663 10.8333 15V13.3333C10.8333 12.6703 11.0967 12.0344 11.5656 11.5656Z" fill="white"/>
</svg>
