<svg xmlns="http://www.w3.org/2000/svg" width="43" height="41.849" viewBox="0 0 43 41.849">
  <g id="shopping-cart_833314" transform="translate(0 -6.028)">
    <g id="Group_632" data-name="Group 632" transform="translate(0 6.028)">
      <g id="Group_631" data-name="Group 631" transform="translate(0 0)">
        <path id="Path_19652" data-name="Path 19652" d="M101.142,350.322a4.489,4.489,0,1,0,4.489,4.489A4.489,4.489,0,0,0,101.142,350.322Zm0,6.983a2.494,2.494,0,1,1,2.494-2.494A2.494,2.494,0,0,1,101.142,357.305Z" transform="translate(-87.425 -317.451)" fill="#564b40"/>
        <path id="Path_19653" data-name="Path 19653" d="M299.673,350.322a4.489,4.489,0,1,0,4.489,4.489A4.489,4.489,0,0,0,299.673,350.322Zm0,6.983a2.494,2.494,0,1,1,2.494-2.494A2.494,2.494,0,0,1,299.673,357.305Z" transform="translate(-267.002 -317.451)" fill="#564b40"/>
        <path id="Path_19654" data-name="Path 19654" d="M42.8,12.712a1.247,1.247,0,0,0-.8-.4L9.527,11.864l-.9-2.743A4.589,4.589,0,0,0,4.34,6.028H1a1,1,0,1,0,0,2H4.34A2.594,2.594,0,0,1,6.734,9.769l6.335,19.1-.5,1.147a4.788,4.788,0,0,0,.449,4.34,4.639,4.639,0,0,0,3.741,2.095h19.4a1,1,0,1,0,0-2H16.76a2.544,2.544,0,0,1-2.095-1.2,2.743,2.743,0,0,1-.249-2.394l.4-.9,21-2.195a5.487,5.487,0,0,0,4.739-4.19L42.946,13.56A.848.848,0,0,0,42.8,12.712Zm-4.19,10.425a3.392,3.392,0,0,1-3.043,2.644l-20.75,2.145L10.175,13.859l30.576.449Z" transform="translate(0 -6.028)" fill="#564b40"/>
      </g>
    </g>
  </g>
</svg>
