<svg xmlns="http://www.w3.org/2000/svg" width="60.466" height="22.598" viewBox="0 0 60.466 22.598">
  <g id="sedan_2736918" transform="translate(0 -160.323)">
    <path id="Path_54215" data-name="Path 54215" d="M91.411,294.039a.883.883,0,0,0,.626-.259l1.339-1.339a.886.886,0,0,0-1.253-1.253l-1.339,1.339a.886.886,0,0,0,.626,1.512Z" transform="translate(-79.834 -115.182)" fill="#564b40"/>
    <path id="Path_54216" data-name="Path 54216" d="M404.753,293.779a.886.886,0,0,0,1.253-1.253l-1.339-1.339a.886.886,0,1,0-1.253,1.253Z" transform="translate(-355.544 -115.181)" fill="#564b40"/>
    <path id="Path_54217" data-name="Path 54217" d="M57.795,169.518c-5-2.323-12.527-2.545-14.047-2.566l-7.176-4.566a13.171,13.171,0,0,0-7.083-2.063H21.055a14.211,14.211,0,0,0-6.323,1.493l-4.493,2.246a13.281,13.281,0,0,1-4.3,1.3l-3.5.438A2.783,2.783,0,0,0,0,168.56v5.653A3.742,3.742,0,0,0,2.7,177.8l4.184,1.2a5.617,5.617,0,0,0,10.24,1.09H44.286a5.624,5.624,0,1,0-.646-1.771H17.773a5.618,5.618,0,1,0-11.14-1.234l-3.444-.984a1.962,1.962,0,0,1-1.417-1.879v-2.652H2.779a.886.886,0,1,0,0-1.771H1.771v-1.23a1.009,1.009,0,0,1,.883-1l3.5-.438a15.049,15.049,0,0,0,4.876-1.476l.4-.2,1.638,1.631a5.583,5.583,0,0,0,3.973,1.646h1.826a.886.886,0,1,0,0-1.771H17.047a3.9,3.9,0,0,1-.459-.028l.979-4.323a12.415,12.415,0,0,1,3.489-.5h4.506v4.855h-2.9a.886.886,0,0,0,0,1.771H43.486c.084,0,8.452.03,13.562,2.4a2.784,2.784,0,0,1,.8.558h-1.1a.886.886,0,1,0,0,1.771h1.938c.01.1.016.192.016.29v3.143c0,.877-.386,1.422-1.008,1.422a.886.886,0,1,0,0,1.771,2.622,2.622,0,0,0,2.007-.909,3.416,3.416,0,0,0,.772-2.285v-3.143a4.663,4.663,0,0,0-2.671-4.226Zm-8.628,3.936a3.848,3.848,0,1,1-3.848,3.848A3.852,3.852,0,0,1,49.166,173.455Zm-36.921,0A3.848,3.848,0,1,1,8.4,177.3a3.852,3.852,0,0,1,3.848-3.848Zm2.665-7.151a3.889,3.889,0,0,1-.585-.481l-1.216-1.216,2.414-1.207.05-.024Zm12.421-4.21h2.157a11.4,11.4,0,0,1,6.132,1.786l4.824,3.07H27.332Z" fill="#564b40"/>
    <path id="Path_54218" data-name="Path 54218" d="M169.225,280.564a.886.886,0,1,0,0,1.771H189.1a.886.886,0,1,0,0-1.771Z" transform="translate(-148.459 -106.041)" fill="#564b40"/>
  </g>
</svg>
