<svg width="20" height="20" viewBox="0 0 20 20" fill="none" xmlns="http://www.w3.org/2000/svg">
<path fill-rule="evenodd" clip-rule="evenodd" d="M2.5 5.00033C2.5 4.54009 2.8731 4.16699 3.33333 4.16699H16.6667C17.1269 4.16699 17.5 4.54009 17.5 5.00033C17.5 5.46056 17.1269 5.83366 16.6667 5.83366H3.33333C2.8731 5.83366 2.5 5.46056 2.5 5.00033ZM2.5 8.33366C2.5 7.87342 2.8731 7.50033 3.33333 7.50033H16.6667C17.1269 7.50033 17.5 7.87342 17.5 8.33366C17.5 8.7939 17.1269 9.16699 16.6667 9.16699H3.33333C2.8731 9.16699 2.5 8.7939 2.5 8.33366ZM2.5 11.667C2.5 11.2068 2.8731 10.8337 3.33333 10.8337H16.6667C17.1269 10.8337 17.5 11.2068 17.5 11.667C17.5 12.1272 17.1269 12.5003 16.6667 12.5003H3.33333C2.8731 12.5003 2.5 12.1272 2.5 11.667ZM2.5 15.0003C2.5 14.5401 2.8731 14.167 3.33333 14.167H16.6667C17.1269 14.167 17.5 14.5401 17.5 15.0003C17.5 15.4606 17.1269 15.8337 16.6667 15.8337H3.33333C2.8731 15.8337 2.5 15.4606 2.5 15.0003Z" fill="#948668"/>
</svg>
