<svg id="logo" xmlns="http://www.w3.org/2000/svg" xmlns:xlink="http://www.w3.org/1999/xlink" width="149.071" height="93.907" viewBox="0 0 149.071 93.907">
  <defs>
    <clipPath id="clip-path">
      <rect id="Rectangle_1717" data-name="Rectangle 1717" width="149.071" height="93.907" fill="#fff"/>
    </clipPath>
  </defs>
  <g id="Group_2515" data-name="Group 2515" clip-path="url(#clip-path)">
    <path id="Path_70592" data-name="Path 70592" d="M24.452,197.81a1.47,1.47,0,0,0,.448.3,2.1,2.1,0,0,0,.823.123,2.953,2.953,0,0,0,.867-.123,2.061,2.061,0,0,0,.7-.361,1.765,1.765,0,0,0,.47-.578,1.681,1.681,0,0,0,.173-.773,1.387,1.387,0,0,0-.354-.968,3.6,3.6,0,0,0-.881-.693q-.528-.3-1.148-.592a6.325,6.325,0,0,1-1.148-.686,3.609,3.609,0,0,1-.881-.953,2.545,2.545,0,0,1-.354-1.394,2.6,2.6,0,0,1,.217-1.084,2.256,2.256,0,0,1,.614-.809,2.827,2.827,0,0,1,.946-.513,3.9,3.9,0,0,1,1.228-.181,8.758,8.758,0,0,1,1.61.137,4.729,4.729,0,0,1,1.149.34,5.2,5.2,0,0,1-.037.571c-.024.216-.052.44-.086.671s-.07.455-.108.671-.077.407-.116.571h-.375L27.63,189.5a2.624,2.624,0,0,0-.664-.173,6.051,6.051,0,0,0-.853-.058,1.7,1.7,0,0,0-1.2.412,1.474,1.474,0,0,0-.452,1.148,1.453,1.453,0,0,0,.356,1,3.642,3.642,0,0,0,.894.722q.538.319,1.156.614a7.368,7.368,0,0,1,1.155.686,3.6,3.6,0,0,1,.895.925,2.348,2.348,0,0,1,.355,1.328,2.867,2.867,0,0,1-.238,1.185,2.5,2.5,0,0,1-.686.91,3.141,3.141,0,0,1-1.1.578,4.968,4.968,0,0,1-1.474.2,5.683,5.683,0,0,1-1.632-.217,3.118,3.118,0,0,1-1.026-.463c.01-.163.027-.361.05-.592s.053-.469.087-.715.069-.483.108-.715.077-.428.116-.592h.375Z" transform="translate(-12.888 -105.073)" fill="#fff"/>
    <path id="Path_70593" data-name="Path 70593" d="M44.8,199.025H41.1v-.419a4.185,4.185,0,0,1,1.156-.347v-8.567a4.96,4.96,0,0,1-.578-.151q-.289-.094-.578-.21v-.419h3.7v.419a4.972,4.972,0,0,1-.563.21,5.81,5.81,0,0,1-.593.151v8.567q.3.057.607.144a3.64,3.64,0,0,1,.549.2Z" transform="translate(-22.909 -105.291)" fill="#fff"/>
    <path id="Path_70594" data-name="Path 70594" d="M59.4,188.914h3.12v.419a4.466,4.466,0,0,1-1.185.578V199.2h-.823l-5.244-7.959-.563-1.127h-.044l.13,1.127V198.1a3.76,3.76,0,0,1,1.112.505v.419h-3.12v-.419a4,4,0,0,1,.556-.282q.3-.123.628-.224v-8.277q-.289-.116-.57-.246c-.188-.086-.364-.174-.527-.26v-.4h2.441l4.55,6.861.664,1.243h.058l-.072-1.243v-5.865q-.3-.13-.585-.274a6.063,6.063,0,0,1-.527-.3Z" transform="translate(-29.422 -105.292)" fill="#fff"/>
    <path id="Path_70595" data-name="Path 70595" d="M86.305,198.114a5.287,5.287,0,0,1-.643.31,8.045,8.045,0,0,1-.78.274,8.284,8.284,0,0,1-.823.2,4.117,4.117,0,0,1-.773.08,6.524,6.524,0,0,1-2.081-.31,4.026,4.026,0,0,1-1.574-.954,4.283,4.283,0,0,1-1-1.625,6.921,6.921,0,0,1-.355-2.341,6.326,6.326,0,0,1,.412-2.412,4.482,4.482,0,0,1,1.1-1.625,4.183,4.183,0,0,1,1.56-.91,5.772,5.772,0,0,1,1.784-.282,8.986,8.986,0,0,1,1.611.123,4.387,4.387,0,0,1,1.149.368q0,.217-.015.535c-.01.212-.024.433-.044.664s-.043.46-.072.686-.058.426-.087.6h-.375l-.751-2.08a1.43,1.43,0,0,0-.533-.116c-.249-.019-.494-.029-.734-.029a3.549,3.549,0,0,0-1.368.267,2.988,2.988,0,0,0-1.13.823,4.138,4.138,0,0,0-.771,1.4,6.165,6.165,0,0,0-.288,1.986A5.7,5.7,0,0,0,80,195.6a4.305,4.305,0,0,0,.778,1.409,3.474,3.474,0,0,0,1.167.9,3.337,3.337,0,0,0,1.448.318,2.722,2.722,0,0,0,.562-.058,4.191,4.191,0,0,0,.5-.138,2.219,2.219,0,0,0,.382-.166,1.064,1.064,0,0,0,.209-.144v-2.918a3.375,3.375,0,0,1-.715-.13q-.341-.1-.672-.217v-.419H87.2v.419a1.909,1.909,0,0,1-.347.188,2.951,2.951,0,0,1-.549.158Z" transform="translate(-43.626 -105.073)" fill="#fff"/>
    <path id="Path_70596" data-name="Path 70596" d="M104.414,199.025h-3.655v-.419a6.386,6.386,0,0,1,1.185-.347v-8.567a3.783,3.783,0,0,1-1.185-.361v-.419h3.655v.419a3.057,3.057,0,0,1-.52.217,5.223,5.223,0,0,1-.563.144v3.77h4.536v-3.77c-.2-.048-.393-.1-.571-.158a4.313,4.313,0,0,1-.513-.2v-.419h3.654v.419a2.368,2.368,0,0,1-.571.224c-.208.054-.412.1-.614.137v8.567a5.971,5.971,0,0,1,.636.144,3.658,3.658,0,0,1,.549.2v.419h-3.654v-.419a5.238,5.238,0,0,1,1.083-.347v-4.045H103.33v4.045a5.226,5.226,0,0,1,.563.144,4.216,4.216,0,0,1,.52.2Z" transform="translate(-56.158 -105.291)" fill="#fff"/>
    <path id="Path_70597" data-name="Path 70597" d="M127.594,198.807h-3.207v-.419a5.523,5.523,0,0,1,1.04-.347l3.655-9.52h.419l3.654,9.52q.289.058.571.13a2,2,0,0,1,.527.216v.419h-3.727v-.419a6.207,6.207,0,0,1,.592-.2q.3-.087.593-.144l-.977-2.643H127.3l-.948,2.643a5.273,5.273,0,0,1,1.243.347Zm-.007-4.16h2.9l-1.135-3.063-.273-1.242h-.029l-.359,1.271Z" transform="translate(-69.328 -105.073)" fill="#fff"/>
    <path id="Path_70598" data-name="Path 70598" d="M168.85,196.178h.376q.072.4.13,1.019a8.389,8.389,0,0,1,.029,1.192,1.805,1.805,0,0,1-.52.282,4.976,4.976,0,0,1-.643.18,5.506,5.506,0,0,1-.693.1c-.237.019-.46.029-.672.029a7,7,0,0,1-2.167-.31,4.114,4.114,0,0,1-1.611-.946,4.163,4.163,0,0,1-1.011-1.625,6.977,6.977,0,0,1-.354-2.347,6.576,6.576,0,0,1,.39-2.405,4.415,4.415,0,0,1,1.055-1.618,4.055,4.055,0,0,1,1.545-.917,5.9,5.9,0,0,1,1.849-.289,8.824,8.824,0,0,1,1.6.123,4.351,4.351,0,0,1,1.141.368q0,.231-.015.541c-.01.208-.024.426-.043.658s-.043.457-.072.679-.058.424-.087.607h-.375l-.751-2.08a1.4,1.4,0,0,0-.526-.116q-.367-.029-.727-.029a3.5,3.5,0,0,0-1.361.267,3,3,0,0,0-1.123.823,4.161,4.161,0,0,0-.771,1.4,6.894,6.894,0,0,0-.029,3.843,4.068,4.068,0,0,0,.749,1.416,3.241,3.241,0,0,0,1.2.9,3.935,3.935,0,0,0,1.6.31,3.638,3.638,0,0,0,.792-.072.809.809,0,0,0,.418-.188Z" transform="translate(-90.132 -105.073)" fill="#fff"/>
    <path id="Path_70599" data-name="Path 70599" d="M183.547,193.752a6.738,6.738,0,0,1,.311-2.088,4.931,4.931,0,0,1,.9-1.661,4.043,4.043,0,0,1,1.438-1.091,5,5,0,0,1,3.871,0A4.038,4.038,0,0,1,191.5,190a4.923,4.923,0,0,1,.9,1.661,7.167,7.167,0,0,1,0,4.175,4.919,4.919,0,0,1-.9,1.661,4.033,4.033,0,0,1-1.437,1.091,5,5,0,0,1-3.871,0,4.038,4.038,0,0,1-1.438-1.091,4.927,4.927,0,0,1-.9-1.661,6.736,6.736,0,0,1-.311-2.088m1.546,0a7.469,7.469,0,0,0,.195,1.741,4.579,4.579,0,0,0,.585,1.422,2.965,2.965,0,0,0,.983.961,2.674,2.674,0,0,0,1.4.354,2.317,2.317,0,0,0,1.286-.354,2.79,2.79,0,0,0,.9-.961,4.936,4.936,0,0,0,.534-1.422,8.047,8.047,0,0,0,.181-1.741,7.775,7.775,0,0,0-.188-1.741,4.461,4.461,0,0,0-.578-1.422,2.977,2.977,0,0,0-.982-.961,2.683,2.683,0,0,0-1.4-.354,2.464,2.464,0,0,0-1.351.354,2.706,2.706,0,0,0-.9.961,4.643,4.643,0,0,0-.506,1.422,9.122,9.122,0,0,0-.158,1.741" transform="translate(-102.301 -105.074)" fill="#fff"/>
    <path id="Path_70600" data-name="Path 70600" d="M219.371,199.025h-3.553v-.419a5.369,5.369,0,0,1,.577-.2q.289-.079.593-.151v-6.5l.058-1.69h-.116l-.477,1.546-2.961,7.41h-.376l-2.817-7.41-.52-1.69h-.13l.014,1.835v6.5a5.62,5.62,0,0,1,.549.144q.274.087.549.2v.419h-3.019v-.419c.182-.077.373-.147.57-.21a5.326,5.326,0,0,1,.6-.152v-8.551a5.053,5.053,0,0,1-.6-.151q-.3-.094-.585-.21v-.419h2.962l2.513,6.6.491,1.488h.015l.491-1.517,2.6-6.573h2.586v.419c-.173.077-.352.147-.535.21a4.3,4.3,0,0,1-.563.151v8.581q.3.058.571.137a3.613,3.613,0,0,1,.513.2Z" transform="translate(-115.778 -105.291)" fill="#fff"/>
    <path id="Path_70601" data-name="Path 70601" d="M239.408,198.115a4.94,4.94,0,0,1,.737.137q.347.095.65.21v.419h-3.958v-.419a2.7,2.7,0,0,1,.592-.216c.2-.049.4-.092.592-.13v-8.567a4.425,4.425,0,0,1-.621-.151q-.289-.094-.563-.209v-.419h1.3c.385,0,.8-.019,1.257-.058s.886-.058,1.3-.058a6.355,6.355,0,0,1,1.387.151,3.438,3.438,0,0,1,1.206.513,2.705,2.705,0,0,1,.853.961,3.112,3.112,0,0,1,.324,1.5,3,3,0,0,1-.332,1.459,2.9,2.9,0,0,1-.888,1,3.836,3.836,0,0,1-1.264.571,5.882,5.882,0,0,1-1.459.181H240.3c-.1,0-.21,0-.325-.007s-.227-.012-.332-.022-.183-.019-.231-.029Zm.983-8.711c-.231,0-.419.005-.563.015a3.024,3.024,0,0,0-.419.058v4.681a.689.689,0,0,0,.21.036c.091.005.188.012.289.022a2.953,2.953,0,0,0,.3.015h.232a3.235,3.235,0,0,0,.953-.137,2.076,2.076,0,0,0,.787-.44,2.184,2.184,0,0,0,.542-.766,2.762,2.762,0,0,0,.2-1.112,2.245,2.245,0,0,0-.672-1.777,2.71,2.71,0,0,0-1.856-.592" transform="translate(-132.002 -105.146)" fill="#fff"/>
    <path id="Path_70602" data-name="Path 70602" d="M257.1,188.914h3.958v.419q-.346.131-.693.224a4.987,4.987,0,0,1-.693.137v8.58H263l.853-2.325h.376q.043.3.079.7t.058.823c.015.284.022.561.022.83s0,.51-.014.722H257.1v-.419a3.73,3.73,0,0,1,.635-.231q.289-.072.549-.116v-8.566a4.994,4.994,0,0,1-.636-.151,4.2,4.2,0,0,1-.549-.21Z" transform="translate(-143.297 -105.292)" fill="#fff"/>
    <path id="Path_70603" data-name="Path 70603" d="M282.682,188.914q-.015.578-.05,1.163t-.108,1.177h-.376l-.592-1.589h-3.149v3.828h2.354l.564-1.069h.361a24.493,24.493,0,0,1,0,2.918h-.361l-.564-1.1h-2.354v4.03h3.323l.708-1.733h.361q.1.608.144,1.228a11,11,0,0,1,.015,1.257h-7.122v-.419a4.8,4.8,0,0,1,1.185-.347v-8.566a5.739,5.739,0,0,1-.592-.151c-.2-.063-.4-.132-.592-.21v-.419Z" transform="translate(-153.738 -105.292)" fill="#fff"/>
    <path id="Path_70604" data-name="Path 70604" d="M300.584,188.914h3.323v.419q-.246.1-.52.2t-.564.166l-2.543,3.915,2.962,4.651a4.57,4.57,0,0,1,1.185.347v.419h-3.843v-.419a3.659,3.659,0,0,1,1.1-.347l-2.282-3.626-2.2,3.64q.3.044.592.109a1.994,1.994,0,0,1,.564.224v.419h-3.338v-.419a2.681,2.681,0,0,1,.542-.216q.267-.072.528-.13l2.831-4.319-2.716-4.247q-.289-.086-.571-.174t-.571-.188v-.419h3.828v.419q-.217.087-.484.174c-.179.058-.383.12-.614.188l2.022,3.265,1.964-3.265a8.413,8.413,0,0,1-1.2-.361Z" transform="translate(-164.431 -105.292)" fill="#fff"/>
    <path id="Path_70605" data-name="Path 70605" d="M252.525,95.576l3.161-3.23V58.258l-3.161-3.23h23.267v5.009l-4.33-1.985H260.154V72.484h9.141l3.23-1.474v5.978l-3.23-1.48h-9.141V92.553h12.3l4.33-1.98v5Z" transform="translate(-140.746 -30.67)" fill="#fff"/>
    <path id="Path_70606" data-name="Path 70606" d="M28.525,95.576l3.161-3.23V58.258l-3.161-3.23H51.792v5.009l-4.33-1.985H36.154V72.484h9.141l3.23-1.474v5.978l-3.23-1.48H36.154V92.553h12.3l4.33-1.98v5Z" transform="translate(-15.899 -30.67)" fill="#fff"/>
    <path id="Path_70607" data-name="Path 70607" d="M125.368,75.731l-8.241-5.975c-2.953-2.129-4.464-4.876-4.464-6.937a5.708,5.708,0,0,1,5.837-5.769,5.9,5.9,0,0,1,1.7.293l2.719,1.22,2.8,1.273,2.744-4.09-8.035-1.511a6.466,6.466,0,0,0-1.923-.206,10.2,10.2,0,0,0-10.3,9.958c0,3.091,1.58,6.593,5.22,9.272l8.31,5.975a6.881,6.881,0,0,1,2.884,5.906c0,3.434-2.129,7.142-6.73,7.142a6.853,6.853,0,0,1-2.816-.549l-5.072-2.32-2.276,4.106,7.76,1.511a13.87,13.87,0,0,0,2.4.275,11.632,11.632,0,0,0,11.263-11.812,8.963,8.963,0,0,0-3.777-7.76" transform="translate(-60.037 -30.113)" fill="#fff"/>
    <path id="Path_70608" data-name="Path 70608" d="M197.618,75.731l-8.241-5.975c-2.953-2.129-4.464-4.876-4.464-6.937a5.708,5.708,0,0,1,5.838-5.769,5.9,5.9,0,0,1,1.7.293l2.718,1.22,2.8,1.273,2.744-4.09-8.035-1.511a6.464,6.464,0,0,0-1.923-.206,10.2,10.2,0,0,0-10.3,9.958c0,3.091,1.58,6.593,5.22,9.272l8.31,5.975a6.881,6.881,0,0,1,2.884,5.906c0,3.434-2.129,7.142-6.73,7.142a6.853,6.853,0,0,1-2.816-.549l-5.072-2.32-2.276,4.106,7.761,1.511a13.861,13.861,0,0,0,2.4.275A11.632,11.632,0,0,0,201.4,83.492a8.964,8.964,0,0,0-3.777-7.76" transform="translate(-100.306 -30.113)" fill="#fff"/>
    <path id="Path_70609" data-name="Path 70609" d="M135.407,10.344h-4.152V9.915q.325-.118.657-.207a6.746,6.746,0,0,1,.717-.148V.767h-2.261l-.783,2.113h-.369q-.044-.3-.074-.672t-.052-.768q-.022-.391-.037-.768T129.038,0h8.586q0,.3-.015.665t-.037.761c-.016.261-.03.517-.045.768s-.037.48-.067.687h-.389L136.294.767h-2.246V9.561q.384.074.717.148a3.627,3.627,0,0,1,.643.207Z" transform="translate(-71.92 0.001)" fill="#fff"/>
    <path id="Path_70610" data-name="Path 70610" d="M160.454,10.344h-3.739V9.915a6.546,6.546,0,0,1,1.212-.355V.8a3.886,3.886,0,0,1-1.212-.37V0h3.739V.427a3.183,3.183,0,0,1-.532.222,5.44,5.44,0,0,1-.576.148V4.654h4.64V.8q-.31-.074-.583-.162a4.418,4.418,0,0,1-.525-.207V0h3.739V.427a2.434,2.434,0,0,1-.584.229c-.212.054-.421.1-.628.14V9.561a6.22,6.22,0,0,1,.65.148,3.7,3.7,0,0,1,.562.207v.428h-3.739V9.915a5.393,5.393,0,0,1,1.108-.355V5.423h-4.64V9.561a5.44,5.44,0,0,1,.576.148,4.243,4.243,0,0,1,.532.207Z" transform="translate(-87.346 0.001)" fill="#fff"/>
    <path id="Path_70611" data-name="Path 70611" d="M194.7,0q-.015.591-.052,1.19t-.111,1.2h-.384L193.548.767h-3.222V4.684h2.409l.576-1.094h.37a25.069,25.069,0,0,1,0,2.986h-.37l-.576-1.123h-2.409V9.575h3.4L194.45,7.8h.369q.1.619.148,1.255a11.105,11.105,0,0,1,.015,1.286H187.7V9.915a4.924,4.924,0,0,1,1.212-.354V.8A5.9,5.9,0,0,1,188.3.642q-.31-.1-.606-.214V0Z" transform="translate(-104.613 0.001)" fill="#fff"/>
    <path id="Path_70612" data-name="Path 70612" d="M0,32.852H149.071V31.068L74.536,32.152,0,30.886Z" transform="translate(0 -17.214)" fill="#fff"/>
    <path id="Path_70613" data-name="Path 70613" d="M149.071,166.01H0v1.783l74.536-1.084,74.536,1.266Z" transform="translate(0 -92.526)" fill="#fff"/>
  </g>
</svg>
