<?xml version="1.0" encoding="UTF-8"?><svg id="Layer_1" xmlns="http://www.w3.org/2000/svg" viewBox="0 0 39.33 81.99"><defs><style>.cls-1{fill:#646363;}.cls-1,.cls-2{stroke-width:0px;}.cls-2{fill:#cba449;}</style></defs><path class="cls-2" d="m31.17,42.28h-3.75l-12.59,21.84c-1.11,1.95-1.97,4.09-1.73,5.28-1.75-2.87.3-5.7,1.11-7.11l11.54-20.01h-3.75l-9.5,16.48c-1.11,1.95-1.97,4.09-1.73,5.28-1.75-2.87.3-5.7,1.11-7.11l8.44-14.64h-3.75l-6.41,11.11c-1.11,1.95-1.97,4.09-1.73,5.28-1.75-2.87.3-5.7,1.11-7.11l5.35-9.28h-3.75l-3.31,5.75c-1.11,1.95-1.97,4.09-1.73,5.28-1.75-2.87.3-5.7,1.11-7.11l2.26-3.91h-4.1C1.56,42.28,0,40.28,0,38.14c0,0-.08-1.41,1.23-3.71L18.04,5.28s2.31-4.01,2.71-5.28c1.06,2.25-.58,5.23-.97,5.9-.11.18-16.45,28.54-16.45,28.54-.83,1.45-1.29,2.48-1.33,3.29-.08,1.67,1.59,1.96,3.09,1.99l15.93-27.63s2.31-4.01,2.71-5.28c1.02,2.17-.63,5.31-.97,5.9-.09.16-12.16,21.1-15.57,27.01h3.75l12.59-21.84s2.31-4.01,2.71-5.28c1.02,2.17-.81,4.9-1.15,5.48-.07.13-7.63,13.24-12.48,21.64h3.75l9.5-16.48s2.31-4.01,2.71-5.28c.96,2.04-.88,5.02-1.15,5.48-.06.1-4.95,8.59-9.38,16.28h3.75l6.41-11.11s2.31-4.01,2.71-5.28c.96,2.04-.88,5.02-1.15,5.48-.04.08-2.94,5.1-6.29,10.91h3.75l3.31-5.75s2.31-4.01,2.71-5.28c.96,2.04-.88,5.02-1.15,5.48l-3.19,5.55h5.08c2.12,0,3.54.62,4.39,1.54h0c.46.6,1.1,2.26-1.08,6.03l-4.09,7.1-12.88,22.33c-1.11,1.95-1.97,4.09-1.73,5.28-1.75-2.87.12-6.12.93-7.53.18-.31.3-.52.38-.66l15.13-26.25c.83-1.45,1.29-2.48,1.33-3.29.01-.27-.02-.51-.1-.72-.37-1.04-1.74-1.24-2.99-1.27l-3.05,5.29-12.88,22.33c-1.11,1.95-1.97,4.09-1.73,5.28-1.75-2.87.12-6.12.93-7.53l14.63-25.38v.02Z"/><path class="cls-1" d="m2.73,39.21c-.53-1.29,1.2-4.11,2.04-5.56l14.77-25.62c.07-.13.16-.29.29-.49.82-1.41,2.68-4.66.93-7.53,1.06,2.25-.58,5.23-.97,5.9-.11.18-16.46,28.54-16.46,28.54-.83,1.45-1.29,2.48-1.33,3.29-.04.73.26,1.19.72,1.48Z"/><path class="cls-1" d="m12.61,39.72h.98l11.54-20.01c.82-1.41,2.87-4.24,1.11-7.11,1.02,2.17-.81,4.9-1.15,5.48l-12.48,21.64h0Z"/><path class="cls-1" d="m18.04,39.72h.98l8.44-14.64c.82-1.41,2.87-4.24,1.11-7.11.96,2.04-.88,5.02-1.15,5.48l-9.38,16.28Z"/><path class="cls-1" d="m23.47,39.72h.98l5.35-9.28c.82-1.41,2.87-4.24,1.11-7.11.96,2.04-.88,5.02-1.15,5.48l-6.29,10.91Z"/><path class="cls-1" d="m28.89,39.72h.98l2.26-3.91c.82-1.41,2.87-4.24,1.11-7.11.96,2.04-.88,5.02-1.15,5.48l-3.19,5.55h0Z"/><path class="cls-1" d="m7.18,39.72h.98l14.63-25.38c.82-1.41,2.68-4.66.93-7.53,1.02,2.17-.63,5.31-.97,5.9-.09.16-12.16,21.1-15.57,27.01Z"/><path class="cls-1" d="m39.33,43.86c0-.94-.3-1.85-.96-2.58.45.59,1.08,2.25-1.09,6.01l-4.09,7.1-12.88,22.33c-1.11,1.95-1.97,4.09-1.73,5.28.4-1.27,2.71-5.28,2.71-5.28l16.81-29.16c1.31-2.29,1.23-3.71,1.23-3.71h0Z"/><path class="cls-1" d="m28.07,42.84h2.77l.32-.56h-3.75l-.32.56-12.27,21.28c-1.11,1.95-1.97,4.09-1.73,5.28.4-1.27,2.71-5.28,2.71-5.28l12.27-21.28Z"/><path class="cls-1" d="m22.65,42.84h2.77l.32-.56h-3.75l-.32.56-9.18,15.91c-1.11,1.95-1.97,4.09-1.73,5.28.4-1.27,2.71-5.28,2.71-5.28l9.18-15.91Z"/><path class="cls-1" d="m17.22,42.84h2.78l.32-.56h-3.75l-.32.56-6.08,10.55c-1.11,1.95-1.97,4.09-1.73,5.28.4-1.27,2.71-5.28,2.71-5.28l6.08-10.55Z"/><path class="cls-1" d="m11.79,42.84h2.78l.32-.56h-3.75l-.32.56-2.99,5.19c-1.11,1.95-1.97,4.09-1.73,5.28.4-1.27,2.71-5.28,2.71-5.28l2.99-5.19Z"/><path class="cls-1" d="m1.32,41.07c.86.73,2.18,1.21,4.04,1.21h4.1l-.32.56h-2.36c-4.08,0-5.46-1.77-5.46-1.77Z"/><path class="cls-1" d="m33.93,42.84c.98.02,1.86.15,2.33.71-.37-1.04-1.74-1.24-2.99-1.27l-3.05,5.29-12.88,22.33c-1.11,1.95-1.97,4.09-1.73,5.28.4-1.27,2.71-5.28,2.71-5.28l15.6-27.07h0,0Z"/></svg>