<svg width="208" height="82" viewBox="0 0 208 82" fill="none" xmlns="http://www.w3.org/2000/svg">
<g clip-path="url(#clip0_369_5691)">
<path d="M51.2147 54.7402C49.9368 54.7402 48.7623 54.5391 47.0645 54.0881L47.4722 52.3024C48.7684 52.6072 49.9429 52.79 50.8922 52.79C52.231 52.79 53.7889 52.2232 53.7889 50.8215C53.7889 49.9317 53.4237 49.5234 52.0058 49.0785C49.5169 48.3045 47.2044 47.8414 47.2044 44.8185C47.2044 42.3625 48.9692 40.8633 51.7807 40.8633C52.8943 40.8633 54.0688 41.0461 55.8092 41.4727L55.7666 41.6616C55.578 42.5088 54.7747 43.0816 53.9106 42.9597C53.3081 42.8744 52.6691 42.8074 52.2006 42.8074C51.0078 42.8074 49.7725 43.2949 49.7725 44.6296C49.7725 45.6413 50.241 45.9887 52.0423 46.4336C54.799 47.1222 56.3569 47.8109 56.3569 50.4071C56.3569 53.0033 54.4339 54.728 51.2147 54.728V54.7402Z" fill="white"/>
<path d="M60.9514 54.5566V42.7031C60.9514 41.7767 61.6999 41.0332 62.6188 41.0332H63.5194V54.5627H60.9453L60.9514 54.5566Z" fill="white"/>
<path d="M75.9772 54.5569L70.8533 43.587L70.9567 54.5569H68.8086V41.0273H72.2104L77.3343 52.0826L77.2491 42.7155C77.243 41.783 77.9915 41.0273 78.9165 41.0273H79.379V54.5569H75.9772Z" fill="white"/>
<path d="M106.842 54.5569V48.3894H101.535V54.5569H98.9609V41.0273H101.535V46.561H106.842V42.6972C106.842 41.7709 107.59 41.0273 108.509 41.0273H109.41V54.5569H106.842Z" fill="white"/>
<path d="M122.433 53.4233L121.721 51.333H116.439L115.368 54.5569H113.037L117.778 41.0273H120.711L125.591 54.5569H124.015C123.303 54.5569 122.664 54.0998 122.433 53.4233ZM119.031 43.0568L116.968 49.6082H121.161L119.037 43.0568H119.031Z" fill="white"/>
<path d="M152.859 54.7402C151.581 54.7402 150.407 54.5391 148.709 54.0881L149.111 52.3024C150.407 52.6072 151.581 52.79 152.531 52.79C153.869 52.79 155.427 52.2232 155.427 50.8215C155.427 49.9317 155.062 49.5234 153.644 49.0785C151.155 48.3045 148.843 47.8414 148.843 44.8185C148.843 42.3625 150.608 40.8633 153.419 40.8633C154.533 40.8633 155.707 41.0461 157.448 41.4727L157.405 41.6616C157.216 42.5088 156.413 43.0816 155.549 42.9597C154.947 42.8744 154.308 42.8074 153.839 42.8074C152.646 42.8074 151.411 43.2949 151.411 44.6296C151.411 45.6413 151.879 45.9887 153.681 46.4336C156.437 47.1222 157.995 47.8109 157.995 50.4071C157.995 53.0033 156.072 54.728 152.853 54.728L152.859 54.7402Z" fill="white"/>
<path d="M181.255 53.4175L180.549 51.3271H175.261L174.19 54.551H171.859L176.6 41.0215H179.539L184.42 54.551H182.844C182.125 54.551 181.493 54.094 181.261 53.4175H181.255ZM177.854 43.0509L175.791 49.6024H179.983L177.86 43.0509H177.854Z" fill="white"/>
<path d="M94.3544 47.6277H89.0114C89.0114 47.6277 89.2609 49.4804 91.0196 49.4804H91.9081V52.485C91.403 52.6495 90.5693 52.808 89.6382 52.808C88.5246 52.808 87.7943 52.4667 87.271 51.711C86.6625 50.8821 86.3582 49.5231 86.3582 47.7984C86.3582 44.4343 87.4901 42.8071 89.8999 42.8071C90.7884 42.8071 91.8655 42.929 93.5633 43.2946L93.9467 41.5516C92.0663 41.0275 90.6667 40.8203 89.5713 40.8203C85.847 40.8203 83.6562 43.3129 83.6562 47.8167C83.6562 52.3204 85.701 54.7947 89.2244 54.7947C90.6423 54.7947 92.0907 54.4717 94.3362 53.6002V47.6277H94.3544Z" fill="white"/>
<path d="M142.704 48.4442C145.272 48.4442 145.193 46.6159 145.193 46.6159H139.211V42.8496H142.716C145.284 42.8496 145.205 41.0273 145.205 41.0273H136.637V54.5569C136.637 54.5569 141.998 54.5569 142.704 54.5569C145.272 54.5569 145.193 52.7347 145.193 52.7347H139.211V48.4503H142.704V48.4442Z" fill="white"/>
<path d="M205.499 48.4442C208.067 48.4442 207.982 46.6159 207.982 46.6159H202V42.8496H205.511C208.079 42.8496 208 41.0273 208 41.0273H199.432V54.5569C199.432 54.5569 204.793 54.5569 205.499 54.5569C208.067 54.5569 207.982 52.7347 207.982 52.7347H202V48.4503H205.493L205.499 48.4442Z" fill="white"/>
<path d="M171.5 41.0273H160.242V42.8496H164.313V54.5508H166.887V42.8496H169.017C171.585 42.8496 171.506 41.0273 171.506 41.0273H171.5Z" fill="white"/>
<path d="M196.418 41.0273H185.16V42.8496H189.231V54.5508H191.805V42.8496H193.935C196.503 42.8496 196.424 41.0273 196.424 41.0273H196.418Z" fill="white"/>
<path d="M31.1685 42.2768H27.4138L14.8231 64.1191C13.7094 66.0693 12.8514 68.2084 13.0948 69.4029C11.3422 66.5324 13.393 63.6985 14.2084 62.2907L25.7464 42.2829H21.9917L12.4924 58.7621C11.3787 60.7123 10.5207 62.8514 10.7641 64.0459C9.01149 61.1755 11.0623 58.3416 11.8777 56.9338L20.3182 42.289H16.5635L10.1556 53.399C9.04192 55.3492 8.18387 57.4884 8.42729 58.6829C6.67469 55.8124 8.72548 52.9785 9.54092 51.5707L14.89 42.2951H11.1353L7.82483 48.0421C6.7112 49.9923 5.85315 52.1314 6.09657 53.3259C4.34397 50.4554 6.39476 47.6216 7.2102 46.2137L9.4679 42.3012H5.3724C1.55684 42.2768 -0.00103236 40.2839 -0.00103236 38.1448C-0.00103236 38.1448 -0.0801431 36.7309 1.22822 34.4394L18.0423 5.28383C18.0423 5.28383 20.3547 1.27373 20.7503 0C21.8092 2.25492 20.1661 5.22899 19.7827 5.89937C19.6732 6.0822 3.3277 34.4394 3.3277 34.4394C2.50008 35.8899 2.03759 36.9198 2.00107 37.7304C1.92196 39.4002 3.59546 39.6867 5.08639 39.7232L21.012 12.0974C21.012 12.0974 23.3244 8.08725 23.72 6.81353C24.7362 8.98313 23.0932 12.1278 22.7524 12.7129C22.6611 12.8713 10.5876 33.8178 7.17978 39.7232H10.9345L23.5252 17.8809C23.5252 17.8809 25.8377 13.8708 26.2333 12.5971C27.2495 14.7667 25.4239 17.497 25.0831 18.076C25.0101 18.2039 17.452 31.313 12.608 39.7171H16.3627L25.862 23.2379C25.862 23.2379 28.1745 19.2278 28.5701 17.9541C29.5255 19.9957 27.6877 22.9758 27.4199 23.4329C27.3591 23.5365 22.4725 32.0199 18.0362 39.711H21.7909L28.1989 28.601C28.1989 28.601 30.5113 24.5909 30.9069 23.3171C31.8623 25.3587 30.0245 28.3389 29.7567 28.796C29.7141 28.8752 26.8175 33.897 23.4644 39.7049H27.2191L30.5296 33.9579C30.5296 33.9579 32.842 29.9478 33.2376 28.6741C34.193 30.7157 32.3552 33.6959 32.0874 34.153L28.8926 39.6988H33.9678C36.0917 39.6988 37.5096 40.3205 38.3554 41.2407V41.2529C38.8118 41.8441 39.4508 43.5017 37.2783 47.2681L33.1889 54.368L20.3121 76.6979C19.1985 78.6481 18.3405 80.7872 18.5839 81.9817C16.8313 79.1113 18.6995 75.8629 19.5149 74.4491C19.6914 74.1382 19.8131 73.931 19.8922 73.7909L35.0267 47.5423C35.8543 46.0919 36.3168 45.0619 36.3533 44.2514C36.3655 43.9771 36.329 43.7394 36.256 43.5322C35.8848 42.4901 34.5155 42.289 33.268 42.2585L30.2192 47.5484L17.3424 69.8783C16.2288 71.8285 15.3708 73.9676 15.6142 75.1621C13.8616 72.2916 15.7298 69.0433 16.5453 67.6294L31.1746 42.2524L31.1685 42.2768Z" fill="#CBA449"/>
<path d="M2.72523 39.2113C2.1958 37.9254 3.93014 35.0976 4.76385 33.6471L19.5332 8.02631C19.6062 7.89833 19.6975 7.73987 19.8192 7.53266C20.6347 6.11877 22.5029 2.87655 20.7503 0C21.8091 2.25492 20.1661 5.22899 19.7827 5.89937C19.6732 6.0822 3.32769 34.4394 3.32769 34.4394C2.50007 35.8899 2.03758 36.9198 2.00106 37.7304C1.96455 38.4556 2.26274 38.9188 2.72523 39.2113Z" fill="#646363"/>
<path d="M12.6094 39.7235H13.5891L25.1271 19.7157C25.9426 18.3018 27.9933 15.474 26.2407 12.6035C27.257 14.7731 25.4314 17.5034 25.0906 18.0824L12.6155 39.7235H12.6094Z" fill="#646363"/>
<path d="M18.0371 39.7238H19.0169L27.4574 25.0789C28.2728 23.6651 30.3236 20.8373 28.571 17.9668C29.5264 20.0084 27.6886 22.9886 27.4208 23.4457L18.0371 39.7238Z" fill="#646363"/>
<path d="M23.4648 39.7237H24.4446L29.7937 30.4481C30.6091 29.0342 32.6599 26.2064 30.9073 23.3359C31.8627 25.3776 30.0249 28.3577 29.7572 28.8148L23.4648 39.7237Z" fill="#646363"/>
<path d="M28.8867 39.724H29.8665L32.1242 35.8114C32.9396 34.3975 34.9904 31.5697 33.2378 28.6992C34.1932 30.7408 32.3554 33.721 32.0877 34.1781L28.8928 39.724H28.8867Z" fill="#646363"/>
<path d="M7.17969 39.7242H8.15944L22.7888 14.3471C23.6043 12.9332 25.4725 9.691 23.7199 6.81445C24.7362 8.98406 23.0931 12.1288 22.7523 12.7138C22.661 12.8723 10.5875 33.8187 7.17969 39.7242Z" fill="#646363"/>
<path d="M39.3239 43.8555C39.3239 42.917 39.0196 42.0028 38.3624 41.2715C38.8127 41.8626 39.4395 43.5203 37.2731 47.2806L33.1837 54.3805L20.3069 76.7104C19.1933 78.6606 18.3353 80.7997 18.5787 81.9942C18.9742 80.7266 21.2867 76.7104 21.2867 76.7104L38.0946 47.5548C39.403 45.2694 39.3239 43.8494 39.3239 43.8494V43.8555Z" fill="#646363"/>
<path d="M28.0647 42.8439H30.8396L31.1622 42.2832H27.4075L27.0849 42.8439L14.8167 64.1255C13.7031 66.0757 12.845 68.2148 13.0884 69.4093C13.484 68.1417 15.7965 64.1255 15.7965 64.1255L28.0647 42.8439Z" fill="#646363"/>
<path d="M22.6432 42.8439H25.4182L25.7407 42.2832H21.986L21.6635 42.8439L12.4866 58.7563C11.373 60.7065 10.5149 62.8457 10.7584 64.0402C11.1539 62.7725 13.4664 58.7563 13.4664 58.7563L22.6432 42.8439Z" fill="#646363"/>
<path d="M17.2156 42.8439H19.9906L20.3131 42.2832H16.5584L16.2359 42.8439L10.1565 53.3933C9.04291 55.3435 8.18487 57.4826 8.42828 58.6771C8.82384 57.4095 11.1363 53.3933 11.1363 53.3933L17.2156 42.8439Z" fill="#646363"/>
<path d="M11.7883 42.8439H14.5633L14.8858 42.2832H11.1311L10.8086 42.8439L7.82061 48.0302C6.70698 49.9804 5.84893 52.1195 6.09235 53.314C6.4879 52.0464 8.80036 48.0302 8.80036 48.0302L11.7883 42.8439Z" fill="#646363"/>
<path d="M1.32031 41.0703C2.18444 41.8016 3.50498 42.277 5.36104 42.277H9.45653L9.13401 42.8377H6.77894C2.69562 42.8377 1.32031 41.0703 1.32031 41.0703Z" fill="#646363"/>
<path d="M33.9268 42.8439C34.9066 42.8683 35.789 42.9962 36.2576 43.5569C35.8864 42.5148 34.5171 42.3137 33.2696 42.2832L30.2208 47.5731L17.344 69.903C16.2304 71.8532 15.3724 73.9923 15.6158 75.1868C16.0113 73.9192 18.3238 69.903 18.3238 69.903L33.9268 42.8378H33.9329L33.9268 42.8439Z" fill="#646363"/>
</g>
<defs>
<clipPath id="clip0_369_5691">
<rect width="208" height="82" fill="white"/>
</clipPath>
</defs>
</svg>
