<svg width="24" height="25" viewBox="0 0 24 25" fill="none" xmlns="http://www.w3.org/2000/svg">
<path d="M21.2297 10.8596C21.2297 6.7294 17.0891 3.36914 11.9994 3.36914C6.90967 3.36914 2.76904 6.7294 2.76904 10.8596C2.76904 14.5625 6.05317 17.6632 10.4888 18.2498C10.789 18.3147 11.1982 18.4479 11.3021 18.7049C11.3955 18.9385 11.3626 19.3036 11.3323 19.5397C11.3323 19.5397 11.2242 20.1912 11.2008 20.3296C11.1602 20.5632 11.0157 21.2424 12.0002 20.8271C12.9857 20.4118 17.3158 17.697 19.252 15.4683C20.5895 14.001 21.2306 12.513 21.2306 10.8596H21.2297Z" fill="#1A2F4D"/>
<path d="M18.1595 13.2464H15.5666C15.4689 13.2464 15.3901 13.1676 15.3901 13.0699V13.0673V9.04605V9.04173C15.3901 8.94396 15.4689 8.86523 15.5666 8.86523H18.1595C18.2564 8.86523 18.336 8.94483 18.336 9.04173V9.69665C18.336 9.79441 18.2573 9.87314 18.1595 9.87314H16.3972V10.5532H18.1595C18.2564 10.5532 18.336 10.6327 18.336 10.7296V11.3846C18.336 11.4823 18.2573 11.5611 18.1595 11.5611H16.3972V12.2411H18.1595C18.2564 12.2411 18.336 12.3207 18.336 12.4176V13.0725C18.336 13.1702 18.2573 13.249 18.1595 13.249V13.2464Z" fill="#E9E2DC"/>
<path d="M8.5671 13.2472C8.664 13.2472 8.74359 13.1685 8.74359 13.0708V12.4158C8.74359 12.3189 8.664 12.2393 8.5671 12.2393H6.80478V9.04173C6.80478 8.94483 6.72519 8.86523 6.62829 8.86523H5.97337C5.8756 8.86523 5.79688 8.94396 5.79688 9.04173V13.0673V13.0708C5.79688 13.1685 5.8756 13.2472 5.97337 13.2472H8.56624H8.5671Z" fill="#E9E2DC"/>
<path d="M10.1284 8.86523H9.47434C9.37687 8.86523 9.29785 8.94425 9.29785 9.04173V13.0699C9.29785 13.1674 9.37687 13.2464 9.47434 13.2464H10.1284C10.2259 13.2464 10.3049 13.1674 10.3049 13.0699V9.04173C10.3049 8.94425 10.2259 8.86523 10.1284 8.86523Z" fill="#E9E2DC"/>
<path d="M14.5832 8.86523H13.9283C13.8305 8.86523 13.7518 8.94396 13.7518 9.04173V11.4339L11.909 8.94483C11.9047 8.93877 11.8995 8.93272 11.8952 8.92666C11.8952 8.92666 11.8952 8.92666 11.8943 8.9258C11.8908 8.92233 11.8874 8.91801 11.8839 8.91455C11.883 8.91368 11.8813 8.91282 11.8805 8.91195C11.877 8.90936 11.8744 8.90676 11.8709 8.90417C11.8692 8.9033 11.8675 8.90157 11.8657 8.90071C11.8631 8.89811 11.8597 8.89638 11.8562 8.89465C11.8545 8.89378 11.8528 8.89205 11.851 8.89119C11.8476 8.88946 11.845 8.88773 11.8415 8.886C11.8398 8.88513 11.8381 8.88427 11.8363 8.8834C11.8329 8.88167 11.8294 8.87994 11.8259 8.87908C11.8242 8.87908 11.8225 8.87735 11.8199 8.87735C11.8164 8.87648 11.813 8.87475 11.8095 8.87389C11.8078 8.87389 11.8052 8.87302 11.8035 8.87216C11.8 8.87216 11.7965 8.87043 11.7931 8.86956C11.7905 8.86956 11.7879 8.86956 11.7853 8.8687C11.7818 8.8687 11.7792 8.86783 11.7758 8.86783C11.7723 8.86783 11.7697 8.86783 11.7662 8.86783C11.7645 8.86783 11.7619 8.86783 11.7602 8.86783H11.1096C11.0127 8.86783 10.9331 8.94656 10.9331 9.04432V13.0725C10.9331 13.1694 11.0118 13.249 11.1096 13.249H11.7645C11.8623 13.249 11.941 13.1702 11.941 13.0725V10.6803L13.7864 13.1728C13.7994 13.191 13.8149 13.2057 13.8322 13.217C13.8322 13.217 13.834 13.2178 13.834 13.2187C13.8374 13.2213 13.8409 13.223 13.8452 13.2256C13.8469 13.2265 13.8487 13.2273 13.8504 13.2282C13.853 13.2299 13.8565 13.2308 13.8591 13.2325C13.8617 13.2343 13.8651 13.2351 13.8677 13.236C13.8694 13.236 13.8712 13.2377 13.8729 13.2377C13.8772 13.2395 13.8807 13.2403 13.885 13.2412C13.885 13.2412 13.8867 13.2412 13.8876 13.2412C13.9023 13.2446 13.9179 13.2472 13.9335 13.2472H14.5841C14.681 13.2472 14.7605 13.1685 14.7605 13.0708V9.04259C14.7605 8.94569 14.6818 8.8661 14.5841 8.8661L14.5832 8.86523Z" fill="#E9E2DC"/>
</svg>
