<svg width="24" height="25" viewBox="0 0 24 25" fill="none" xmlns="http://www.w3.org/2000/svg">
<path d="M7.85848 2.67004C6.79447 2.72024 6.06786 2.89004 5.43265 3.13964C4.77524 3.39584 4.21804 3.73964 3.66363 4.29604C3.10923 4.85244 2.76782 5.41005 2.51342 6.06845C2.26722 6.70505 2.10042 7.43225 2.05342 8.49686C2.00642 9.56146 1.99602 9.90366 2.00122 12.6193C2.00642 15.3349 2.01842 15.6753 2.07002 16.7421C2.12082 17.8059 2.29002 18.5323 2.53962 19.1677C2.79622 19.8251 3.13963 20.3821 3.69623 20.9367C4.25284 21.4913 4.81004 21.8319 5.47005 22.0867C6.10606 22.3325 6.83347 22.5001 7.89788 22.5467C8.96229 22.5933 9.30489 22.6041 12.0197 22.5989C14.7345 22.5937 15.0763 22.5817 16.143 22.5311C17.2096 22.4805 17.9322 22.3101 18.5678 22.0617C19.2252 21.8045 19.7826 21.4617 20.3368 20.9049C20.891 20.3481 21.2322 19.7901 21.4864 19.1313C21.7328 18.4953 21.9002 17.7679 21.9464 16.7043C21.993 15.6369 22.004 15.2961 21.9988 12.5809C21.9936 9.86566 21.9814 9.52526 21.9308 8.45886C21.8802 7.39245 21.7108 6.66825 21.4614 6.03245C21.2044 5.37505 20.8614 4.81844 20.305 4.26344C19.7486 3.70844 19.1902 3.36744 18.5316 3.11384C17.8952 2.86764 17.1682 2.69984 16.1038 2.65384C15.0393 2.60784 14.6967 2.59604 11.9809 2.60124C9.26509 2.60644 8.92509 2.61804 7.85848 2.67004ZM7.97528 20.7477C7.00027 20.7053 6.47086 20.5433 6.11806 20.4077C5.65085 20.2277 5.31805 20.0101 4.96645 19.6619C4.61484 19.3137 4.39884 18.9797 4.21644 18.5135C4.07944 18.1607 3.91444 17.6319 3.86884 16.6569C3.81923 15.6031 3.80883 15.2867 3.80303 12.6169C3.79723 9.94706 3.80743 9.63106 3.85363 8.57686C3.89524 7.60265 4.05824 7.07265 4.19364 6.72005C4.37364 6.25225 4.59044 5.92005 4.93945 5.56865C5.28845 5.21724 5.62145 5.00084 6.08806 4.81844C6.44046 4.68084 6.96927 4.51724 7.94388 4.47084C8.99849 4.42084 9.31449 4.41084 11.9839 4.40504C14.6533 4.39924 14.9701 4.40924 16.0252 4.45564C16.9994 4.49804 17.5296 4.65944 17.8818 4.79564C18.3492 4.97564 18.6818 5.19184 19.0332 5.54145C19.3846 5.89105 19.6012 6.22285 19.7836 6.69045C19.9214 7.04185 20.085 7.57045 20.131 8.54566C20.1812 9.60026 20.1926 9.91646 20.1974 12.5857C20.2022 15.2549 20.1928 15.5719 20.1466 16.6257C20.104 17.6007 19.9424 18.1303 19.8066 18.4835C19.6266 18.9505 19.4096 19.2835 19.0604 19.6347C18.7112 19.9859 18.3786 20.2023 17.9118 20.3847C17.5598 20.5221 17.0304 20.6861 16.0566 20.7325C15.0019 20.7821 14.6859 20.7925 12.0155 20.7983C9.34509 20.8041 9.03009 20.7933 7.97548 20.7477M16.1276 7.25545C16.128 7.49281 16.1987 7.72471 16.3309 7.92184C16.4631 8.11897 16.6508 8.27246 16.8703 8.36291C17.0897 8.45336 17.3311 8.4767 17.5638 8.42997C17.7965 8.38325 18.0101 8.26857 18.1777 8.10042C18.3452 7.93228 18.4591 7.71823 18.505 7.48535C18.5508 7.25247 18.5266 7.01122 18.4354 6.7921C18.3441 6.57299 18.1899 6.38586 17.9923 6.25438C17.7947 6.1229 17.5625 6.05297 17.3252 6.05345C17.007 6.05408 16.7021 6.18107 16.4775 6.40648C16.2529 6.63188 16.127 6.93726 16.1276 7.25545ZM6.86547 12.6101C6.87107 15.4461 9.17429 17.7399 12.0097 17.7345C14.8451 17.7291 17.1406 15.4261 17.1352 12.5901C17.1298 9.75406 14.8259 7.45965 11.9901 7.46525C9.15429 7.47085 6.86007 9.77446 6.86547 12.6101ZM8.66668 12.6065C8.66538 11.9472 8.85961 11.3023 9.2248 10.7534C9.59 10.2045 10.1098 9.77624 10.7184 9.52274C11.327 9.26923 11.9971 9.20189 12.644 9.32924C13.2908 9.45658 13.8854 9.77287 14.3525 10.2381C14.8196 10.7034 15.1383 11.2967 15.2682 11.9431C15.3981 12.5894 15.3334 13.2598 15.0823 13.8694C14.8312 14.479 14.405 15.0005 13.8576 15.3678C13.3101 15.7352 12.666 15.932 12.0067 15.9333C11.5689 15.9342 11.1353 15.8489 10.7305 15.6822C10.3257 15.5155 9.95773 15.2707 9.64757 14.9617C9.33741 14.6528 9.09115 14.2858 8.92284 13.8817C8.75454 13.4776 8.6675 13.0442 8.66668 12.6065Z" fill="#1A2F4D"/>
</svg>
