<svg width="24" height="25" viewBox="0 0 24 25" fill="none" xmlns="http://www.w3.org/2000/svg">
<path d="M21.5818 7.7859C21.3523 6.92558 20.6739 6.24816 19.8136 6.01784C18.2545 5.6001 12 5.6001 12 5.6001C12 5.6001 5.74545 5.6001 4.18636 6.01784C3.32614 6.24816 2.64773 6.92558 2.41818 7.7859C2 9.34623 2 12.6001 2 12.6001C2 12.6001 2 15.854 2.41818 17.4143C2.64773 18.2746 3.32614 18.952 4.18636 19.1824C5.74659 19.6001 12 19.6001 12 19.6001C12 19.6001 18.2545 19.6001 19.8136 19.1824C20.6739 18.952 21.3523 18.2746 21.5818 17.4143C22 15.8551 22 12.6001 22 12.6001C22 12.6001 22 9.34623 21.5818 7.7859ZM9.95455 15.5548V9.64542L15.1818 12.6001L9.95455 15.5548Z" fill="#1A2F4D"/>
</svg>
