<?xml version="1.0" encoding="UTF-8"?>
<svg id="Layer_2" data-name="Layer 2" xmlns="http://www.w3.org/2000/svg" viewBox="0 0 99.09 93.92">
  <defs>
    <style>
      .cls-1 {
        fill: #231f20;
      }
    </style>
  </defs>
  <path class="cls-1" d="M98.37,51.56c-.57-2.09-2.42-3.35-4.5-3.52v-23.6c0-2.87.11-5.76,0-8.62-.31-7.3-6.89-13.01-14.18-12.1-3.98.49-7.59,2.88-9.53,6.4-1.33,2.41-1.55,4.94-1.58,7.57-2.8.4-5.45,1.77-7.28,3.97-1.8,2.16-2.77,4.78-2.81,7.59,0,.38.14.73.38,1.01.26.35.67.6,1.24.6,0,0,0,0,0,0h20.16c.13,0,.25-.01.37-.04.28-.06.5-.18.68-.35.34-.26.58-.66.57-1.23-.07-4.89-3.07-9.23-7.65-10.97-.79-.3-1.61-.5-2.44-.61,0-1.76.06-3.52.78-5.18,1.3-2.96,4.13-5.13,7.33-5.58,5.79-.81,10.71,3.85,10.75,9.55.05,7.78,0,15.57,0,23.35v8.19c-.22,0-.45,0-.67,0H18.02c-4.16,0-8.35-.14-12.51,0-1.63.05-3.15.67-4.11,2.05-1.77,2.54-.68,6.22,2.26,7.3.48.18.99.26,1.52.3-.03,3.12-.08,6.26.5,9.32.96,5.07,3.54,9.75,7.16,13.39-2.05,2.05-4.1,4.1-6.15,6.15-.35.35-.69.69-1.04,1.04-.6.6-.64,1.69,0,2.28.64.59,1.64.64,2.28,0,2.43-2.43,4.87-4.87,7.3-7.3h0c4.62,3.61,10.28,5.51,16.14,5.56,1.84.02,3.67,0,5.51,0h22.69c6.93,0,13.7.38,20.1-2.9,1.46-.75,2.84-1.65,4.13-2.66,2.09,2.09,4.17,4.17,6.26,6.26.35.35.69.69,1.04,1.04.6.6,1.69.64,2.28,0,.59-.64.64-1.64,0-2.28l-7.17-7.17c3.03-3.05,5.32-6.83,6.56-10.97,1.15-3.84,1.12-7.8,1.09-11.76.08,0,.16-.01.24-.03,2.9-.41,5.08-3.04,4.25-6.06ZM78.46,27.63h-16.58c.79-3.87,4.18-6.86,8.29-6.85,4.11,0,7.5,2.98,8.29,6.85ZM5.53,51.24c.41-.03.84,0,1.25,0h83.47c1.11,0,2.29-.11,3.39,0,2.02.2,2.29,3.05.08,3.2H6.8c-.11,0-.22.01-.33.04-.83.03-1.76,0-2.27-.5-1.18-1.18-.03-2.62,1.32-2.73ZM90.27,66.12c-.96,5.05-3.62,9.72-7.48,13.09,0,0,0,0,0,0,0,0,0,0,0,0-.6.52-1.22,1.02-1.88,1.47-3.99,2.78-8.63,4.16-13.48,4.17-2,0-4,0-6,0h-21.41c-5.97,0-12.25.57-17.86-1.91-6.17-2.73-10.97-8.15-12.84-14.64-1-3.48-.94-7.07-.91-10.65h82.25c.04,2.82.13,5.7-.39,8.45Z"/>
</svg>