<?xml version="1.0" encoding="UTF-8"?>
<svg id="Layer_1" data-name="Layer 1" xmlns="http://www.w3.org/2000/svg" viewBox="0 0 100 100">
  <defs>
    <style>
      .cls-1 {
        fill: #231f20;
      }
    </style>
  </defs>
  <path class="cls-1" d="M99,51.07c0-6.79-4.67-11.91-10.85-11.91h-25.07v-2.89c0-4.17-3.4-5.68-5.68-5.68h-14.79c-1.63,0-3.01.53-3.99,1.53-1.61,1.64-1.61,3.93-1.6,4.15v2.89h-18.35v-15.53c.01-.29.27-2.81,4.92-2.81h54.93c.64,0,3.84.23,3.84,3.83v11.62c0,.8.65,1.46,1.46,1.46s1.46-.65,1.46-1.46v-11.62c0-4.94-4.03-6.74-6.74-6.74H23.59c-6.15,0-7.82,3.71-7.83,5.68v15.57h-.78c-5.95,0-10.06,1.81-12.2,5.38-1.77,2.95-1.77,6.35-1.77,8.62v6.27c0,.8.65,1.46,1.46,1.46s1.46-.65,1.46-1.46v-6.29c0-2.04,0-4.84,1.36-7.09,1.61-2.67,4.78-3.97,9.71-3.97h73.17c4.6,0,7.94,3.78,7.94,9v13.32H2.46c-.8,0-1.46.65-1.46,1.46v14.79c0,.8.65,1.46,1.46,1.46s1.46-.65,1.46-1.46v-13.34h92.18v13.34c0,.8.65,1.46,1.46,1.46s1.46-.65,1.46-1.46v-14.79s0-.04,0-.06c0-.02,0-.04,0-.06v-14.66ZM39.92,36.25s0-1.32.78-2.1c.43-.44,1.05-.65,1.9-.65h14.78c.65.01,2.78.24,2.78,2.77v2.89h-20.24v-2.91Z"/>
</svg>