<?xml version="1.0" encoding="UTF-8"?>
<svg id="Layer_3" data-name="Layer 3" xmlns="http://www.w3.org/2000/svg" viewBox="0 0 100 100">
  <defs>
    <style>
      .cls-1 {
        fill: #231f20;
      }
    </style>
  </defs>
  <path class="cls-1" d="M97.21,49.4l-.24-.81c-.34-1.92-1.43-3.64-3.04-4.76-1.19-.82-2.57-1.27-4.01-1.3l-16.85-1.45v-.05h-.6l-1.33-.11-8.46-8.46c-1.56-1.56-3.65-2.43-5.86-2.43h-27.12l-.91.79-11.64,10.18-.35.03h-.91v.07l-6.46.52-.57.05-.26.12-.45.06-.93.12c-2.04.26-3.65,1.86-3.91,3.9v.03s0,.03,0,.03l-.61,5.46c-1.34.79-2.23,2.26-2.23,3.89v.98c0,3.89,2.41,5.84,4.51,7.1l.51.3c1.44.87,3.09,1.32,4.78,1.32h2.81c1.69,2.99,4.89,5.01,8.56,5.01s6.87-2.02,8.56-5.01h40.14c1.69,2.99,4.89,5.01,8.56,5.01s7.02-2.12,8.68-5.22l.88.08,1.06.11.17.02h.17c2.52,0,4.97-1.05,6.71-2.87,1.53-1.6,3.02-3.44,3.02-6.67v-1.85c0-1.73-.89-3.29-2.33-4.16ZM60.4,34.72l6.31,6.31h-17.78l-.9-7.79h8.78c1.35,0,2.64.53,3.59,1.49ZM45.7,41.03h-13.34l3.69-7.79h8.75l.9,7.79ZM30.89,33.23h1.6l-3.69,7.79h-6.82l8.91-7.79ZM21.61,66.77c-3.2,0-5.86-2.27-6.48-5.28,0-.25.03-.98.05-1.33.02-.41.03-.76.03-.92,0-2.8,3.19-5.55,6.45-5.55s6.45,3.08,6.45,6c0,.13.01.46.03.84,0,.16.02.37.03.58-.46,3.2-3.21,5.67-6.54,5.67ZM78.87,66.77c-3.66,0-6.62-2.96-6.62-6.62,0-1.05.25-2.04.69-2.92,1.24-1.99,3.72-3.66,5.99-3.66,2.05,0,4.23,1.31,5.52,3.01.66,1.03,1.05,2.25,1.05,3.57,0,3.66-2.96,6.62-6.62,6.62ZM96.33,55.42c0,1.98-.76,3.02-2.13,4.46-1.14,1.2-2.73,1.88-4.38,1.88l-1.06-.11c.03-.28.04-1.78.04-2.08,0-1.7-.65-3.35-1.7-4.78-1.76-2.69-4.79-4.47-8.23-4.47-3.81,0-7.12,2.19-8.75,5.37-.74,1.24-1.19,2.6-1.19,3.99,0,.29.02,1.79.04,2.08H31.38c0-.08,0-.27,0-.49.04-.37.07-.74.07-1.12,0-5.42-4.41-9.83-9.83-9.83s-9.83,4.41-9.83,9.83c0,.55.06,1.08.14,1.61h-1.68c-1.1,0-2.18-.3-3.13-.87l-.5-.3c-1.83-1.1-2.95-2.21-2.95-4.35v-.98c0-.62.44-1.15,1.04-1.27.55-.11.96-.56,1.03-1.11l.73-6.61c.08-.59.54-1.05,1.13-1.12l.93-.12h0l.76-.1c.13-.02.26-.06.38-.11l7.25-.59h55.4l17.44,1.5c.83,0,1.65.25,2.34.73.95.66,1.58,1.69,1.73,2.83l.41,1.38c.08.6.48,1.11,1.04,1.33.64.25,1.05.87,1.05,1.55v1.85Z"/>
</svg>