<?xml version="1.0" encoding="UTF-8"?>
<svg id="Layer_5" data-name="Layer 5" xmlns="http://www.w3.org/2000/svg" viewBox="0 0 100 100">
  <defs>
    <style>
      .cls-1 {
        fill: #231f20;
      }
    </style>
  </defs>
  <path class="cls-1" d="M86.36,3.37c2.67.69,4.82,2.54,5.27,5.37v75.97c-.46,3.28-3.12,5.33-6.34,5.57-.07,2.6.57,5.21-2.39,6.35h-4.73c-.88-.28-2.36-1.68-2.36-2.64v-3.73H24.18v3.73c0,.96-1.48,2.36-2.36,2.64h-4.73c-2.96-1.14-2.32-3.75-2.39-6.35-3.22-.25-5.88-2.29-6.35-5.57V8.74c.46-2.83,2.61-4.68,5.28-5.37h72.72ZM88.72,25.96V9.11c0-.74-1.3-2.26-2.08-2.47-24.34-.32-48.8-.22-73.15-.05-.84.18-2.21,1.74-2.21,2.52v16.85h77.45ZM11.55,28.87l-.27.27v55.19c0,1.21,1.88,2.96,3.17,2.83l72.01-.18c.93-.21,2.26-1.75,2.26-2.65V29.14l-.27-.27H11.55ZM21.09,90.26h-3.27v3.28h3.27v-3.28ZM82.18,90.26h-3.27v3.28h3.27v-3.28Z"/>
  <path class="cls-1" d="M21.77,35.65l55.96-.05c2.19.27,4.16,1.97,4.27,4.28l-.18,37.36c-.76,2.31-2.69,3.19-5,3.37H23.18c-2.63-.2-4.68-1.34-5.17-4.11v-36.62c.1-2.18,1.78-3.67,3.77-4.23ZM78.49,77.08c.21-.19.34-.62.48-.89l.13-35.59c0-1.04-.62-1.94-1.73-1.91l-55.5.15c-.68.35-.96,1.02-.96,1.77l.13,35.59c.31.94.81,1.23,1.78,1.32h54.38c.4,0,1.02-.17,1.3-.43Z"/>
  <path class="cls-1" d="M49.94,9.81c1.96-.02,4.1,1.08,5.23,2.67.36.51.68,1.71.92,1.99.31.37,1.78.21,1.86,1.58.08,1.55-1.26,1.27-1.78,1.78-.29.29-.47,1.16-.75,1.62-2.47,4.04-8.37,4.05-10.84,0-.28-.46-.45-1.33-.75-1.62-.55-.53-1.7-.14-1.78-1.66s1.54-1.33,1.85-1.7c.24-.28.56-1.48.92-1.99,1.11-1.56,3.2-2.65,5.11-2.67ZM52.91,14.66c-1.12-2.42-4.7-2.42-5.82,0h5.82ZM52.91,17.76h-5.82c1.38,2.26,4.44,2.26,5.82,0Z"/>
  <path class="cls-1" d="M28.85,9.81c3.55-.1,6.77,2.95,6.61,6.57-.05,1.06-.83,2.39-.88,2.95-.02.28.39.56.48.92.32,1.32-.75,2.24-2.02,1.84-.28-.09-.41-.51-.73-.48-.41.04-1.57.77-2.42.86-4.59.51-8.09-3.69-6.85-8.14.12-.42.61-1.11.6-1.41-.01-.45-1.07-.86-.34-2.16.83-1.48,2.11-.13,2.61-.12.33.01,1.97-.81,2.94-.83ZM32.36,17.03c.43-2.51-1.61-4.8-4.18-4,1.16,1.1,2.4,2.78,3.63,3.73.18.14.23.35.55.27ZM30,19.4c.08-.32-.13-.36-.27-.55-.56-.73-2.64-2.81-3.36-3.37-.18-.14-.23-.35-.55-.27-.41,2.7,1.49,4.59,4.18,4.19Z"/>
  <path class="cls-1" d="M71.03,9.81c1.06,0,2.7.85,3.06.83.5-.02,1.79-1.36,2.61.12.73,1.3-.33,1.7-.34,2.16,0,.3.48.98.6,1.41,1.24,4.45-2.26,8.65-6.85,8.14-.85-.09-2.01-.83-2.42-.86-.32-.03-.45.4-.73.48-1.27.4-2.34-.52-2.02-1.84.09-.35.5-.64.48-.92-.05-.56-.83-1.9-.88-2.95-.16-3.58,2.98-6.6,6.49-6.57ZM71.82,13.02c-2.57-.8-4.61,1.49-4.18,4,.32.08.36-.13.55-.27,1.24-.95,2.48-2.63,3.63-3.73ZM74.18,15.21c-.32-.08-.36.13-.55.27-.73.56-2.81,2.64-3.36,3.37-.14.18-.35.23-.27.55,2.7.41,4.58-1.49,4.18-4.19Z"/>
  <path class="cls-1" d="M37.04,42.03l25.76-.03c1.87.16,1.73,2.45,1.55,3.88-.23,1.74-1.96,3.68-3.73,3.92h-21.24c-1.65-.23-3.36-2-3.66-3.62-.26-1.36-.46-3.91,1.32-4.15ZM61.27,45.08h-22.54c-.1,1.06.71,1.77,1.73,1.82,6.09-.36,12.71.48,18.73,0,1.23-.1,2.11-.41,2.08-1.83Z"/>
</svg>