<?xml version="1.0" encoding="UTF-8"?>
<svg id="Layer_4" data-name="Layer 4" xmlns="http://www.w3.org/2000/svg" viewBox="0 0 99.09 93.92">
  <defs>
    <style>
      .cls-1 {
        fill: #231f20;
      }
    </style>
  </defs>
  <path class="cls-1" d="M.35,38.59c.91-3.29,3.69-4.34,6.9-4.03.34-4.6-1.35-9.79,2.68-13.14,1.14-.95,2.84-1.68,4.32-1.82,1.14-.1,4.74-.19,5.74,0,1.34.26,1.43,2.37.11,2.79-2.11.66-5.01-.58-7.42.63-4.08,2.05-2.09,7.86-2.55,11.54h3.16c.26,0,1.77.61,2.08.8,1.18.75,2.18,2.39,2.24,3.8h24.61c2.13.26,4.06,1.08,5.66,2.5v-15.44c0-1.43-2.6-3.8-4.14-3.72l-18.52-.07c-1.64-.29-1.66-2.57-.03-2.82h18.94c2.29.3,3.72,1.59,5.36,3.04,1.48-1.64,3.15-2.77,5.39-3.05,9.58.56,20.03-.76,29.52,0,2.74.22,5.45,2.01,6.58,4.53,1.28,2.87.27,7.29.59,10.43,3.38-.35,6.58.97,6.91,4.69.36,4.15.33,11.76,0,15.93-.43,5.51-5.26,9.67-10.74,9.49.66,2.89,3.19,6.13.36,8.71-1.48,1.35-5.38,1.5-7.06.58-2.44-1.33-5.2-6.9-7.29-9.01l-.49-.28c-15.96.02-31.92-.05-47.87.03-2.26,1.95-5.42,8.42-7.99,9.46-1.72.69-5.36.5-6.78-.88-2.69-2.62-.18-5.72.46-8.61-4.47.14-8.47-2.54-10.11-6.66l-.62-2.16v-17.26ZM88.7,34.56c-.43-4.3,1.81-10.79-3.98-12.03-10.21.07-20.55-.4-30.7.24-1.13.19-3.07,2.43-3.07,3.45v15.44c1.59-1.42,3.52-2.24,5.66-2.49h24.5c.41-1.66,1.13-3.17,2.74-4,.25-.13,1.52-.61,1.69-.61h3.16ZM50.94,50.48h18.3c1.01,0,1.9,2.64-.19,2.88l-53.24-.04c-.59-.17-.99-.61-1.08-1.22-.58-3.72.45-8.82,0-12.65-.17-1.41-1.09-1.9-2.39-2.02-1.68-.15-5.26-.18-6.91,0-1.25.14-2.04.73-2.21,2.01,1.1,7.54-3.91,21.62,7.56,22.35h77.25c11.47-.74,6.47-14.82,7.56-22.35-.14-1.09-.79-1.78-1.87-1.96-1.28-.22-6.68-.22-7.92.04-.89.19-1.56.82-1.7,1.75-.57,3.72.44,8.8,0,12.65-.1.88-.55,1.34-1.44,1.44-2.58.3-5.75-.2-8.39-.05-1.56-.36-.87-2.84.15-2.84h6.8v-8.44h-24.82c-2.02,0-5.46,3.07-5.46,5.08v3.36ZM47.88,50.48v-3.36c0-2.01-3.44-5.08-5.46-5.08h-24.82v8.44h30.28ZM21.63,64.67h-7.47c-.07,1.37-2.16,4.88-1.84,5.95.42,1.42,3.4,1.15,4.43.57l4.88-6.52ZM84.67,64.67h-7.47l4.88,6.52c1.03.57,4,.84,4.43-.57.32-1.07-1.76-4.58-1.84-5.95Z"/>
</svg>