<?xml version="1.0" encoding="UTF-8"?>
<svg id="Layer_6" data-name="Layer 6" xmlns="http://www.w3.org/2000/svg" viewBox="0 0 99.09 93.92">
  <defs>
    <style>
      .cls-1 {
        fill: #231f20;
      }
    </style>
  </defs>
  <path class="cls-1" d="M79.6,0H19.49c-1.04,0-1.88.84-1.88,1.88v90.16c0,1.04.84,1.88,1.88,1.88s1.88-.84,1.88-1.88V3.76h56.35v88.28c0,1.04.84,1.88,1.88,1.88s1.88-.84,1.88-1.88V1.88c0-1.04-.84-1.88-1.88-1.88Z"/>
  <path class="cls-1" d="M71.56,7.51H27.53c-1.04,0-1.88.84-1.88,1.88v82.65c0,1.04.84,1.88,1.88,1.88h44.03c1.04,0,1.88-.84,1.88-1.88V9.39c0-1.04-.84-1.88-1.88-1.88ZM69.68,90.16H29.41V11.27h40.27v78.89Z"/>
  <path class="cls-1" d="M36.35,54.64c2.13,0,3.93-1.33,4.68-3.19h4.38c1.04,0,1.88-.84,1.88-1.88s-.84-1.88-1.88-1.88h-4.38c-.75-1.86-2.56-3.18-4.68-3.18-2.79,0-5.06,2.27-5.06,5.06s2.27,5.07,5.06,5.07ZM36.35,48.27c.72,0,1.31.59,1.31,1.31s-.59,1.31-1.31,1.31-1.31-.59-1.31-1.31.59-1.31,1.31-1.31Z"/>
</svg>