<svg xmlns="http://www.w3.org/2000/svg" xmlns:xlink="http://www.w3.org/1999/xlink" width="1310.491" height="1343.762" viewBox="0 0 1310.491 1343.762"><defs><clipPath id="a"><rect width="1310.491" height="1343.762" fill="none" stroke="#d5670a" stroke-width="2"/></clipPath></defs><g opacity="0.431"><g clip-path="url(#a)"><path d="M194.992,748.157H621.864c60.621,0,116.19,22.733,166.707,65.673C836.562,859.3,879.5,922.442,914.864,1005.8c53.043,123.768,88.405,202.07,106.086,239.958,22.733,40.414,50.517,80.828,60.621,88.405h212.173c-22.733-22.733-55.569-75.776-101.035-161.655-42.94-88.406-75.776-156.6-93.457-202.07-32.836-75.776-68.2-138.923-106.087-184.388-37.888-42.94-80.828-70.724-133.871-75.776V674.907c126.293-17.681,209.647-58.1,250.061-118.716C1152.3,495.57,1172.5,429.9,1172.5,356.647c0-58.095-15.155-116.19-50.517-169.233-32.836-53.043-83.354-98.509-151.552-133.871C899.709,18.181,816.355.5,715.321.5H.5V1334.158H194.992Zm0-636.519H705.217c73.25,0,136.4,25.259,186.914,73.25,47.992,50.517,73.25,113.664,73.25,194.492,0,83.354-22.733,146.5-70.724,194.492q-68.2,68.2-257.639,68.2H194.992Z" transform="translate(4.552 4.552)" fill="none" stroke="#d5670a" stroke-miterlimit="10" stroke-width="2"/></g></g></svg>