<svg xmlns="http://www.w3.org/2000/svg" xmlns:xlink="http://www.w3.org/1999/xlink" width="1488.601" height="1407.621" viewBox="0 0 1488.601 1407.621"><defs><clipPath id="a"><rect width="1488.601" height="1407.621" fill="none" stroke="#de6b09" stroke-width="2"/></clipPath></defs><g opacity="0.431"><g clip-path="url(#a)"><path d="M291.075,1215.2c133.379,133.379,238.176,183.4,450.153,183.4,209.595,0,314.393-50.017,447.771-183.4,176.25-57.162,290.575-290.575,290.575-514.461,0-214.359-114.325-454.916-290.575-516.842C1046.094,48.135,950.823.5,741.228.5,529.251.5,433.981,48.135,291.075,183.9,114.825,245.821.5,486.379.5,700.738.5,924.623,114.825,1158.036,291.075,1215.2Zm71.453-952.7c80.98-92.889,204.831-140.524,378.7-140.524,171.487,0,295.339,47.635,376.318,140.524,88.125,97.652,123.852,247.7,123.852,438.244,0,188.159-35.726,335.829-123.852,433.481-80.98,92.889-204.831,135.76-376.318,140.524-173.869-4.764-297.72-47.635-378.7-140.524C274.4,1036.566,238.676,888.9,238.676,700.738,238.676,510.2,274.4,360.146,362.528,262.494Z" transform="translate(4.264 4.264)" fill="none" stroke="#de6b09" stroke-miterlimit="10" stroke-width="2"/></g></g></svg>