<svg xmlns="http://www.w3.org/2000/svg" width="47.652" height="25.404" viewBox="0 0 47.652 25.404"><g transform="translate(0.001 -14.94)"><g transform="translate(-0.001 14.94)"><path d="M24.756,30.292a.788.788,0,0,1-.231-.037L.491,22.125a.721.721,0,0,1,.06-1.385l24.034-5.778a.7.7,0,0,1,.35,0l22.172,5.666a.723.723,0,0,1,.074,1.377L25,30.248a.684.684,0,0,1-.246.045ZM3.32,21.559,24.741,28.8l19.767-7.349-19.76-5.048Z" transform="translate(0.001 -14.94)" fill="#fff"/><g transform="translate(9.791 9.135)"><path d="M27.557,43.478a35.487,35.487,0,0,1-13-2.606A2.219,2.219,0,0,1,13.15,38.8V27.932a.722.722,0,0,1,1.444,0V38.8a.776.776,0,0,0,.484.722c8.473,3.328,16.625,3.343,24.242.03a.782.782,0,0,0,.454-.715V28.059a.722.722,0,0,1,1.444,0V38.832a2.215,2.215,0,0,1-1.325,2.04,30.644,30.644,0,0,1-12.337,2.606Z" transform="translate(-13.15 -27.21)" fill="#fff"/></g></g><g transform="translate(23.102 21.536)"><path d="M50.157,39.13a.718.718,0,0,1-.722-.722V26.034l-17.713-.789a.723.723,0,0,1-.692-.752.738.738,0,0,1,.752-.692l18.4.819a.722.722,0,0,1,.692.722V38.408a.723.723,0,0,1-.722.722Z" transform="translate(-31.029 -23.8)" fill="#fff"/></g><g transform="translate(40.071 35.415)"><path d="M55.979,46.758A2.159,2.159,0,1,1,58.138,44.6,2.161,2.161,0,0,1,55.979,46.758Zm0-2.866a.715.715,0,1,0,.715.715A.725.725,0,0,0,55.979,43.892Z" transform="translate(-53.82 -42.44)" fill="#fff"/></g></g></svg>