<svg xmlns="http://www.w3.org/2000/svg" xmlns:xlink="http://www.w3.org/1999/xlink" width="853.305" height="379.124" viewBox="0 0 853.305 379.124">
  <defs>
    <clipPath id="clip-path">
      <rect id="Rectangle_1118" data-name="Rectangle 1118" width="853.305" height="379.124" fill="none"/>
    </clipPath>
  </defs>
  <g id="Group_1117" data-name="Group 1117" transform="translate(0 0)">
    <path id="Path_54261" data-name="Path 54261" d="M349.827,0V7.965h11.948v31.3h8.635V7.965h11.948V0Z" fill="#231f20"/>
    <path id="Path_54262" data-name="Path 54262" d="M428.139,0V15.537h-15.93V0h-8.637V39.263h8.637V23.5h15.93V39.263h8.637V0Z" fill="#231f20"/>
    <path id="Path_54263" data-name="Path 54263" d="M460.791,0V39.263h29.9V31.578H469.373V23.333h18.508V15.649H469.373V7.684h21.033V0Z" fill="#231f20"/>
    <path id="Path_54264" data-name="Path 54264" d="M18.207,294.43H825.644l3.2-5.565H15.005Z" fill="#231f20"/>
    <g id="Group_1116" data-name="Group 1116">
      <g id="Group_1115" data-name="Group 1115" clip-path="url(#clip-path)">
        <path id="Path_54265" data-name="Path 54265" d="M123.744,345.661h13.441c7.848,0,12.6,4.653,12.6,11.374v.094c0,7.613-5.921,11.561-13.3,11.561h-5.5v9.87h-7.238Zm12.971,16.591c3.619,0,5.733-2.162,5.733-4.982v-.094c0-3.243-2.255-4.982-5.874-4.982h-5.592v10.058Z" fill="#231f20"/>
        <path id="Path_54266" data-name="Path 54266" d="M156.315,345.661h7.238v13.018H176.9V345.661h7.237v32.9H176.9V365.353H163.553v13.206h-7.238Z" fill="#231f20"/>
        <path id="Path_54267" data-name="Path 54267" d="M204.489,345.427h6.674l14.1,33.132H217.7l-3.008-7.378H200.777l-3.008,7.378H190.39Zm7.614,19.362-4.371-10.668-4.37,10.668Z" fill="#231f20"/>
        <path id="Path_54268" data-name="Path 54268" d="M235.6,365.589l-12.642-19.928h8.459l7.849,13.207,7.989-13.207h8.225L242.84,365.447V378.56H235.6Z" fill="#231f20"/>
        <path id="Path_54269" data-name="Path 54269" d="M267.282,345.427h6.673l14.1,33.132h-7.566l-3.008-7.378H263.569l-3.008,7.378h-7.379Zm7.613,19.362-4.371-10.668-4.371,10.668Z" fill="#231f20"/>
        <path id="Path_54270" data-name="Path 54270" d="M297.738,352.335H287.727v-6.674h27.259v6.674H304.975V378.56h-7.237Z" fill="#231f20"/>
        <path id="Path_54271" data-name="Path 54271" d="M321.707,345.661h7.238v13.018h13.347V345.661h7.237v32.9h-7.237V365.353H328.945v13.206h-7.238Z" fill="#231f20"/>
        <path id="Path_54272" data-name="Path 54272" d="M369.881,345.427h6.674l14.1,33.132h-7.566l-3.008-7.378H366.169l-3.008,7.378h-7.379Zm7.614,19.362-4.371-10.668-4.37,10.668Z" fill="#231f20"/>
        <rect id="Rectangle_1116" data-name="Rectangle 1116" width="7.238" height="32.898" transform="translate(397.236 345.661)" fill="#231f20"/>
        <rect id="Rectangle_1117" data-name="Rectangle 1117" width="14.476" height="6.861" transform="translate(424.495 360.56)" fill="#231f20"/>
        <path id="Path_54273" data-name="Path 54273" d="M458.665,345.662H473.7c4.182,0,7.425,1.175,9.587,3.336a10.327,10.327,0,0,1,2.819,7.52v.1a10.216,10.216,0,0,1-7.049,10.2L487.1,378.56h-8.459l-7.05-10.527H465.9V378.56h-7.237Zm14.568,15.979c3.525,0,5.546-1.88,5.546-4.652v-.1c0-3.1-2.162-4.7-5.687-4.7H465.9v9.446Z" fill="#231f20"/>
        <path id="Path_54274" data-name="Path 54274" d="M505.1,345.427h6.674l14.1,33.132h-7.566l-3.008-7.378H501.387l-3.008,7.378H491Zm7.614,19.362-4.371-10.668-4.37,10.668Z" fill="#231f20"/>
        <path id="Path_54275" data-name="Path 54275" d="M532.124,345.661H538.8l15.415,20.256V345.661h7.143v32.9H555.2l-15.931-20.914v20.914h-7.145Z" fill="#231f20"/>
        <path id="Path_54276" data-name="Path 54276" d="M568.972,362.2v-.094A16.884,16.884,0,0,1,586.219,345.1c5.922,0,9.495,1.6,12.925,4.511l-4.559,5.5a12.112,12.112,0,0,0-8.6-3.337c-5.264,0-9.447,4.653-9.447,10.246v.093c0,6.016,4.136,10.434,9.963,10.434a11.549,11.549,0,0,0,6.815-1.974v-4.7h-7.284v-6.25h14.287v14.287a21.359,21.359,0,0,1-14.052,5.217c-10.246,0-17.3-7.191-17.3-16.92" fill="#231f20"/>
        <path id="Path_54277" data-name="Path 54277" d="M608.452,345.661h6.674l15.415,20.256V345.661h7.143v32.9h-6.156L615.6,357.645v20.914h-7.144Z" fill="#231f20"/>
        <path id="Path_54278" data-name="Path 54278" d="M658.036,345.427h6.674l14.1,33.132h-7.566l-3.008-7.378H654.324l-3.008,7.378h-7.379Zm7.614,19.362-4.371-10.668-4.37,10.668Z" fill="#231f20"/>
        <path id="Path_54279" data-name="Path 54279" d="M685.061,345.661h7.8l8.647,13.912,8.648-13.912h7.8v32.9h-7.19V357.082l-9.259,14.052h-.187l-9.165-13.912v21.337h-7.1Z" fill="#231f20"/>
        <path id="Path_54280" data-name="Path 54280" d="M0,257.619V207.9q0-13.357,2.641-21.286t6.681-11.031v-3.107Q5.28,169.061,2.641,160.2T0,137.051V96.034H137.036V110.95L25.17,110.328v55.933H124.3v15.226H25.17V241.46l116.527.311-2.485,15.848Z" fill="#1d1d1b"/>
        <path id="Path_54281" data-name="Path 54281" d="M342.391,96.033H502.7l-2.521,14.605H432.159v146.98h-23.3V110.638H340.181Z" fill="#1d1d1b"/>
        <path id="Path_54282" data-name="Path 54282" d="M766.9,258.861a89.538,89.538,0,0,1-26.257-3.573q-11.652-3.57-23.461-15.071l-2.8-3.107q-9.946-2.484-17.556-11.964a69.493,69.493,0,0,1-11.808-22.528,83.952,83.952,0,0,1-4.194-25.792A77.646,77.646,0,0,1,690.3,140q9.475-17.864,24.082-23.461l2.8-3.107q11.8-11.187,23.616-14.915a86.35,86.35,0,0,1,26.1-3.729,85.281,85.281,0,0,1,25.792,3.729q11.8,3.728,23.616,14.915l3.108,3.107q9.941,4.042,17.556,14.139a79.3,79.3,0,0,1,11.808,22.529,81.074,81.074,0,0,1,4.506,23.616A73.529,73.529,0,0,1,849.246,202a70.329,70.329,0,0,1-12.275,22.684q-7.923,9.635-17.556,12.43l-2.8,3.107q-11.812,11.187-23.772,14.915a86.767,86.767,0,0,1-25.947,3.729m0-14.6q21.128,0,34.182-7.924a45.455,45.455,0,0,0,18.955-22.84q5.9-14.916,5.593-36.667-.314-21.128-5.593-36.045A43.892,43.892,0,0,0,801.7,117.63q-13.053-8.229-34.8-8.235-19.89,0-32.938,8.391a49.563,49.563,0,0,0-19.266,23.46q-6.219,15.076-6.216,35.58,0,33.253,13.518,50.5t44.9,16.935" fill="#1d1d1b"/>
        <path id="Path_54283" data-name="Path 54283" d="M190.17,96.033l29.21,30.142q11.8,12.118,16.935,20.664t5.128,16h2.486l19.265-21.752,39.153-45.057H326.9L256.98,176.825l78.307,80.793H304.523L266.613,219.4q-11.5-11.493-16-17.868T246.1,189.255h-2.8l-59.662,68.363H160.34l71.78-81.725-73.645-79.86Z" fill="#1d1d1b"/>
        <path id="Path_54284" data-name="Path 54284" d="M522.658,205.724q0-13.67,1.4-18.178a15.148,15.148,0,0,1,5.437-7.613v-3.108a16.682,16.682,0,0,1-5.437-8.389q-1.4-4.967-1.4-19.577V96.033h86.385q18.333,0,30.919,6.37t18.645,16.159a38.646,38.646,0,0,1,6.059,20.664,41.531,41.531,0,0,1-7.614,24.083q-7.617,11.032-30.3,14.449V181.8q9.321,1.247,16.158,9.478t12.74,22.218q3.416,8.39,11.5,24.549,8.078,15.541,12.119,19.576H653.479a28.661,28.661,0,0,1-3.418-4.351,60.957,60.957,0,0,1-3.728-6.525q-3.425-6.525-13.052-28.9-6.525-15.223-15.382-23.306a28.953,28.953,0,0,0-20.043-8.079H545.963v71.159h-23.3Zm23.3-96.329v64.323h53.758q22.679,0,31.229-8.39t8.545-23.616q0-14.289-9.011-23.305T607.8,109.395H545.963Z" fill="#231f20"/>
      </g>
    </g>
  </g>
</svg>
