<svg xmlns="http://www.w3.org/2000/svg" width="38.039" height="54.323" viewBox="0 0 38.039 54.323"><g transform="translate(-12.495 -2.01)"><path d="M38.687,8.552h-5.65a.776.776,0,0,1,0-1.552h5.65a.776.776,0,1,1,0,1.552Z" transform="translate(-4.424 -1.117)" fill="#fff"/><path d="M45.584,44.691H17.542a4.61,4.61,0,0,1-4.6-4.766l.97-31.147A6.985,6.985,0,0,1,20.895,2.01h21.3a6.985,6.985,0,0,1,6.985,6.768l.955,31.147a4.587,4.587,0,0,1-4.548,4.766ZM20.887,3.555a5.433,5.433,0,0,0-5.433,5.262l-.962,31.155a3.066,3.066,0,0,0,3.05,3.167H45.584a3.035,3.035,0,0,0,3.035-3.159L47.626,8.825a5.433,5.433,0,0,0-5.433-5.27Z" transform="translate(-0.099 0)" fill="#fff"/><path d="M50.323,49.187a3.143,3.143,0,1,1,3.143-3.143A3.143,3.143,0,0,1,50.323,49.187Zm0-4.735A1.552,1.552,0,1,0,51.915,46a1.591,1.591,0,0,0-1.591-1.56Z" transform="translate(-7.764 -9.153)" fill="#fff"/><path d="M21.683,49.187a3.143,3.143,0,1,1,3.143-3.143A3.143,3.143,0,0,1,21.683,49.187Zm0-4.735A1.552,1.552,0,1,0,23.275,46a1.591,1.591,0,0,0-1.591-1.56Z" transform="translate(-1.353 -9.153)" fill="#fff"/><path d="M49.762,68.195a.776.776,0,0,1-.636-.326l-8.08-11.316H21.828L13.9,67.651a.776.776,0,0,1-1.265-.9L20.8,55.318A.776.776,0,0,1,21.425,55H41.442a.776.776,0,0,1,.636.326l8.313,11.642a.777.777,0,0,1-.629,1.226Z" transform="translate(0 -11.862)" fill="#fff"/><path d="M45.712,61.4h-25.4a.776.776,0,0,1,0-1.552h25.4a.776.776,0,0,1,0,1.552Z" transform="translate(-1.577 -12.947)" fill="#fff"/><path d="M48.212,67.742H15.776a.776.776,0,0,1,0-1.552H48.212a.776.776,0,0,1,0,1.552Z" transform="translate(-0.561 -14.366)" fill="#fff"/><path d="M45.193,29.971H22.366a.776.776,0,0,1-.776-.776V16.776A.776.776,0,0,1,22.366,16H45.193a.776.776,0,0,1,.776.776V29.195A.776.776,0,0,1,45.193,29.971ZM23.142,28.418H44.417V17.552H23.142Z" transform="translate(-2.036 -3.132)" fill="#fff"/><path d="M36.686,30a.776.776,0,0,1-.776-.776V16.906a.776.776,0,1,1,1.552,0V29.224A.776.776,0,0,1,36.686,30Z" transform="translate(-5.241 -3.161)" fill="#fff"/><path d="M40.178,47.552H30.616a.776.776,0,0,1,0-1.552h9.562a.776.776,0,1,1,0,1.552Z" transform="translate(-3.883 -9.847)" fill="#fff"/></g></svg>