<svg width="20" height="20" viewBox="0 0 20 20" fill="none" xmlns="http://www.w3.org/2000/svg">
<path d="M9.99953 17.2881C9.78092 17.2872 9.57141 17.2004 9.41619 17.0465L3.00785 10.6381C2.58348 10.2133 2.24657 9.70928 2.01618 9.15475C1.78535 8.59873 1.6665 8.00263 1.6665 7.4006C1.6665 6.79856 1.78535 6.20247 2.01618 5.64645C2.24781 5.08568 2.58789 4.57613 3.01691 4.14712C3.44592 3.7181 3.95542 3.37807 4.51618 3.14645C5.64077 2.68836 6.89995 2.68836 8.02454 3.14645C8.58114 3.37675 9.0856 3.71681 9.50784 4.1464L10.0162 4.65473L10.5245 4.1464C10.9451 3.70054 11.4508 3.34359 12.0117 3.0966C12.5726 2.84961 13.1774 2.71767 13.7903 2.70852C14.4031 2.69937 15.0116 2.81326 15.5796 3.0434C16.1477 3.27353 16.6638 3.61523 17.0975 4.04834C17.5312 4.48146 17.8736 4.9971 18.1044 5.56486C18.3353 6.13263 18.45 6.74095 18.4416 7.3538C18.4333 7.96665 18.302 8.57162 18.0558 9.13288C17.8095 9.69413 17.4532 10.2003 17.0078 10.6214L10.6078 17.0298C10.5294 17.1121 10.435 17.1774 10.3304 17.2219C10.2258 17.2663 10.1132 17.2888 9.99953 17.2881ZM6.24953 4.47976C5.86603 4.47953 5.48633 4.55605 5.13284 4.70477C4.78122 4.85351 4.46152 5.06854 4.19117 5.33812C3.91954 5.60997 3.70429 5.93283 3.55783 6.28813C3.40954 6.64028 3.33317 7.0185 3.33317 7.4006C3.33317 7.7827 3.40954 8.16091 3.55783 8.51306C3.70429 8.86836 3.91954 9.19123 4.19117 9.46308L10.0245 15.2964L15.8578 9.46308C16.134 9.19093 16.3533 8.86665 16.503 8.50899C16.6527 8.15134 16.7297 7.76745 16.7297 7.37974C16.7297 6.99203 16.6527 6.60825 16.503 6.25059C16.3533 5.89294 16.134 5.56855 15.8578 5.29641C15.3016 4.76704 14.5632 4.47182 13.7954 4.47182C13.0275 4.47182 12.289 4.76704 11.7328 5.29641L10.6329 6.39647C10.4767 6.55167 10.2655 6.63878 10.0454 6.63878C9.8252 6.63878 9.61398 6.55167 9.45784 6.39647L8.35784 5.29641C8.08599 5.02477 7.76312 4.80953 7.40783 4.66307C7.03886 4.52136 6.64423 4.45892 6.24953 4.47976Z" fill="#A3A3A3"/>
</svg>
