<svg id="Group_1118" data-name="Group 1118" xmlns="http://www.w3.org/2000/svg" xmlns:xlink="http://www.w3.org/1999/xlink" width="147.419" height="92.829" viewBox="0 0 147.419 92.829">
  <defs>
    <clipPath id="clip-path">
      <rect id="Rectangle_1109" data-name="Rectangle 1109" width="147.419" height="92.829" fill="#fff"/>
    </clipPath>
  </defs>
  <path id="Path_56695" data-name="Path 56695" d="M247.205,93.968l3.126-3.195V57.063l-3.126-3.194h23.009v4.953l-4.282-1.963H254.749V71.132h9.039l3.194-1.458v5.911l-3.194-1.463h-9.039V90.978h12.165l4.282-1.959v4.949Z" transform="translate(-136.664 -29.781)" fill="#fff"/>
  <path id="Path_56696" data-name="Path 56696" d="M27.924,93.968l3.126-3.195V57.063l-3.126-3.194H50.934v4.953l-4.282-1.963H35.468V71.132h9.04L47.7,69.674v5.911l-3.194-1.463h-9.04V90.978H47.634l4.282-1.959v4.949Z" transform="translate(-15.438 -29.781)" fill="#fff"/>
  <g id="Group_1117" data-name="Group 1117">
    <g id="Group_1116" data-name="Group 1116" clip-path="url(#clip-path)">
      <path id="Path_56697" data-name="Path 56697" d="M122.9,74.353l-8.15-5.909c-2.921-2.105-4.415-4.822-4.415-6.859a5.645,5.645,0,0,1,5.773-5.7,5.834,5.834,0,0,1,1.677.29l2.688,1.206,2.77,1.258,2.714-4.045-7.946-1.494a6.391,6.391,0,0,0-1.9-.2,10.091,10.091,0,0,0-10.188,9.848c0,3.056,1.562,6.52,5.162,9.169l8.217,5.909a6.8,6.8,0,0,1,2.852,5.841c0,3.4-2.1,7.063-6.656,7.063a6.782,6.782,0,0,1-2.785-.543L107.7,87.883l-2.25,4.06,7.674,1.494a13.735,13.735,0,0,0,2.377.271,11.5,11.5,0,0,0,11.138-11.681,8.865,8.865,0,0,0-3.735-7.675" transform="translate(-58.296 -29.24)" fill="#fff"/>
      <path id="Path_56698" data-name="Path 56698" d="M193.631,74.353l-8.15-5.909c-2.92-2.105-4.414-4.822-4.414-6.859a5.645,5.645,0,0,1,5.772-5.7,5.828,5.828,0,0,1,1.677.29l2.688,1.206,2.77,1.258,2.713-4.045-7.946-1.494a6.388,6.388,0,0,0-1.9-.2,10.091,10.091,0,0,0-10.187,9.848c0,3.056,1.562,6.52,5.162,9.169l8.217,5.909a6.8,6.8,0,0,1,2.852,5.841c0,3.4-2.105,7.063-6.656,7.063a6.779,6.779,0,0,1-2.784-.543l-5.017-2.294-2.251,4.06,7.675,1.494a13.735,13.735,0,0,0,2.377.271,11.5,11.5,0,0,0,11.138-11.681,8.865,8.865,0,0,0-3.735-7.675" transform="translate(-97.397 -29.24)" fill="#fff"/>
      <path id="Path_56699" data-name="Path 56699" d="M132.618,10.23h-4.107V9.806q.321-.117.651-.2a6.656,6.656,0,0,1,.709-.146V.76h-2.236l-.774,2.09h-.365q-.044-.292-.073-.665t-.051-.76q-.021-.387-.037-.76T126.319,0h8.491q0,.292-.015.657t-.037.753q-.023.387-.045.76t-.067.679h-.384L133.495.76h-2.222v8.7q.38.073.709.146a3.6,3.6,0,0,1,.636.2Z" transform="translate(-69.834)" fill="#fff"/>
      <path id="Path_56700" data-name="Path 56700" d="M157.11,10.23h-3.7V9.806a6.525,6.525,0,0,1,1.2-.351V.789a3.838,3.838,0,0,1-1.2-.366V0h3.7V.423a3.13,3.13,0,0,1-.526.22,5.512,5.512,0,0,1-.57.146V4.6H160.6V.789q-.307-.073-.577-.161a4.375,4.375,0,0,1-.519-.2V0h3.7V.423a2.408,2.408,0,0,1-.577.227q-.315.08-.622.139V9.455a6.167,6.167,0,0,1,.643.146,3.68,3.68,0,0,1,.555.2v.424h-3.7V9.806a5.371,5.371,0,0,1,1.1-.351V5.363h-4.589V9.455a5.4,5.4,0,0,1,.57.146,4.2,4.2,0,0,1,.526.2Z" transform="translate(-84.813)" fill="#fff"/>
      <path id="Path_56701" data-name="Path 56701" d="M190.669,0q-.015.584-.051,1.176t-.11,1.191h-.38l-.6-1.608h-3.186V4.633h2.382l.57-1.082h.366a24.824,24.824,0,0,1,0,2.953h-.366l-.57-1.111h-2.382V9.47H189.7l.716-1.754h.365q.1.614.146,1.242a10.935,10.935,0,0,1,.014,1.271h-7.2V9.806a4.852,4.852,0,0,1,1.2-.351V.789a5.963,5.963,0,0,1-.6-.153q-.307-.1-.6-.212V0Z" transform="translate(-101.58)" fill="#fff"/>
      <path id="Path_56702" data-name="Path 56702" d="M39.148,193.331a1.487,1.487,0,0,0,.453.3,2.129,2.129,0,0,0,.833.124,2.992,2.992,0,0,0,.877-.124,2.075,2.075,0,0,0,.709-.365,1.786,1.786,0,0,0,.475-.584,1.692,1.692,0,0,0,.175-.782,1.4,1.4,0,0,0-.358-.979,3.636,3.636,0,0,0-.892-.7q-.533-.307-1.162-.6a6.435,6.435,0,0,1-1.162-.694,3.656,3.656,0,0,1-.892-.965,2.579,2.579,0,0,1-.358-1.41,2.624,2.624,0,0,1,.219-1.1,2.293,2.293,0,0,1,.621-.819,2.879,2.879,0,0,1,.957-.519,3.967,3.967,0,0,1,1.242-.182,8.837,8.837,0,0,1,1.629.139,4.792,4.792,0,0,1,1.162.343,5.358,5.358,0,0,1-.037.577q-.037.329-.088.679t-.11.68q-.059.328-.117.577h-.38l-.584-2a2.611,2.611,0,0,0-.671-.175,6.057,6.057,0,0,0-.863-.059,1.727,1.727,0,0,0-1.21.416,1.492,1.492,0,0,0-.457,1.162,1.472,1.472,0,0,0,.36,1.008,3.693,3.693,0,0,0,.9.731q.544.321,1.169.621a7.558,7.558,0,0,1,1.168.694,3.656,3.656,0,0,1,.9.935,2.374,2.374,0,0,1,.36,1.345,2.914,2.914,0,0,1-.241,1.2,2.535,2.535,0,0,1-.694.92,3.17,3.17,0,0,1-1.11.585,5.015,5.015,0,0,1-1.491.2,5.74,5.74,0,0,1-1.651-.219,3.162,3.162,0,0,1-1.038-.468q.015-.248.051-.6t.088-.723q.051-.373.11-.724t.117-.6h.38Z" transform="translate(-20.899 -101.686)" fill="#fff"/>
      <path id="Path_56703" data-name="Path 56703" d="M56.2,184.326h3.712v.422q-.278.117-.556.2t-.555.16v5.959a4.235,4.235,0,0,0,.168,1.289,1.987,1.987,0,0,0,.49.831,1.865,1.865,0,0,0,.8.452,3.846,3.846,0,0,0,1.074.138,2.45,2.45,0,0,0,1.8-.634,2.849,2.849,0,0,0,.643-2.091v-5.813c-.224-.077-.434-.157-.628-.24a5.145,5.145,0,0,1-.527-.255v-.422h3.113v.423q-.278.161-.563.292a3.28,3.28,0,0,1-.577.2v5.86a4.659,4.659,0,0,1-.248,1.608,2.979,2.979,0,0,1-.695,1.111,2.76,2.76,0,0,1-1.081.65,4.442,4.442,0,0,1-1.41.212,4.179,4.179,0,0,1-2.792-.825,3.157,3.157,0,0,1-.965-2.536v-6.211a4.329,4.329,0,0,1-1.2-.366Z" transform="translate(-31.071 -101.902)" fill="#fff"/>
      <path id="Path_56704" data-name="Path 56704" d="M86.4,184.326h3.229v.423a5.182,5.182,0,0,1-.57.22c-.185.058-.365.107-.541.146L85.579,189q.365.482.84,1.082t.994,1.235q.519.636,1.067,1.286t1.074,1.235l.7.351v.365H88.428l-.5-.351q-.862-1.009-1.717-2.178t-1.659-2.367h-.716v4.121a3.553,3.553,0,0,1,1.1.351v.424h-3.7v-.424a6.529,6.529,0,0,1,1.2-.351v-8.666a3.652,3.652,0,0,1-1.2-.366v-.423h3.7v.423c-.156.068-.326.134-.511.2s-.38.12-.585.169v4.048l.877-.2,2.733-3.843q-.292-.073-.555-.161a3.75,3.75,0,0,1-.5-.2Z" transform="translate(-44.911 -101.902)" fill="#fff"/>
      <path id="Path_56705" data-name="Path 56705" d="M108.5,194.556h-3.7v-.424a6.514,6.514,0,0,1,1.2-.351v-8.666a3.838,3.838,0,0,1-1.2-.365v-.423h3.7v.423a3.187,3.187,0,0,1-.526.22,5.51,5.51,0,0,1-.57.146v3.814h4.589v-3.814c-.2-.048-.4-.1-.577-.161a4.374,4.374,0,0,1-.519-.2v-.423h3.7v.423a2.392,2.392,0,0,1-.577.227q-.314.08-.621.139v8.666a6.166,6.166,0,0,1,.643.146,3.652,3.652,0,0,1,.555.2v.424h-3.7v-.424a5.362,5.362,0,0,1,1.1-.351v-4.092H107.4v4.092a5.4,5.4,0,0,1,.57.146,4.221,4.221,0,0,1,.526.2Z" transform="translate(-57.939 -101.902)" fill="#fff"/>
      <path id="Path_56706" data-name="Path 56706" d="M130.424,184.326h3.712v.422q-.278.117-.555.2t-.555.16v5.959a4.235,4.235,0,0,0,.168,1.289,2,2,0,0,0,.49.831,1.87,1.87,0,0,0,.8.452,3.845,3.845,0,0,0,1.074.138,2.45,2.45,0,0,0,1.8-.634,2.851,2.851,0,0,0,.643-2.091v-5.813q-.337-.116-.628-.24a5.191,5.191,0,0,1-.527-.255v-.422h3.114v.423q-.278.161-.563.292a3.284,3.284,0,0,1-.577.2v5.86a4.637,4.637,0,0,1-.249,1.608,2.978,2.978,0,0,1-.694,1.111,2.762,2.762,0,0,1-1.081.65,4.442,4.442,0,0,1-1.411.212,4.175,4.175,0,0,1-2.791-.825,3.157,3.157,0,0,1-.965-2.536v-6.211a4.329,4.329,0,0,1-1.2-.366Z" transform="translate(-72.103 -101.902)" fill="#fff"/>
      <path id="Path_56707" data-name="Path 56707" d="M167.237,194.556h-3.6v-.424a5.583,5.583,0,0,1,.584-.2q.292-.08.6-.153V187.2l.059-1.71h-.117l-.482,1.564-3,7.5h-.38l-2.85-7.5-.526-1.71H157.4l.015,1.856v6.576q.277.058.555.146t.555.2v.424h-3.054v-.424q.278-.117.577-.212a5.372,5.372,0,0,1,.606-.153v-8.652a5.186,5.186,0,0,1-.606-.153q-.3-.095-.592-.212v-.423h3L161,191l.5,1.506h.014l.5-1.535,2.63-6.649h2.616v.423q-.264.117-.541.212a4.432,4.432,0,0,1-.57.153V193.8q.307.058.577.139a3.718,3.718,0,0,1,.519.2Z" transform="translate(-85.943 -101.902)" fill="#fff"/>
      <path id="Path_56708" data-name="Path 56708" d="M193.262,185.115q-.351-.073-.658-.168c-.2-.063-.4-.129-.6-.2v-.424h3.288v.424a3.805,3.805,0,0,1-1.053.365l-3.3,9.441-.8.175-3.727-9.616q-.292-.073-.57-.168c-.185-.063-.365-.129-.541-.2v-.424h3.872v.424c-.165.068-.351.134-.555.2s-.419.119-.643.168l2.5,6.678.307,1.169h.029l.292-1.2Z" transform="translate(-102.439 -101.902)" fill="#fff"/>
      <path id="Path_56709" data-name="Path 56709" d="M215.412,194.556h-3.741v-.424a4.252,4.252,0,0,1,1.169-.351v-8.666a5.125,5.125,0,0,1-.585-.153q-.292-.095-.584-.212v-.423h3.741v.423a5.027,5.027,0,0,1-.57.212,5.959,5.959,0,0,1-.6.153v8.666q.307.058.614.146a3.676,3.676,0,0,1,.555.2Z" transform="translate(-117.02 -101.902)" fill="#fff"/>
      <path id="Path_56710" data-name="Path 56710" d="M230.977,194.556h-4.106v-.424q.321-.117.65-.2a6.654,6.654,0,0,1,.709-.146v-8.7h-2.236l-.774,2.09h-.365q-.044-.292-.073-.665t-.051-.76q-.022-.387-.036-.76t-.014-.665h8.49q0,.292-.015.657t-.037.753q-.023.387-.045.76t-.066.679h-.384l-.769-2.09h-2.222v8.7q.38.073.709.146a3.585,3.585,0,0,1,.636.2Z" transform="translate(-124.211 -101.902)" fill="#fff"/>
      <path id="Path_56711" data-name="Path 56711" d="M261.957,194.044a1.618,1.618,0,0,0,.76-.183,1.992,1.992,0,0,0,.614-.5,2.481,2.481,0,0,0,.57-1.586,2.49,2.49,0,0,0-.168-.95,1.892,1.892,0,0,0-.46-.68,1.974,1.974,0,0,0-.68-.409,2.477,2.477,0,0,0-.841-.139h-.95v-.394l2.455-3.288.5-.512v-.059l-.789.088H260.5l-.57,1.491h-.365q-.058-.307-.11-.658t-.095-.694q-.044-.343-.073-.665c-.02-.214-.03-.409-.03-.584h5.714v.453l-2.441,3.259-.628.643v.029l.5-.1a3.443,3.443,0,0,1,1.228.263,2.781,2.781,0,0,1,.914.621,2.655,2.655,0,0,1,.57.906,3.161,3.161,0,0,1,.2,1.133,2.947,2.947,0,0,1-.292,1.322,3.122,3.122,0,0,1-.782,1.008,3.57,3.57,0,0,1-1.125.643,3.959,3.959,0,0,1-1.337.226,5.63,5.63,0,0,1-1.461-.2,5.733,5.733,0,0,1-.68-.234,2.235,2.235,0,0,1-.534-.307l.409-1.315h.292q.088.1.241.263l.322.336q.168.175.329.351c.107.117.2.22.277.307.1.02.224.044.38.073a3.472,3.472,0,0,0,.614.044" transform="translate(-143.236 -101.902)" fill="#fff"/>
      <path id="Path_56712" data-name="Path 56712" d="M285.224,191.146a3.415,3.415,0,0,1-.234,1.264,3.187,3.187,0,0,1-.658,1.037,3.033,3.033,0,0,1-1.023.7,3.357,3.357,0,0,1-1.33.256,3.465,3.465,0,0,1-1.447-.285,2.965,2.965,0,0,1-1.06-.8,3.452,3.452,0,0,1-.65-1.213,5.122,5.122,0,0,1-.22-1.534,6.81,6.81,0,0,1,.453-2.521,7.163,7.163,0,0,1,1.206-2.031,6.991,6.991,0,0,1,1.725-1.469,6.764,6.764,0,0,1,2.024-.818l.161.439a6.434,6.434,0,0,0-1.469.753,6.294,6.294,0,0,0-1.242,1.118,6.17,6.17,0,0,0-.914,1.439,5.293,5.293,0,0,0-.453,1.717,2.117,2.117,0,0,1,.833-.723,2.835,2.835,0,0,1,1.388-.329,3.281,3.281,0,0,1,1.169.2,2.579,2.579,0,0,1,.92.584,2.711,2.711,0,0,1,.6.935,3.443,3.443,0,0,1,.22,1.271m-1.4.131a2.734,2.734,0,0,0-.5-1.705,1.671,1.671,0,0,0-1.41-.662,1.992,1.992,0,0,0-1.176.345,2.053,2.053,0,0,0-.694.772,3.564,3.564,0,0,0-.029.486v.441a3.914,3.914,0,0,0,.124.963,3.151,3.151,0,0,0,.38.9,2.224,2.224,0,0,0,.643.676,1.55,1.55,0,0,0,.9.265,1.474,1.474,0,0,0,.8-.213,1.7,1.7,0,0,0,.548-.566,2.722,2.722,0,0,0,.314-.8,4.061,4.061,0,0,0,.1-.9" transform="translate(-154.022 -101.577)" fill="#fff"/>
      <path id="Path_56713" data-name="Path 56713" d="M0,32.179H147.419V30.416L73.709,31.488,0,30.235Z" transform="translate(0 -16.715)" fill="#fff"/>
      <path id="Path_56714" data-name="Path 56714" d="M147.419,162.513H0v1.764L73.71,163.2l73.709,1.253Z" transform="translate(0 -89.843)" fill="#fff"/>
    </g>
  </g>
</svg>
