<svg width="48" height="48" viewBox="0 0 48 48" fill="none" xmlns="http://www.w3.org/2000/svg">
<rect x="0.5" y="0.5" width="47" height="47" rx="1.5" stroke="white"/>
<path fill-rule="evenodd" clip-rule="evenodd" d="M15.0575 15.0575C15.5782 14.5368 16.4224 14.5368 16.9431 15.0575L24.0003 22.1147L31.0575 15.0575C31.5782 14.5368 32.4224 14.5368 32.9431 15.0575C33.4638 15.5782 33.4638 16.4224 32.9431 16.9431L25.8859 24.0003L32.9431 31.0575C33.4638 31.5782 33.4638 32.4224 32.9431 32.9431C32.4224 33.4638 31.5782 33.4638 31.0575 32.9431L24.0003 25.8859L16.9431 32.9431C16.4224 33.4638 15.5782 33.4638 15.0575 32.9431C14.5368 32.4224 14.5368 31.5782 15.0575 31.0575L22.1147 24.0003L15.0575 16.9431C14.5368 16.4224 14.5368 15.5782 15.0575 15.0575Z" fill="white"/>
</svg>
