<svg xmlns="http://www.w3.org/2000/svg" xmlns:xlink="http://www.w3.org/1999/xlink" width="27.095" height="26.762" viewBox="0 0 27.095 26.762">
  <defs>
    <clipPath id="clip-path">
      <rect id="Rectangle_1403" data-name="Rectangle 1403" width="25.19" height="25.19" fill="none"/>
    </clipPath>
  </defs>
  <g id="Group_1585" data-name="Group 1585" transform="translate(-22.953 -15)">
    <g id="Group_1582" data-name="Group 1582" transform="translate(22.953 16.571)">
      <g id="Group_1581" data-name="Group 1581" clip-path="url(#clip-path)">
        <path id="Path_61584" data-name="Path 61584" d="M6.027,25.19a2.04,2.04,0,0,1-2.038-2.038V21.546a.319.319,0,0,0-.319-.319A3.674,3.674,0,0,1,0,17.556V3.67A3.674,3.674,0,0,1,3.67,0H21.52a3.674,3.674,0,0,1,3.67,3.67V17.556a3.674,3.674,0,0,1-3.67,3.67H10.967a.317.317,0,0,0-.226.093L7.468,24.594a2.024,2.024,0,0,1-1.441.6M3.67,1.255A2.418,2.418,0,0,0,1.255,3.67V17.556A2.418,2.418,0,0,0,3.67,19.971a1.576,1.576,0,0,1,1.574,1.574v1.607a.783.783,0,0,0,1.336.554l3.274-3.274a1.564,1.564,0,0,1,1.113-.461H21.52a2.418,2.418,0,0,0,2.415-2.415V3.67A2.418,2.418,0,0,0,21.52,1.255ZM18.055,14.237h-.98a.628.628,0,0,1,0-1.255h.98a.628.628,0,0,1,0,1.255m-4.513,0H6.611a.628.628,0,1,1,0-1.255h6.93a.628.628,0,0,1,0,1.255m5.037-5.984H6.611A.628.628,0,1,1,6.611,7H18.579a.628.628,0,0,1,0,1.255"/>
      </g>
    </g>
    <circle id="Ellipse_11" data-name="Ellipse 11" cx="3" cy="3" r="3" transform="translate(44.047 15)" fill="#ea3600"/>
  </g>
</svg>
