
                            <svg class="contact-icon" xmlns="http://www.w3.org/2000/svg" width="19.543" height="19.58"
                                viewBox="0 0 19.543 19.58">
                                <path id="Icon_feather-phone" data-name="Icon feather-phone"
                                    d="M21.709,16.909v2.8a1.865,1.865,0,0,1-2.032,1.865,18.45,18.45,0,0,1-8.045-2.862,18.179,18.179,0,0,1-5.594-5.594A18.449,18.449,0,0,1,3.175,5.032,1.865,1.865,0,0,1,5.031,3h2.8A1.865,1.865,0,0,1,9.692,4.6a11.97,11.97,0,0,0,.653,2.62,1.865,1.865,0,0,1-.42,1.967L8.741,10.374a14.916,14.916,0,0,0,5.594,5.594l1.184-1.184a1.865,1.865,0,0,1,1.967-.42,11.97,11.97,0,0,0,2.62.653,1.865,1.865,0,0,1,1.6,1.892Z"
                                    transform="translate(-2.667 -2.5)" fill="none" stroke="#fff" stroke-linecap="round"
                                    stroke-linejoin="round" stroke-width="1" />
                            </svg>