<svg width="20" height="20" viewBox="0 0 20 20" fill="none" xmlns="http://www.w3.org/2000/svg">
<path fill-rule="evenodd" clip-rule="evenodd" d="M10.0003 0.666016C10.7367 0.666016 11.3337 1.26297 11.3337 1.99935V8.66602H18.0003C18.7367 8.66602 19.3337 9.26297 19.3337 9.99935C19.3337 10.7357 18.7367 11.3327 18.0003 11.3327H11.3337V17.9993C11.3337 18.7357 10.7367 19.3327 10.0003 19.3327C9.26395 19.3327 8.66699 18.7357 8.66699 17.9993V11.3327H2.00033C1.26395 11.3327 0.666992 10.7357 0.666992 9.99935C0.666992 9.26297 1.26395 8.66602 2.00033 8.66602H8.66699V1.99935C8.66699 1.26297 9.26395 0.666016 10.0003 0.666016Z" fill="#948668"/>
</svg>
