<?xml version="1.0" encoding="UTF-8"?>
<svg id="Layer_1" data-name="Layer 1" xmlns="http://www.w3.org/2000/svg" xmlns:xlink="http://www.w3.org/1999/xlink" viewBox="0 0 505 163">
  <defs>
    <style>
      .cls-1 {
        clip-path: url(#clippath);
      }

      .cls-2 {
        fill: none;
      }

      .cls-2, .cls-3 {
        stroke-width: 0px;
      }

      .cls-3 {
        fill: #2c2c2c;
      }
    </style>
    <clipPath id="clippath">
      <rect class="cls-2" x="110.75" y="32.2" width="283.5" height="98.61"/>
    </clipPath>
  </defs>
  <g class="cls-1">
    <g>
      <path class="cls-3" d="M230.95,45.34h2.87v-10.48h3.97v-2.67h-10.81v2.67h3.97v10.48Z"/>
      <path class="cls-3" d="M247.7,40.07h5.29v5.28h2.87v-13.15h-2.87v5.2h-5.29v-5.2h-2.87v13.15h2.87v-5.28Z"/>
      <path class="cls-3" d="M273.77,42.77h-7.08v-2.76h6.15v-2.57h-6.15v-2.67h6.99v-2.57h-9.84v13.15h9.93v-2.57Z"/>
      <path class="cls-3" d="M116.8,130.8h268.26l1.07-1.86H115.73l1.06,1.86Z"/>
      <path class="cls-3" d="M110.75,118.48v-16.65c0-2.98.29-5.36.88-7.13.58-1.77,1.33-3,2.22-3.69v-1.04c-.9-.76-1.63-2.13-2.22-4.11-.58-1.98-.88-4.56-.88-7.75v-13.74h45.53v5l-37.17-.21v18.73h32.93v5.1h-32.93v20.08l38.72.1-.83,5.31h-46.25Z"/>
      <path class="cls-3" d="M224.5,64.36h53.26l-.84,4.89h-22.6v49.23h-7.74v-49.22h-22.81l.73-4.89h0Z"/>
      <path class="cls-3" d="M365.54,118.89c-3.24,0-6.14-.4-8.73-1.2-2.58-.8-5.18-2.48-7.79-5.05l-.93-1.04c-2.2-.56-4.15-1.89-5.83-4.01-1.69-2.12-2.99-4.63-3.92-7.55-.93-2.91-1.39-5.79-1.39-8.64,0-4.23,1.05-8.34,3.15-12.33,2.1-3.99,4.76-6.61,8-7.86l.93-1.04c2.61-2.5,5.23-4.16,7.85-4.99,2.61-.83,5.51-1.25,8.67-1.25s5.95.42,8.57,1.25c2.61.83,5.23,2.5,7.85,4.99l1.03,1.04c2.2.9,4.15,2.48,5.83,4.74,1.68,2.25,2.99,4.77,3.92,7.55.93,2.78,1.43,5.41,1.5,7.91.07,2.71-.38,5.52-1.34,8.43-.96,2.91-2.32,5.45-4.08,7.6-1.75,2.15-3.7,3.54-5.83,4.16l-.93,1.04c-2.62,2.5-5.25,4.16-7.9,5-2.65.83-5.52,1.25-8.62,1.25h0ZM365.54,114c4.68,0,8.46-.88,11.36-2.65,2.89-1.77,4.99-4.32,6.3-7.65,1.31-3.33,1.93-7.42,1.86-12.28-.07-4.72-.69-8.74-1.86-12.07-1.17-3.33-3.2-5.91-6.09-7.75-2.89-1.84-6.75-2.76-11.56-2.76-4.41,0-8.05.94-10.94,2.81-2.89,1.87-5.02,4.49-6.4,7.86-1.38,3.37-2.07,7.34-2.07,11.92,0,7.43,1.5,13.06,4.49,16.91,2.99,3.85,7.97,5.74,14.92,5.67h0Z"/>
      <path class="cls-3" d="M173.93,64.36l9.7,10.09c2.61,2.71,4.49,5.01,5.63,6.92,1.14,1.91,1.7,3.69,1.7,5.36h.83l6.4-7.28,13.01-15.09h8.16l-23.23,27.06,26.02,27.06h-10.22l-12.6-12.8c-2.55-2.57-4.32-4.56-5.32-5.98-1-1.42-1.5-2.79-1.5-4.11h-.93l-19.82,22.89h-7.74l23.85-27.37-24.47-26.75h10.53,0Z"/>
      <path class="cls-3" d="M284.4,101.09c0-3.05.16-5.08.47-6.09.31-1,.91-1.86,1.81-2.55v-1.04c-.89-.76-1.5-1.7-1.81-2.81-.31-1.11-.47-3.3-.47-6.56v-17.69h28.7c4.06,0,7.48.71,10.27,2.13,2.79,1.42,4.85,3.23,6.2,5.41,1.34,2.19,2.01,4.49,2.01,6.92,0,2.91-.84,5.6-2.53,8.06-1.69,2.47-5.04,4.08-10.07,4.84v1.35c2.06.28,3.85,1.34,5.37,3.17,1.51,1.84,2.92,4.32,4.23,7.44.76,1.87,2.03,4.61,3.82,8.22,1.79,3.47,3.13,5.66,4.03,6.56h-8.57c-.35-.34-.72-.83-1.14-1.46-.41-.62-.83-1.35-1.24-2.19-.76-1.46-2.2-4.68-4.34-9.68-1.45-3.4-3.15-6-5.11-7.81-1.96-1.81-4.18-2.71-6.66-2.71h-17.24v23.83h-7.75v-17.38h0ZM292.14,68.83v21.54h17.86c5.02,0,8.48-.94,10.38-2.81s2.84-4.51,2.84-7.91c0-3.19-1-5.79-2.99-7.8-2-2.01-4.51-3.02-7.53-3.02h-20.55Z"/>
    </g>
  </g>
</svg>