<?xml version="1.0" encoding="UTF-8"?>
<svg id="Layer_1" data-name="Layer 1" xmlns="http://www.w3.org/2000/svg" xmlns:xlink="http://www.w3.org/1999/xlink" viewBox="0 0 505 163">
  <defs>
    <style>
      .cls-1 {
        clip-path: url(#clippath);
      }

      .cls-2 {
        fill: none;
      }

      .cls-2, .cls-3 {
        stroke-width: 0px;
      }

      .cls-3 {
        fill: #2c2c2c;
      }
    </style>
    <clipPath id="clippath">
      <rect class="cls-2" x="49.11" y="48.59" width="406.78" height="65.83"/>
    </clipPath>
  </defs>
  <g class="cls-1">
    <g>
      <path class="cls-3" d="M80.94,113.45h-.1v.19h.1v-.19Z"/>
      <path class="cls-3" d="M127.02,107.31l-18.95-57.89h-6.53v.19c1.2,0,2.12,1.1,2.85,2.48l-15.79,50.9h1.2l2.45-7.87h26.22l3.95,12.2c1.1,3.4-1.01,6.15-3.41,6.15v.19h14.17v-.19c-2.39,0-5.34-3.4-6.16-6.15ZM92.61,93.91l12.32-40.37c.19.28.28.64.37.92l12.79,39.45h-25.48Z"/>
      <path class="cls-3" d="M61.34,49.42l.09.19c-2.3,0-4.05,3.67-4.05,6.06v56.89h32.37c5.61,0,10.58-6.06,11.68-9.08h.19l-2.3,10.09v.09h-50.21v-.19c2.3,0,3.95-3.67,3.95-6.15v-51.66c0-2.38-1.65-6.06-3.95-6.06v-.19h12.23Z"/>
      <path class="cls-3" d="M159.87,113.82v-16.33h.37c.92,11.19,8.37,15.78,15.64,15.78s15-4.58,15-13.49c0-16.79-29.25-22.02-29.25-38.63,0-7.98,6.98-12.48,13.89-12.48,7.36,0,10.3,4.13,12.32,4.13,1.57,0,2.12-1.47,2.12-3.21h.37v15.14h-.46c-.46-10-7.64-14.77-14.25-14.77-5.62,0-11.22,2.93-11.22,9.18,0,14.59,30.08,20.01,30.08,38.72,0,10.92-8.93,16.61-18.95,16.61-7.36,0-11.13-3.85-13.24-3.85-1.48,0-2.02,1.47-2.02,3.21h-.39Z"/>
      <path class="cls-3" d="M205.19,81.44c0-16.42,8.37-32.85,25.11-32.85s25.02,16.42,25.02,32.85-8.28,32.75-25.11,32.75-25.02-16.42-25.02-32.75ZM227.64,49.87c-27.32,2.29-22.26,65.32,5.24,63.03,27.32-2.2,22.26-65.23-5.24-63.03Z"/>
      <path class="cls-3" d="M266.96,113.46c2.3,0,3.95-3.67,3.95-6.15v-51.66c0-2.38-1.65-6.06-3.95-6.06v-.19h12.23l.09.19c-2.3,0-4.05,3.67-4.05,6.06v51.66c0,3.02,2.12,6.15,4.05,6.15l-.09.19h-12.23v-.19Z"/>
      <path class="cls-3" d="M293.13,113.46c2.3,0,3.95-3.67,3.95-6.15v-51.66c0-2.38-1.65-6.06-3.95-6.06v-.19h33.95l1.66,10.19h-.19c-.73-2.2-4.78-9.08-10.39-9.08h-16.74v30.46h10.95c4.7,0,7.27-2.76,7.27-7.25h.28v15.6h-.28c0-4.5-2.58-7.25-7.27-7.25h-10.95v30.46h17.38c5.61,0,11.31-5.78,12.6-9.08h.19l-3.03,10.09v.09h-35.41v-.19.02Z"/>
      <path class="cls-3" d="M421.3,113.82v-16.33h.37c.92,11.19,8.37,15.78,15.64,15.78s15-4.58,15-13.49c0-16.79-29.25-22.02-29.25-38.63,0-7.98,6.99-12.48,13.89-12.48,7.36,0,10.3,4.13,12.32,4.13,1.56,0,2.12-1.47,2.12-3.21h.36v15.14h-.46c-.46-10-7.64-14.77-14.25-14.77-5.62,0-11.22,2.93-11.22,9.18,0,14.59,30.09,20.01,30.09,38.72,0,10.92-8.93,16.61-18.95,16.61-7.36,0-11.14-3.85-13.25-3.85-1.48,0-2.02,1.47-2.02,3.21h-.39Z"/>
      <path class="cls-3" d="M385.73,72.86c-2.54,4.14-5.07,7.72-7.6,10.75-2.53,3.02-4.74,4.64-6.63,4.87-1.1.13-1.87-.13-2.34-.78-.47-.64-.6-1.6-.39-2.86.16-.96.51-2.04,1.04-3.24l.06-.15c-1.24,2.2-2.62,4.09-4.16,5.69-1.53,1.59-3.13,2.45-4.78,2.57-1.36.09-2.29-.33-2.8-1.24-.5-.91-.63-2.14-.38-3.72.32-1.9,1.1-3.96,2.37-6.2,1.27-2.23,2.78-4.17,4.57-5.79,1.77-1.62,3.57-2.54,5.37-2.75.39-.05.78-.06,1.18-.03,1.04.1,1.7.56,2.02,1.39.31.83.33,1.82.05,2.96,1.91-3.84,3.72-7.44,5.46-10.78,1.72-3.34,2.81-5.34,3.26-6,.5-.73,1.03-1.22,1.59-1.45.57-.24,1.25-.4,2.04-.49-.83,1.12-4.07,7.25-9.72,18.42l-.04.04-.06.15c-1.27,2.37-2.44,4.73-3.52,7.08-.97,2.06-1.54,3.68-1.73,4.84-.24,1.45.18,2.11,1.25,2,1.71-.2,3.74-1.72,6.07-4.56,2.34-2.85,4.87-6.41,7.62-10.69l.21-.02h0ZM366.46,86.13c1.66-2.07,3.15-4.39,4.47-6.94.31-.64.5-1.05.57-1.23l1.21-2.46c.23-.58.4-1.17.5-1.76.18-1.09.07-1.96-.33-2.61-.39-.65-1.16-.92-2.31-.78-1.39.16-2.86,1.13-4.42,2.89-1.56,1.77-2.92,3.83-4.1,6.22-1.18,2.38-1.91,4.48-2.21,6.27-.19,1.14-.17,2.02.07,2.66.23.64.69.94,1.4.91,1.77-.04,3.49-1.1,5.15-3.17v-.02Z"/>
      <path class="cls-3" d="M402.29,70.92c-2.41,4.17-5.01,7.8-7.81,10.9-2.79,3.09-5.46,4.79-7.98,5.08-.35.04-.6.06-.78.06-1.54-.04-2.61-.64-3.19-1.8-.6-1.17-.73-2.66-.44-4.48.32-1.92,1.05-3.89,2.2-5.91,1.15-2.02,2.56-3.71,4.24-5.08,1.68-1.36,3.46-2.08,5.32-2.16,1.04-.05,1.77.22,2.2.81.43.59.55,1.39.39,2.4-.18,1.09-.65,2.22-1.44,3.43-.78,1.21-1.76,2.25-2.95,3.13-1.19.89-2.45,1.41-3.76,1.56-1.14.13-2.22-.03-3.24-.49v-.07c-.47,1.23-.79,2.42-.98,3.56-.23,1.4-.19,2.54.13,3.39.32.86.93,1.3,1.84,1.34.16,0,.41,0,.74-.05,2.35-.28,4.85-1.89,7.51-4.85,2.66-2.95,5.25-6.54,7.78-10.75l.21-.02h.01ZM390.63,69.4c-1.1.99-2.13,2.25-3.09,3.8-.96,1.55-1.76,3.17-2.4,4.86,1.09.42,2.2.57,3.32.44,1.28-.15,2.47-.63,3.58-1.45,1.11-.82,2.02-1.8,2.73-2.92.71-1.14,1.16-2.22,1.33-3.25.16-.96.05-1.73-.33-2.3-.38-.57-1.03-.83-1.95-.77-1.02.07-2.08.6-3.18,1.58h-.01Z"/>
      <path class="cls-3" d="M353.36,104.83c2.87-6.48,10.7-8.89,17.23-9.34,8.04-.55,16.41.97,24.11-2.13,3.44-1.38,6.49-3.67,8.34-6.91.23-.4.42-.88.42-1.34,0-.33-.17-.45-.37-.11-3.6,6.31-11.53,8.2-18.28,8.47-8.01.32-16.46-1.01-23.93,2.66-3.33,1.63-6.15,4.19-7.67,7.62-.15.34-.44.95-.31,1.32.13.36.37-.02.46-.24Z"/>
    </g>
  </g>
</svg>