<?xml version="1.0" encoding="UTF-8"?>
<svg id="Layer_1" data-name="Layer 1" xmlns="http://www.w3.org/2000/svg" xmlns:xlink="http://www.w3.org/1999/xlink" viewBox="0 0 505 163">
  <defs>
    <style>
      .cls-1 {
        clip-path: url(#clippath);
      }

      .cls-2 {
        fill: none;
      }

      .cls-2, .cls-3 {
        stroke-width: 0px;
      }

      .cls-3 {
        fill: #2c2c2c;
        fill-rule: evenodd;
      }
    </style>
    <clipPath id="clippath">
      <rect class="cls-2" x="149.9" y="51.86" width="205.2" height="59.27"/>
    </clipPath>
  </defs>
  <g class="cls-1">
    <path class="cls-3" d="M168.42,76.92h0c1,.44,1.96.87,2.86,1.3h.01c7.98,3.87,15.72,9.74,13.66,19.76-1.65,8.12-9.77,13.02-17.7,13.14-7.11.11-11.98-2.99-15.6-5.3h0c-.33-.21-.64-.41-.95-.6l-.81-.64,2.81-6.28c5.24,5.36,9.65,9.69,14.81,10.06,7.27.53,12.68-6.16,11.72-13.64-.78-6.14-6.89-8.53-12.43-10.7-1.45-.57-2.87-1.13-4.14-1.73-6.31-3-12.39-8.29-12.39-15.82,0-8.32,7.14-14.59,17.07-14.59,5.32,0,10.8,2.16,15.27,4.93.24.15,2.42,1.74,2.42,1.79l-2.81,6.28c-.71-.66-1.36-1.36-2.01-2.06h0c-.29-.32-.59-.64-.89-.95-1.47-1.53-3.06-2.94-4.74-4.22-4.09-3.11-9.78-4.25-14.2-1.04-3.76,2.73-5.4,8.04-3.19,12.24,2.14,4.08,6.95,6.2,11.23,8.09ZM282.33,51.86h-5.44v58.7h5.44v-58.7ZM352.23,51.91v48.39l-36.44-48.36h-6.49v1.13l2.65,3.48v54.02h2.86v-50.09l38.57,50.09h1.73l-.02-58.66h-2.86ZM252.22,67.3c-.25,9.98-9.95,15.4-18.09,17.1l20.06,26.16h-6.82l-19.74-25.77h-5.9v25.73h-5.45v-58.63h13.18c9.04,0,15.52,1.95,19.25,5.78,2.43,2.48,3.61,5.73,3.51,9.63ZM221.72,53.77h7.73c10.55,0,16.85,5.22,16.85,13.98,0,1.41-.18,2.83-.56,4.19-.36,1.27-.89,2.49-1.6,3.61-.69,1.08-1.55,2.06-2.52,2.89-1,.85-2.14,1.55-3.33,2.08-1.28.57-2.64.95-4.03,1.15-1.47.22-2.96.21-4.44.2h0c-.29,0-.57,0-.86,0h-7.24v-28.11ZM207.3,51.91h-7.06l-8.28,15.39h4.55l10.78-14.26v-1.13Z"/>
  </g>
</svg>