<?xml version="1.0" encoding="UTF-8"?>
<svg id="Layer_1" data-name="Layer 1" xmlns="http://www.w3.org/2000/svg" xmlns:xlink="http://www.w3.org/1999/xlink" viewBox="0 0 505 163">
  <defs>
    <style>
      .cls-1 {
        clip-path: url(#clippath);
      }

      .cls-2 {
        fill: none;
      }

      .cls-2, .cls-3 {
        stroke-width: 0px;
      }

      .cls-3 {
        fill: #2c2c2c;
      }
    </style>
    <clipPath id="clippath">
      <rect class="cls-2" x="41.71" y="56.75" width="421.58" height="49.51"/>
    </clipPath>
  </defs>
  <g class="cls-1">
    <g>
      <path class="cls-3" d="M382.55,60.86h-4.22c-.32,0-1.52-.01-2.69-.12-.73-.06-1.31-.12-1.64-.16-.15.01-.28.04-.42.12l-.48.64c1.79.34,2.25,1.68,2.43,2.08.14.33.15,2.07.14,2.96.09,1.19.06,18.57.06,18.57,0,2.92-.24,5.91-1.07,7.56-.84,1.65-2.12,3.11-3.93,4.07-1.82.96-3.73,1.48-6.95,1.52-2.37.03-4.68-.74-6.47-1.74-1.78-1.01-2.93-2.38-3.71-3.93-.79-1.56-1.01-4.75-1.01-7.38v-22.49c0-.93-.75-1.68-1.68-1.68h-4.07c-.19,0-.71,0-1.35-.03-.04,0-.09,0-.13,0-.07,0-.13,0-.21-.01-1.21-.06-2.2-.17-2.7-.23-.2.03-.38.1-.6.28l-.36.48c1.79.34,2.25,1.68,2.43,2.08.1.23.13,1.13.14,1.95h0v20.92c0,3.7.8,8.07,2.48,10.86,1.68,2.79,3.41,4.42,6.41,5.86,2.99,1.45,6.86,2.48,10.93,2.43,7.22-.1,11.73-1.74,15.27-4.93,3.55-3.18,5.11-7.42,5.11-13.33v-24.63c0-.93-.75-1.68-1.68-1.68h-.02Z"/>
      <path class="cls-3" d="M250.12,59.19c-1.79,1.75-3.57,1.66-3.57,1.66h-1.64c-.15,0-.31.01-.48.01h-36.87s-1.11-.02-1.45,1.46c-.42,1.8-1.95,7.12-1.95,7.12,0,0,.15.09.4.15,1.94-2.17,3.85-2.08,3.85-2.08h14.71v33.27h0v.33s.18,2.43-2,4.37l.8.43,9.71-5.73v-32.69s15.46,0,15.46,0c0,0,1.14.09,1.54-1.44.51-1.93,1.83-6.62,1.83-6.62,0,0-.13-.14-.35-.26h0Z"/>
      <path class="cls-3" d="M265.22,63.42c.08.19.14,1.53.14,1.5l-.03,36.28s.2,2.44-1.96,4.41l.64.35,9.7-5.83v-37.62c0-.93-.75-1.68-1.68-1.68l-4.03.02c-.33,0-1.57-.01-2.75-.12-1.11-.09-1.86-.19-1.86-.19l-.61.8c1.79.34,2.25,1.68,2.43,2.08Z"/>
      <path class="cls-3" d="M115.18,60.86h-7.76c-.85-.02-1.65-.06-2.33-.11-.03,0-.07,0-.1-.01-.05,0-.11-.01-.16-.01-.02,0-.04,0-.06,0-.99-.09-1.64-.18-1.68-.18h-.01l-.68.91c.43.17,1.24.53,2.04,1.16,1.03.81.23,2.81.23,2.81l-1.44,3.42h-.02l-12.55,30.43-.05.06c-.62,1.33-2.39,4.57-4.73,4.68l.67.85h10.72l4.26-10.71h19.56l3.25,7.61.04.1v.05c.21.74-.18,1.26-.18,1.26-.28.4-.97.89-1.34.99l.52.71h11.25l-19.44-44.01h0ZM104.08,87.7l6.77-17.42,7.43,17.42h-14.21,0Z"/>
      <path class="cls-3" d="M326.65,85.35c-1.71-2.05-4.1-3.44-7.17-4.14v-.31c2.01-.9,3.56-2.16,4.62-3.7,1.06-1.53,1.59-3.31,1.59-5.32,0-3.15-1.27-5.77-3.81-7.88-2.54-2.1-6.34-3.14-10.37-3.14h-13.67s-.07-.01-.11-.02c-2.18-.05-3.96-.31-3.96-.31l-.6.8c1.82.34,2.39,1.68,2.56,2.08.18.4.14,4.27.14,5.14,0,.13,0,.2,0,.2v32.13s0,.23-.05.52c-.02.27-.05.48-.09.57-.18.41-.69,1.88-2.74,2.12l.41.76h20.9c9.65.2,15.06-5.64,14.9-12.31-.06-2.75-.85-5.15-2.56-7.2h0ZM304.39,67.51h6.11c1.95,0,3.53.5,4.73,1.5,1.2,1,1.79,2.35,1.79,4.05,0,1.91-.65,3.4-1.95,4.48-1.3,1.07-3.08,1.6-5.33,1.6h-5.35v-11.62ZM318.25,96.59c-1.47,1.08-3.64,1.62-6.52,1.62h-7.34v-12.44h8c2.46,0,4.42.54,5.88,1.62,1.46,1.08,2.19,2.56,2.19,4.43,0,2.1-.73,3.69-2.21,4.77h0Z"/>
      <path class="cls-3" d="M189.71,60.79h-4.03c-.33,0-1.59-.01-2.79-.13-.69-.06-1.22-.12-1.52-.16-.13,0-.25.04-.36.09l-.51.68c1.79.34,2.25,1.68,2.43,2.08.18.41.14,4.86.13,5.27.05.99.03,22.88.03,22.88l-26.15-30.71h-4.93c-2.42-.02-4.5-.32-4.5-.32l-.61.8c1.79.34,2.25,1.68,2.43,2.08.17.38.14,3.27.14,3.28v34.61s.18,2.43-2,4.37l.69.38,9.62-5.68v-26.74l23.28,27.61s.94,1.1,1.03,2.01c.14,1.51-1.07,2.39-1.07,2.39l-.39.23.67.44,10.1-5.96v-37.82c0-.93-.75-1.68-1.68-1.68h0Z"/>
      <path class="cls-3" d="M420.37,85.37h.02c5.1-.38,9.51-3.69,10.81-5.55,1.29-1.86,1.94-4.05,1.94-6.56,0-3.69-1.31-6.68-3.92-8.97-2.61-2.3-6-3.44-10.14-3.44h-7.29l-5.9.02h-1.17c-.36,0-1.82-.01-3.11-.16-.2-.02-.38-.05-.53-.07l-.54.71c1.82.34,2.39,1.68,2.57,2.08.2.45.13,5.31.13,5.31h-.03v.03-.02,32.58s0,.02-.01.02c0,.48-.09,2.56-2,4.27l.58.32,9.96-5.89v-13.78s.03,0,.03,0v.09c4.98.88,11.83,20.77,28.95,18.63-7.69.15-14.28-16.85-20.37-19.61h.01ZM411.79,82.9v-3.28h-.04v-12.26h.04v-1.53c.25.08,1.17.32,2.17.35,2.67.05,5.19.49,6.68,1.77,1.48,1.27,2.22,3.19,2.22,5.76s-.69,4.46-2.24,5.82c-2.52,2.23-8.15,3.24-8.83,3.36h0Z"/>
      <path class="cls-3" d="M71.2,84.07c-1.7-2.21-4.46-4.21-8.29-6.02-4.48-2.05-7.06-3.3-7.73-3.75-2.39-1.49-3.58-3.12-3.58-4.88,0-1.47.64-2.65,1.93-3.53,1.28-.88,3.06-1.32,5.33-1.32,2.95,0,6.25.92,9.88,2.74.45.18.95.29,1.45.35h0c.13.02.25.03.38.04.05,0,.1.01.15.02.69.05,1.33.04,1.72.02l-4.95-10.99c-.56,1.5-2.98,1.36-4.42,1.15-1.48-.25-2.98-.38-4.5-.38-4.79,0-8.65,1.16-11.57,3.49-2.92,2.33-4.38,5.46-4.38,9.38,0,2.94.91,5.53,2.73,7.76,1.82,2.23,4.57,4.18,8.25,5.85,3.1,1.49,5.63,2.77,7.59,3.85,2.36,1.36,3.55,3.12,3.55,5.29,0,1.58-.68,2.85-2.04,3.81-1.36.96-3.14,1.44-5.35,1.44-2.47,0-5.03-.67-7.68-1.96-3.4-1.93-4.15-5.04-4.15-5.04h-.54l-3.28,8.28s1.28,1.35,4.48,3.02c1.53.77,2.97,1.36,4.3,1.77,2.15.65,4.72.99,7.71.99,4.59,0,8.33-1.23,11.22-3.7,2.89-2.46,4.33-5.7,4.33-9.71,0-3.1-.85-5.75-2.54-7.96h-.01Z"/>
      <path class="cls-3" d="M454.79,63.42c.09.19.14,1.53.14,1.5l-.03,36.28s.2,2.44-1.96,4.41l.64.35,9.7-5.83v-37.62c0-.93-.75-1.68-1.68-1.68l-4.03.02c-.33,0-1.57-.01-2.75-.12-1.11-.09-1.86-.19-1.86-.19l-.61.8c1.79.34,2.26,1.68,2.43,2.08Z"/>
    </g>
  </g>
</svg>