<?xml version="1.0" encoding="UTF-8"?>
<svg id="Layer_1" data-name="Layer 1" xmlns="http://www.w3.org/2000/svg" xmlns:xlink="http://www.w3.org/1999/xlink" viewBox="0 0 505 163">
  <defs>
    <style>
      .cls-1 {
        clip-path: url(#clippath);
      }

      .cls-2 {
        fill: none;
      }

      .cls-2, .cls-3 {
        stroke-width: 0px;
      }

      .cls-3 {
        fill: #2c2c2c;
      }
    </style>
    <clipPath id="clippath">
      <rect class="cls-2" x="84.66" y="49.31" width="335.69" height="64.38"/>
    </clipPath>
  </defs>
  <g class="cls-1">
    <g>
      <path class="cls-3" d="M182.38,52.1v-1.76h-37.57v62.47h37.57v-1.76h-29.06v-30.45h22.01v-1.76h-22.01v-26.75h29.06Z"/>
      <path class="cls-3" d="M243.44,50.34v49.85l-35.25-49.85h-8.52v62.47h8.52v-49.85l35.25,49.85h8.52v-62.47h-8.52Z"/>
      <path class="cls-3" d="M265.73,50.34v1.76h16.29v60.72h8.52v-60.72h16.29v-1.76h-41.1Z"/>
      <path class="cls-3" d="M365.48,69.96c0-12.14-8.54-19.62-18.05-19.62h-26.83v62.47h8.52v-23.23h11.65l15.85,23.23h8.86l-15.94-23.32c8.63-1.06,15.94-8.27,15.94-19.53h0ZM329.11,87.82v-35.72h11.56c8.45,0,16.29,6.6,16.29,17.86s-7.84,17.86-16.29,17.86h-11.56Z"/>
      <path class="cls-3" d="M420.34,52.1v-1.76h-37.57v62.47h37.57v-1.76h-29.06v-30.45h22.01v-1.76h-22.01v-26.75h29.06Z"/>
      <path class="cls-3" d="M109.64,79.55c-7.66-3.43-15.15-6.33-15.15-15.92,0-5.12,3.26-9.13,8.02-11.08,2.03-.83,4.38-.81,6.34.16,4.12,2.03,6.9,5.98,7.51,10.4h8.52c-.88-7.34-7.05-13.53-15.41-13.62h-7.22c-9.02.13-16.26,5.97-16.26,14.15,0,10.91,8.63,14.17,16.73,17.78,8.28,3.7,16.29,8.27,16.29,17.6,0,5.61-3.33,9.87-8.88,11.8-2.26.78-4.78.8-7.03-.02-5.09-1.85-9.29-5.99-9.92-12.66h-8.51c.88,10.47,9.77,15.58,18.22,15.58h6.75c10.74,0,17.88-5.98,17.88-14.69,0-10.3-8.45-15.22-17.88-19.45h0Z"/>
    </g>
  </g>
</svg>