<?xml version="1.0" encoding="UTF-8"?>
<svg id="Layer_1" data-name="Layer 1" xmlns="http://www.w3.org/2000/svg" xmlns:xlink="http://www.w3.org/1999/xlink" viewBox="0 0 505 163">
  <defs>
    <style>
      .cls-1 {
        clip-path: url(#clippath);
      }

      .cls-2 {
        fill: none;
      }

      .cls-2, .cls-3 {
        stroke-width: 0px;
      }

      .cls-3 {
        fill: #2c2c2c;
      }
    </style>
    <clipPath id="clippath">
      <rect class="cls-2" x="97.16" y="51.55" width="310.68" height="59.9"/>
    </clipPath>
  </defs>
  <g class="cls-1">
    <g>
      <path class="cls-3" d="M188.87,77.79h-28.66v-26.24h-5.64v57.4h5.64v-28.24h28.66v28.24h5.63v-57.4h-5.63v26.24Z"/>
      <path class="cls-3" d="M118.28,78.19c-4.71-2.35-11.31-4.42-13.91-9.49-2.18-4.25-.56-9.62,3.14-12.37,4.36-3.24,9.97-2.09,14.01,1.06,1.66,1.3,3.23,2.72,4.68,4.27.96,1.02,1.84,2.08,2.86,3.04l2.78-6.36c0-.06-2.15-1.65-2.39-1.81-4.41-2.8-9.82-4.98-15.07-4.98-9.8,0-16.85,6.33-16.85,14.75,0,7.62,6,12.96,12.23,15.99,6.04,2.94,15.38,4.74,16.36,12.57.94,7.56-4.39,14.32-11.56,13.78-5.1-.38-9.44-4.76-14.62-10.17l-2.78,6.36.8.65c3.67,2.35,8.67,6.09,16.33,5.97,7.82-.11,15.84-5.08,17.48-13.28,2.02-10.12-5.61-16.05-13.49-19.96v-.02Z"/>
      <path class="cls-3" d="M238.89,51.55h-1.25l-23.18,57.4h3.17l9.13-22.27h20.38l8.89,22.27h5.85l-22.99-57.4ZM227.94,83.75l9-22.66,9.04,22.66h-18.05Z"/>
      <path class="cls-3" d="M338.7,51.55l-15.29,50.88-15.41-50.88h-5.98l3.34,11.14-11.18,39.75-16.33-50.88h-5.98l18.27,57.4h5.98l-.42-1.34,11.25-39.73,12.43,41.07h5.97l-.41-1.34,16.81-56.07h-3.05Z"/>
      <path class="cls-3" d="M406.64,51.55h-2.99v47.36l-37.72-47.33h-6.72v1.11l2.74,3.41v52.86h2.96v-49.02l39.94,49.02h1.78v-57.4Z"/>
    </g>
  </g>
</svg>