<?xml version="1.0" encoding="UTF-8"?>
<svg id="Layer_1" data-name="Layer 1" xmlns="http://www.w3.org/2000/svg" xmlns:xlink="http://www.w3.org/1999/xlink" viewBox="0 0 505 163">
  <defs>
    <style>
      .cls-1 {
        clip-path: url(#clippath);
      }

      .cls-2 {
        fill: none;
      }

      .cls-2, .cls-3 {
        stroke-width: 0px;
      }

      .cls-3 {
        fill: #2c2c2c;
      }
    </style>
    <clipPath id="clippath">
      <rect class="cls-2" x="64.55" y="54.7" width="375.9" height="53.59"/>
    </clipPath>
  </defs>
  <g class="cls-1">
    <g>
      <path class="cls-3" d="M123.13,54.7h-4.93v53.14h4.93v-53.14Z"/>
      <path class="cls-3" d="M315.56,54.75h-4.93v53.1h4.93v-53.1Z"/>
      <path class="cls-3" d="M83.93,78.57c-4.33-2.1-10.38-3.96-12.77-8.51-2.01-3.8-.51-8.61,2.88-11.08,4-2.91,9.15-1.87,12.86.95,1.53,1.16,2.97,2.44,4.3,3.82.88.91,1.69,1.86,2.62,2.73l2.54-5.69c0-.05-1.96-1.48-2.19-1.62-4.04-2.51-9.01-4.46-13.83-4.46-9,0-15.47,5.68-15.47,13.2,0,6.83,5.51,11.61,11.22,14.32,5.55,2.63,14.12,4.23,15.02,11.26.87,6.77-4.02,12.84-10.62,12.34-4.68-.34-8.67-4.26-13.42-9.11l-2.54,5.7.73.59c3.37,2.1,7.96,5.45,14.99,5.34,7.18-.1,14.54-4.55,16.04-11.89,1.85-9.07-5.15-14.38-12.37-17.88h0Z"/>
      <path class="cls-3" d="M440.42,54.75h-2.59v43.81l-33-43.79h-5.87v1.02l2.39,3.16v48.9h2.59v-45.34l34.94,45.34h1.58l-.03-53.1Z"/>
      <path class="cls-3" d="M375.65,54.75v43.81l-33.01-43.79h-5.87v1.02l2.39,3.16v48.9h2.59v-45.34l34.93,45.34h1.58l-.03-53.1h-2.58Z"/>
      <path class="cls-3" d="M285.46,54.75v43.81l-33.01-43.79h-5.87v1.02l2.39,3.16v48.9h2.59v-45.34l34.94,45.34h1.58l-.03-53.1h-2.58Z"/>
      <path class="cls-3" d="M212.68,54.78h-1.13l-11.71,30.03-1.58,4.08c-2.36,6.09-4.81,12.4-7.22,18.12l-.36.85h2.86l.16-.39c3.4-8.47,5.26-12.83,6.54-16.24l1.54-3.96h18.36l8.01,20.59h5.27l-20.58-52.69-.16-.39ZM202.8,84.55l8.11-20.95,8.14,20.95h-16.26.01Z"/>
      <path class="cls-3" d="M162.39,84.16c7.37-1.54,16.18-6.44,16.41-15.49.09-3.53-.98-6.47-3.18-8.73-3.4-3.46-9.26-5.22-17.45-5.22h-11.94v53.08h4.93v-23.29h5.34l17.88,23.33h6.18l-18.17-23.69h.01ZM151.15,56.43h7.01c9.55,0,15.26,4.73,15.26,12.66,0,1.28-.16,2.56-.5,3.79-.32,1.15-.8,2.26-1.45,3.27-.63.98-1.4,1.87-2.29,2.62-.91.77-1.93,1.4-3.02,1.88-1.16.51-2.39.86-3.65,1.05-1.59.24-3.2.18-4.81.18h-6.55v-25.45Z"/>
    </g>
  </g>
</svg>