<?xml version="1.0" encoding="UTF-8"?>
<svg id="Layer_1" data-name="Layer 1" xmlns="http://www.w3.org/2000/svg" xmlns:xlink="http://www.w3.org/1999/xlink" viewBox="0 0 505 163">
  <defs>
    <style>
      .cls-1 {
        clip-path: url(#clippath);
      }

      .cls-2 {
        fill: none;
      }

      .cls-2, .cls-3 {
        stroke-width: 0px;
      }

      .cls-3 {
        fill: #2c2c2c;
      }
    </style>
    <clipPath id="clippath">
      <rect class="cls-2" x="80.44" y="48.79" width="344.13" height="65.42"/>
    </clipPath>
  </defs>
  <g class="cls-1">
    <g>
      <path class="cls-3" d="M103.46,78.68c-5.15-2.51-12.33-4.72-15.17-10.15-2.38-4.54-.62-10.28,3.43-13.22,4.76-3.47,10.88-2.23,15.29,1.13,1.82,1.39,3.52,2.91,5.11,4.55,1.05,1.09,2.02,2.22,3.12,3.25l3.03-6.79c0-.06-2.34-1.77-2.61-1.94-4.81-3-10.71-5.32-16.44-5.32-10.69,0-18.37,6.77-18.37,15.76,0,8.15,6.54,13.86,13.34,17.09,6.59,3.14,16.78,5.05,17.84,13.44,1.03,8.08-4.79,15.31-12.61,14.74-5.56-.42-10.31-5.09-15.94-10.88l-3.03,6.79.87.69c3.99,2.52,9.47,6.51,17.81,6.38,8.53-.13,17.27-5.43,19.05-14.19,2.2-10.82-6.11-17.16-14.71-21.34h0Z"/>
      <path class="cls-3" d="M409.06,78.68c-5.16-2.51-12.37-4.72-15.21-10.15-2.38-4.54-.62-10.28,3.44-13.22,4.77-3.47,10.9-2.23,15.33,1.13,1.82,1.39,3.53,2.91,5.12,4.55,1.05,1.09,2.02,2.22,3.13,3.25l3.03-6.79c0-.06-2.34-1.77-2.62-1.94-4.82-3-10.74-5.32-16.48-5.32-10.72,0-18.42,6.77-18.42,15.76,0,8.15,6.56,13.86,13.38,17.09,6.61,3.14,16.83,5.05,17.89,13.44,1.03,8.08-4.8,15.31-12.64,14.74-5.58-.42-10.34-5.09-15.99-10.88l-3.03,6.79.87.69c4,2.52,9.49,6.51,17.86,6.38,8.56-.13,17.32-5.43,19.1-14.19,2.2-10.82-6.13-17.16-14.74-21.34h-.01Z"/>
      <path class="cls-3" d="M180.28,61.88v51.63h6.49v-60.34l1.26-1.67v-1.21h-6.99l-20.53,27.29-20.53-27.29h-6.99v1.21l2.86,3.77v58.24h3.07v-54.02l21.61,28.12,3.51-4.61,16.25-21.13Z"/>
      <path class="cls-3" d="M275.73,114.21h6.49v-61.36h19.29v-2.56h-45.07v2.56h19.29v61.36Z"/>
      <path class="cls-3" d="M349.57,77.32h-31.49v-27.03h-6.49v63.92h6.49v-34.33h31.49v34.33h6.49v-63.92h-6.49v27.03Z"/>
      <path class="cls-3" d="M225.61,80.01l-20.66-29.73h-6.24l.02,1.19,22.05,32.37-.09,30.36h6.5v-31.97l-.03-.04,22.3-31.91h-3.11l-20.75,29.73Z"/>
      <path class="cls-3" d="M376.6,48.79h-5.49l-1.39,15.46h3.55l3.33-15.46Z"/>
    </g>
  </g>
</svg>