<?xml version="1.0" encoding="UTF-8"?>
<svg id="Layer_1" data-name="Layer 1" xmlns="http://www.w3.org/2000/svg" xmlns:xlink="http://www.w3.org/1999/xlink" viewBox="0 0 505 163">
  <defs>
    <style>
      .cls-1 {
        clip-path: url(#clippath);
      }

      .cls-2 {
        fill: none;
      }

      .cls-2, .cls-3 {
        stroke-width: 0px;
      }

      .cls-3 {
        fill: #2c2c2c;
      }
    </style>
    <clipPath id="clippath">
      <rect class="cls-2" x="151.25" y="30.38" width="202.51" height="102.24"/>
    </clipPath>
  </defs>
  <g class="cls-1">
    <g>
      <path class="cls-3" d="M303.1,118.74l4.29-4.4v-46.41l-4.29-4.4h31.61v6.82l-5.89-2.7h-15.36v19.65h12.42l4.39-2.01v8.14l-4.39-2.01h-12.42v23.2h16.71l5.88-2.7v6.81h-32.96Z"/>
      <path class="cls-3" d="M168.39,118.74l4.29-4.4v-46.41l-4.29-4.4h31.61v6.82l-5.88-2.7h-15.36v19.65h12.42l4.39-2.01v8.14l-4.39-2.01h-12.42v23.2h16.71l5.88-2.7v6.81h-32.96Z"/>
      <path class="cls-3" d="M239.99,92.49l-11.2-8.13c-4.01-2.9-6.06-6.64-6.06-9.44,0-5.8,4.94-7.85,7.93-7.85.91,0,1.66.22,2.3.4l3.69,1.66,3.8,1.73,3.73-5.57-10.92-2.06c-.74-.18-1.21-.28-2.61-.28-9.61,0-13.99,8.23-13.99,13.56,0,4.2,2.14,8.98,7.09,12.62l11.29,8.13c3.08,2.15,3.92,5.33,3.92,8.04,0,4.67-2.89,9.73-9.14,9.73-1.49,0-2.8-.28-3.83-.74l-6.89-3.16-3.09,5.59,10.54,2.06s1.78.38,3.27.38c6.62,0,15.3-5.61,15.3-16.08,0-5.42-2.52-8.79-5.13-10.56h0Z"/>
      <path class="cls-3" d="M283.44,92.49l-11.2-8.13c-4.01-2.9-6.06-6.64-6.06-9.44,0-5.8,4.94-7.85,7.93-7.85.91,0,1.66.22,2.3.4l3.69,1.66,3.8,1.73,3.73-5.57-10.92-2.06c-.74-.18-1.21-.28-2.61-.28-9.61,0-13.99,8.23-13.99,13.56,0,4.2,2.14,8.98,7.09,12.62l11.29,8.13c3.08,2.15,3.92,5.33,3.92,8.04,0,4.67-2.89,9.73-9.14,9.73-1.49,0-2.8-.28-3.83-.74l-6.89-3.16-3.09,5.59,10.54,2.06s1.78.38,3.27.38c6.62,0,15.3-5.61,15.3-16.08,0-5.42-2.52-8.79-5.13-10.56h0Z"/>
      <path class="cls-3" d="M237.5,44.47h-5.64v-.58c.29-.1.59-.2.89-.28.3-.08.63-.15.97-.2v-11.97h-3.07l-1.06,2.87h-.5c-.04-.27-.07-.57-.1-.92-.02-.34-.05-.69-.07-1.05-.02-.36-.04-.7-.05-1.05-.01-.34-.02-.65-.02-.92h11.66c0,.27,0,.57-.02.9-.01.33-.03.68-.05,1.03-.02.36-.04.7-.06,1.05-.02.34-.05.65-.09.94h-.53l-1.06-2.87h-3.05v11.97c.35.07.67.14.97.2s.59.16.87.28v.58Z"/>
      <path class="cls-3" d="M250.56,44.47h-5.08v-.58c.53-.22,1.08-.38,1.65-.48v-11.94c-.63-.09-1.18-.26-1.65-.5v-.58h5.08v.58c-.23.12-.47.22-.72.3-.25.08-.52.15-.78.2v5.25h6.3v-5.25c-.28-.07-.55-.14-.79-.22-.25-.08-.49-.17-.71-.28v-.58h5.08v.58c-.24.14-.5.24-.79.31-.29.07-.57.14-.85.19v11.93c.31.06.6.12.88.2s.53.17.76.28v.58h-5.08v-.58c.48-.22.98-.38,1.5-.48v-5.63h-6.3v5.63c.27.06.53.12.78.2.25.08.5.17.72.28v.58h0Z"/>
      <path class="cls-3" d="M273.63,30.38c-.01.54-.04,1.08-.07,1.62-.03.54-.08,1.09-.15,1.64h-.52l-.82-2.21h-4.37v5.33h3.27l.78-1.49h.5c.08,1.33.08,2.68,0,4.06h-.5l-.78-1.53h-3.27v5.61h4.62l.98-2.41h.5c.09.56.16,1.13.2,1.71.04.58.05,1.16.02,1.75h-9.9v-.58c.47-.22,1.02-.38,1.65-.48v-11.94c-.27-.06-.54-.12-.82-.21-.28-.09-.55-.18-.82-.29v-.58h9.51-.01Z"/>
      <path class="cls-3" d="M151.25,51.67h202.51v-2.43l-101.25,1.48-101.25-1.72v2.67Z"/>
      <path class="cls-3" d="M353.75,130.42h-202.51v2.43l101.25-1.48,101.25,1.72v-2.68Z"/>
    </g>
  </g>
</svg>