<svg xmlns="http://www.w3.org/2000/svg" width="33.229" height="33.237" viewBox="0 0 33.229 33.237">
  <g id="notification_4309096" transform="translate(0 0.01)">
    <path id="Path_61592" data-name="Path 61592" d="M32.117,11.08a1.111,1.111,0,0,0-1.111,1.111v7.746a5.535,5.535,0,0,1-5.535,5.535H18.826a1.1,1.1,0,0,0-.654.218s-4.455,3.261-7.632,5.192a1.111,1.111,0,0,1-1.672-.945V26.583a1.111,1.111,0,0,0-1.111-1.111,5.535,5.535,0,0,1-5.545-5.535V7.757A5.535,5.535,0,0,1,7.757,2.212H21.048a1.111,1.111,0,0,0,0-2.212H7.757A7.746,7.746,0,0,0,0,7.757v12.18A7.736,7.736,0,0,0,6.646,27.6v2.305a3.323,3.323,0,0,0,5.036,2.845c2.824-1.693,6.459-4.3,7.508-5.067h6.282a7.746,7.746,0,0,0,7.757-7.746V12.18a1.111,1.111,0,0,0-1.111-1.1Z" transform="translate(0 0)" fill="#fff"/>
    <path id="Path_61593" data-name="Path 61593" d="M10.67,12.8a1.07,1.07,0,1,0,0,2.13H21.33a1.07,1.07,0,1,0,0-2.13Z" transform="translate(0.614 0.527)" fill="#fff"/>
    <path id="Path_61594" data-name="Path 61594" d="M27.73,8.53a4.27,4.27,0,1,0-4.27-4.27,4.27,4.27,0,0,0,4.27,4.27Zm0-6.4A2.13,2.13,0,1,1,25.6,4.27a2.13,2.13,0,0,1,2.13-2.14Z" transform="translate(1.229)" fill="#fff"/>
  </g>
</svg>
