<svg xmlns="http://www.w3.org/2000/svg" width="36.894" height="35.189" viewBox="0 0 36.894 35.189">
  <g id="Group_170" data-name="Group 170" transform="translate(0.401 0.4)">
    <path id="Path_126" data-name="Path 126" d="M36.861,15.014c0-8.075-8.1-14.644-18.046-14.644S.769,6.939.769,15.014c0,7.239,6.421,13.3,15.093,14.448.587.127,1.387.387,1.59.89a3.722,3.722,0,0,1,.059,1.632s-.211,1.274-.257,1.544c-.079.457-.362,1.784,1.563.972s10.392-6.12,14.178-10.477c2.615-2.869,3.868-5.778,3.868-9.01Z" transform="translate(-0.77 -0.369)" fill="none" stroke="#000" stroke-width="0.8"/>
    <path id="Path_127" data-name="Path 127" d="M18.8,14.431H13.735a.344.344,0,0,1-.345-.345V6.211a.344.344,0,0,1,.345-.345H18.8a.347.347,0,0,1,.345.345v1.28a.344.344,0,0,1-.345.345H15.359V9.165H18.8a.347.347,0,0,1,.345.345v1.28a.344.344,0,0,1-.345.345H15.359v1.329H18.8a.347.347,0,0,1,.345.345v1.28a.344.344,0,0,1-.345.345Z" transform="translate(11.284 4.882)" fill="none" stroke="#000" stroke-width="0.5"/>
    <path id="Path_128" data-name="Path 128" d="M9.213,14.433a.345.345,0,0,0,.345-.345v-1.28a.347.347,0,0,0-.345-.345H5.767V6.211a.346.346,0,0,0-.345-.345H4.142a.344.344,0,0,0-.345.345v7.877a.344.344,0,0,0,.345.345H9.213Z" transform="translate(2.121 4.882)" fill="none" stroke="#000" stroke-width="0.5"/>
    <path id="Path_129" data-name="Path 129" d="M8.922,5.865H7.643a.345.345,0,0,0-.345.345v7.875a.345.345,0,0,0,.345.345H8.922a.345.345,0,0,0,.345-.345V6.211A.345.345,0,0,0,8.922,5.865Z" transform="translate(5.466 4.882)" fill="none" stroke="#000" stroke-width="0.5"/>
    <path id="Path_130" data-name="Path 130" d="M16.069,5.865h-1.28a.344.344,0,0,0-.345.345v4.677l-3.6-4.866-.027-.036,0,0-.02-.022-.007-.005-.019-.015-.01-.007a.069.069,0,0,0-.019-.012l-.01-.007-.019-.01L10.7,5.9a.1.1,0,0,0-.02-.008s-.007,0-.012,0l-.02-.007-.012,0a.089.089,0,0,1-.02-.005.047.047,0,0,1-.015,0l-.019,0h-1.3a.345.345,0,0,0-.345.345v7.875a.345.345,0,0,0,.345.345h1.28a.344.344,0,0,0,.345-.345V9.414l3.608,4.873a.331.331,0,0,0,.09.086s0,0,0,0l.022.014.01.005c.005,0,.012,0,.017.008a.067.067,0,0,0,.017.007s.007,0,.01,0l.024.007h.005a.391.391,0,0,0,.09.012h1.272a.345.345,0,0,0,.345-.345V6.212a.345.345,0,0,0-.345-.345Z" transform="translate(7.027 4.882)" fill="none" stroke="#000" stroke-width="0.5"/>
  </g>
</svg>
