<svg xmlns="http://www.w3.org/2000/svg" width="31.14" height="31.672" viewBox="0 0 31.14 31.672">
  <g id="Group_1593" data-name="Group 1593" transform="translate(-117 2.046)">
    <path id="Path_61586" data-name="Path 61586" d="M181.676,139.855a2.412,2.412,0,0,0-1.723.7c-1.026,1-2.141,2.114-2.65,2.623a7.826,7.826,0,0,0,0,11.071l11.327,11.323a7.826,7.826,0,0,0,11.064,0l.01-.012c.54-.52,1.627-1.623,2.611-2.648a2.233,2.233,0,0,0-.569-3.643l-5.629-3.1a.45.45,0,0,0-.52.073l-2.6,2.6a.819.819,0,0,1-1.157,0l-7.806-7.805a.819.819,0,0,1,0-1.157l2.6-2.6a.448.448,0,0,0,.073-.52v0l-3.1-5.628a2.423,2.423,0,0,0-1.677-1.253,2.492,2.492,0,0,0-.25-.022Z" transform="translate(-58.009 -138.236)" fill="#fff"/>
    <path id="Path_61588" data-name="Path 61588" d="M320.647,183.173a1.437,1.437,0,0,0-1.544,1.322h0a1.437,1.437,0,0,0,1.322,1.544h0a4.559,4.559,0,0,1,4.2,4.2,1.437,1.437,0,0,0,1.541,1.325h0a1.437,1.437,0,0,0,1.322-1.543h0a7.434,7.434,0,0,0-6.84-6.842" transform="translate(-185.333 -179.234)" fill="#fff"/>
    <path id="Path_61589" data-name="Path 61589" d="M324.372,134.744a1.437,1.437,0,0,0-.219,2.866,10.561,10.561,0,0,1,9.717,9.719,1.437,1.437,0,0,0,1.544,1.322h0a1.437,1.437,0,0,0,1.322-1.543h0a13.437,13.437,0,0,0-12.364-12.363" transform="translate(-188.602 -136.785)" fill="#fff"/>
  </g>
</svg>
