<svg id="Group_1584" data-name="Group 1584" xmlns="http://www.w3.org/2000/svg" xmlns:xlink="http://www.w3.org/1999/xlink" width="25.633" height="30.137" viewBox="0 0 25.633 30.137">
  <defs>
    <clipPath id="clip-path">
      <rect id="Rectangle_1403" data-name="Rectangle 1403" width="25.633" height="30.137" fill="none"/>
    </clipPath>
  </defs>
  <rect id="Rectangle_1404" data-name="Rectangle 1404" width="19" height="28" transform="translate(0.816 1.068)" fill="#f2f2f2"/>
  <g id="Group_1582" data-name="Group 1582">
    <g id="Group_1581" data-name="Group 1581" clip-path="url(#clip-path)">
      <path id="Path_61583" data-name="Path 61583" d="M114.307,17.813l.494.819.721,1.194a1.37,1.37,0,0,0,1.155.685h2.352a1.37,1.37,0,0,0,1.154-.685l1.217-2.013Z" transform="translate(-107.579 -16.764)" fill="#3f9dee"/>
      <path id="Path_61584" data-name="Path 61584" d="M2.74,0A2.749,2.749,0,0,0,0,2.74V27.4a2.749,2.749,0,0,0,2.74,2.74H17.808a2.749,2.749,0,0,0,2.74-2.74v-1.37a.685.685,0,0,0-1.37,0V27.4a1.352,1.352,0,0,1-1.37,1.37H2.74A1.352,1.352,0,0,1,1.37,27.4V2.74A1.352,1.352,0,0,1,2.74,1.37H6.484l.791,1.793a1.627,1.627,0,0,0,1.506.947h2.986a1.627,1.627,0,0,0,1.506-.947l.791-1.793h3.744a1.352,1.352,0,0,1,1.37,1.37v2.74a.685.685,0,1,0,1.37,0V2.74A2.749,2.749,0,0,0,17.808,0ZM7.981,1.37h4.586L12.02,2.609a.284.284,0,0,1-.253.131H8.781a.284.284,0,0,1-.253-.131Z"/>
      <path id="Path_61585" data-name="Path 61585" d="M111.228,430.546a.685.685,0,0,0,0,1.37h6.164a.685.685,0,1,0,0-1.37Z" transform="translate(-104.036 -405.203)"/>
      <path id="Path_61586" data-name="Path 61586" d="M178.647,139.854a1.316,1.316,0,0,0-.94.381c-.56.544-1.168,1.153-1.446,1.431a4.271,4.271,0,0,0,0,6.041l6.18,6.179a4.27,4.27,0,0,0,6.037,0l.005-.007c.295-.284.888-.886,1.425-1.445a1.219,1.219,0,0,0-.31-1.988l-3.072-1.694a.245.245,0,0,0-.284.04l-1.417,1.417a.447.447,0,0,1-.631,0l-4.259-4.259a.447.447,0,0,1,0-.631l1.417-1.417a.245.245,0,0,0,.04-.284h0L179.7,140.55a1.322,1.322,0,0,0-.915-.684,1.366,1.366,0,0,0-.136-.012Z" transform="translate(-164.707 -131.621)" fill="#3f9dee"/>
      <path id="Path_61587" data-name="Path 61587" d="M178.649,139.854a1.316,1.316,0,0,0-.94.381c-.56.544-1.168,1.153-1.446,1.431a4.271,4.271,0,0,0,0,6.041l6.18,6.179a4.267,4.267,0,0,0,4.827.845,4.246,4.246,0,0,1-2.345-1.193l-6.18-6.179a4.271,4.271,0,0,1,0-6.041c.171-.171.556-.55.888-.879a1.3,1.3,0,0,0-.847-.574,1.353,1.353,0,0,0-.136-.012" transform="translate(-164.709 -131.621)" fill="#3f7dee"/>
      <path id="Path_61588" data-name="Path 61588" d="M319.837,183.171a.685.685,0,0,0-.736.63h0a.685.685,0,0,0,.63.736h0a2.173,2.173,0,0,1,2,2,.685.685,0,0,0,.734.632h0a.685.685,0,0,0,.63-.736h0a3.544,3.544,0,0,0-3.26-3.261" transform="translate(-300.316 -172.387)"/>
      <path id="Path_61589" data-name="Path 61589" d="M323.564,134.742a.685.685,0,0,0-.1,1.366,5.034,5.034,0,0,1,4.631,4.633.685.685,0,0,0,.736.63h0a.685.685,0,0,0,.63-.736h0a6.4,6.4,0,0,0-5.893-5.893" transform="translate(-303.825 -126.809)"/>
    </g>
  </g>
</svg>
