<svg id="logo_the_esse" data-name="logo the esse" xmlns="http://www.w3.org/2000/svg" xmlns:xlink="http://www.w3.org/1999/xlink" width="147.501" height="92.918" viewBox="0 0 147.501 92.918">
  <defs>
    <clipPath id="clip-path">
      <rect id="Rectangle_1735" data-name="Rectangle 1735" width="147.501" height="92.918" fill="#fff"/>
    </clipPath>
  </defs>
  <g id="Group_2518" data-name="Group 2518" clip-path="url(#clip-path)">
    <path id="Path_70637" data-name="Path 70637" d="M117.405,198.7h-3.173v-.414a5.433,5.433,0,0,1,1.029-.343l3.616-9.419h.414l3.616,9.419q.286.057.565.129a1.991,1.991,0,0,1,.522.214v.414h-3.688v-.414a6.139,6.139,0,0,1,.586-.2q.3-.086.586-.143l-.967-2.616h-3.4l-.938,2.616a5.2,5.2,0,0,1,1.229.343Zm-.007-4.116h2.872l-1.123-3.03-.27-1.229h-.028l-.356,1.257Z" transform="translate(-64.2 -105.952)" fill="#fff"/>
    <path id="Path_70638" data-name="Path 70638" d="M140.544,197.713a1.457,1.457,0,0,0,.443.293,2.088,2.088,0,0,0,.815.121,2.937,2.937,0,0,0,.858-.121,2.039,2.039,0,0,0,.693-.357,1.756,1.756,0,0,0,.465-.572,1.663,1.663,0,0,0,.171-.765,1.372,1.372,0,0,0-.35-.958,3.569,3.569,0,0,0-.872-.686q-.522-.3-1.136-.586a6.243,6.243,0,0,1-1.136-.679,3.571,3.571,0,0,1-.872-.943,2.514,2.514,0,0,1-.35-1.379,2.568,2.568,0,0,1,.215-1.072,2.232,2.232,0,0,1,.607-.8,2.8,2.8,0,0,1,.936-.507,3.866,3.866,0,0,1,1.215-.179,8.667,8.667,0,0,1,1.593.135,4.67,4.67,0,0,1,1.137.336,5.139,5.139,0,0,1-.036.565c-.024.214-.053.436-.085.664s-.069.45-.107.664-.076.4-.114.565h-.372l-.571-1.958a2.574,2.574,0,0,0-.656-.171,5.987,5.987,0,0,0-.844-.057,1.689,1.689,0,0,0-1.183.407,1.46,1.46,0,0,0-.447,1.137,1.438,1.438,0,0,0,.352.986,3.613,3.613,0,0,0,.884.715q.531.315,1.144.608a7.323,7.323,0,0,1,1.143.678,3.573,3.573,0,0,1,.885.915,2.322,2.322,0,0,1,.352,1.315,2.839,2.839,0,0,1-.236,1.172,2.471,2.471,0,0,1-.678.9,3.1,3.1,0,0,1-1.086.572,4.9,4.9,0,0,1-1.458.2,5.622,5.622,0,0,1-1.615-.214,3.1,3.1,0,0,1-1.015-.458q.014-.242.049-.586c.025-.228.053-.464.087-.707s.069-.479.107-.707.076-.424.115-.586h.371Z" transform="translate(-78.249 -105.953)" fill="#fff"/>
    <path id="Path_70639" data-name="Path 70639" d="M157.373,193.7a6.667,6.667,0,0,1,.307-2.066,4.879,4.879,0,0,1,.886-1.644,4,4,0,0,1,1.423-1.079,4.952,4.952,0,0,1,3.831,0,4,4,0,0,1,1.422,1.079,4.872,4.872,0,0,1,.886,1.644,7.091,7.091,0,0,1,0,4.131,4.868,4.868,0,0,1-.886,1.644,3.991,3.991,0,0,1-1.422,1.079,4.946,4.946,0,0,1-3.831,0,4,4,0,0,1-1.423-1.079,4.875,4.875,0,0,1-.886-1.644,6.665,6.665,0,0,1-.307-2.066m1.529,0a7.414,7.414,0,0,0,.193,1.723,4.531,4.531,0,0,0,.579,1.407,2.937,2.937,0,0,0,.972.951,2.649,2.649,0,0,0,1.387.35,2.292,2.292,0,0,0,1.272-.35,2.761,2.761,0,0,0,.893-.951,4.883,4.883,0,0,0,.529-1.407,7.961,7.961,0,0,0,.179-1.723,7.693,7.693,0,0,0-.186-1.723,4.414,4.414,0,0,0-.572-1.407,2.945,2.945,0,0,0-.972-.951,2.655,2.655,0,0,0-1.387-.35,2.438,2.438,0,0,0-1.336.35,2.677,2.677,0,0,0-.894.951,4.6,4.6,0,0,0-.5,1.407,9.024,9.024,0,0,0-.157,1.723" transform="translate(-88.446 -105.953)" fill="#fff"/>
    <path id="Path_70640" data-name="Path 70640" d="M186.6,188.914h3.159v.414a4.984,4.984,0,0,1-.558.215c-.181.057-.357.105-.529.143l-2.873,3.8q.357.472.822,1.058t.972,1.208q.507.622,1.043,1.258t1.051,1.208l.686.343v.357h-1.787l-.486-.343q-.844-.986-1.679-2.13t-1.622-2.316h-.7v4.031a3.476,3.476,0,0,1,1.072.343v.415h-3.616V198.5a6.4,6.4,0,0,1,1.172-.343v-8.476a3.572,3.572,0,0,1-1.172-.357v-.414h3.616v.414q-.229.1-.5.193t-.572.164v3.959l.858-.2,2.673-3.759q-.286-.072-.543-.157a3.691,3.691,0,0,1-.486-.2Z" transform="translate(-102.036 -106.172)" fill="#fff"/>
    <path id="Path_70641" data-name="Path 70641" d="M210.227,188.914q-.014.572-.05,1.151t-.107,1.165H209.7l-.586-1.572H206v3.788h2.33l.558-1.058h.357a24.235,24.235,0,0,1,0,2.887h-.357l-.558-1.086H206v3.987h3.288l.7-1.715h.357q.1.6.143,1.215a10.88,10.88,0,0,1,.014,1.243h-7.047V198.5a4.753,4.753,0,0,1,1.172-.343v-8.476a5.674,5.674,0,0,1-.586-.15q-.3-.093-.586-.208v-.414Z" transform="translate(-114.343 -106.172)" fill="#fff"/>
    <path id="Path_70642" data-name="Path 70642" d="M252.525,95.15l3.128-3.2V58.224l-3.128-3.2h23.022v4.956l-4.284-1.964h-11.19V72.3h9.044l3.2-1.458v5.915l-3.2-1.464h-9.044V92.158h12.173l4.284-1.96V95.15Z" transform="translate(-141.923 -30.927)" fill="#fff"/>
    <path id="Path_70643" data-name="Path 70643" d="M28.525,95.15l3.128-3.2V58.224l-3.128-3.2H51.547v4.956L47.263,58.02H36.074V72.3h9.044l3.2-1.458v5.915l-3.2-1.464H36.074V92.158H48.246L52.53,90.2V95.15Z" transform="translate(-16.032 -30.927)" fill="#fff"/>
    <path id="Path_70644" data-name="Path 70644" d="M125.182,75.5l-8.154-5.912c-2.922-2.107-4.417-4.825-4.417-6.863a5.648,5.648,0,0,1,5.776-5.708,5.834,5.834,0,0,1,1.677.29l2.69,1.207,2.771,1.259,2.715-4.047-7.951-1.495a6.4,6.4,0,0,0-1.9-.2,10.1,10.1,0,0,0-10.193,9.853c0,3.058,1.563,6.524,5.165,9.174l8.222,5.912a6.809,6.809,0,0,1,2.854,5.844c0,3.4-2.106,7.067-6.659,7.067a6.781,6.781,0,0,1-2.786-.544l-5.019-2.3L107.718,93.1,115.4,94.6a13.723,13.723,0,0,0,2.379.272A11.509,11.509,0,0,0,128.92,83.181a8.869,8.869,0,0,0-3.737-7.679" transform="translate(-60.539 -30.365)" fill="#fff"/>
    <path id="Path_70645" data-name="Path 70645" d="M197.432,75.5l-8.154-5.912c-2.922-2.107-4.417-4.825-4.417-6.863a5.648,5.648,0,0,1,5.776-5.708,5.837,5.837,0,0,1,1.677.29L195,58.516l2.772,1.259,2.715-4.047-7.951-1.495a6.4,6.4,0,0,0-1.9-.2,10.1,10.1,0,0,0-10.193,9.853c0,3.058,1.563,6.524,5.165,9.174l8.222,5.912a6.809,6.809,0,0,1,2.854,5.844c0,3.4-2.106,7.067-6.659,7.067a6.781,6.781,0,0,1-2.786-.544l-5.019-2.3L179.968,93.1l7.679,1.495a13.715,13.715,0,0,0,2.378.272A11.509,11.509,0,0,0,201.17,83.181a8.869,8.869,0,0,0-3.737-7.679" transform="translate(-101.145 -30.365)" fill="#fff"/>
    <path id="Path_70646" data-name="Path 70646" d="M135.34,10.235h-4.109V9.811q.321-.117.65-.2a6.9,6.9,0,0,1,.71-.146V.759h-2.237l-.775,2.091h-.365q-.044-.292-.073-.665t-.052-.76q-.022-.387-.036-.76T129.038,0h8.5q0,.293-.015.658t-.037.753q-.023.388-.045.76t-.067.68h-.385L136.217.759H134v8.7q.38.074.709.146a3.627,3.627,0,0,1,.636.2Z" transform="translate(-72.521 0.001)" fill="#fff"/>
    <path id="Path_70647" data-name="Path 70647" d="M160.414,10.235h-3.7V9.811a6.512,6.512,0,0,1,1.2-.351V.789a3.845,3.845,0,0,1-1.2-.366V0h3.7V.423a3.149,3.149,0,0,1-.526.219,5.489,5.489,0,0,1-.57.146V4.6h4.591V.789q-.307-.073-.577-.161a4.372,4.372,0,0,1-.519-.2V0h3.7V.423a2.409,2.409,0,0,1-.578.227c-.21.053-.417.1-.622.139V9.459a6.385,6.385,0,0,1,.643.146,3.706,3.706,0,0,1,.556.2v.424h-3.7V9.811a5.364,5.364,0,0,1,1.1-.351V5.366h-4.591V9.459a5.6,5.6,0,0,1,.57.146,4.267,4.267,0,0,1,.526.2Z" transform="translate(-88.076 0.001)" fill="#fff"/>
    <path id="Path_70648" data-name="Path 70648" d="M194.627,0q-.014.585-.051,1.177t-.109,1.191h-.38l-.6-1.608H190.3V4.635h2.384l.57-1.082h.366a24.8,24.8,0,0,1,0,2.954h-.366l-.57-1.112H190.3v4.08h3.363l.717-1.755h.365q.1.614.146,1.243a10.986,10.986,0,0,1,.014,1.272H187.7V9.811a4.872,4.872,0,0,1,1.2-.351V.79a5.95,5.95,0,0,1-.6-.154q-.307-.095-.6-.212V0Z" transform="translate(-105.488)" fill="#fff"/>
    <path id="Path_70649" data-name="Path 70649" d="M0,32.831H147.5V31.067L73.751,32.139,0,30.886Z" transform="translate(0 -17.358)" fill="#fff"/>
    <path id="Path_70650" data-name="Path 70650" d="M147.5,166.01H0v1.765L73.75,166.7l73.751,1.253Z" transform="translate(0 -93.3)" fill="#fff"/>
  </g>
</svg>
