<svg xmlns="http://www.w3.org/2000/svg" xmlns:xlink="http://www.w3.org/1999/xlink" width="224.288" height="81.656" viewBox="0 0 224.288 81.656">
  <defs>
    <clipPath id="clip-path">
      <rect id="Rectangle_1215" data-name="Rectangle 1215" width="224.288" height="81.656" fill="#fff"/>
    </clipPath>
  </defs>
  <g id="Group_1529" data-name="Group 1529" transform="translate(0 0)">
    <rect id="Rectangle_1213" data-name="Rectangle 1213" width="4.318" height="46.531" transform="translate(131.491 0)" fill="#fff"/>
    <path id="Path_54265" data-name="Path 54265" d="M222.445.04V38.4L193.541.066h-5.15V.955l2.1,2.769V46.537h2.266V6.836l30.6,39.7h1.375L224.712.04Z" transform="translate(-31.185 -0.007)" fill="#fff"/>
    <g id="Group_1528" data-name="Group 1528" transform="translate(0 0)">
      <g id="Group_1527" data-name="Group 1527" clip-path="url(#clip-path)">
        <path id="Path_54266" data-name="Path 54266" d="M53.811,20.9c-3.791-1.838-9.092-3.466-11.184-7.445a7.791,7.791,0,0,1,2.527-9.7c3.5-2.542,8.015-1.639,11.264.829a32.625,32.625,0,0,1,3.764,3.345c.772.8,1.486,1.625,2.3,2.387l2.228-4.983c0-.045-1.724-1.3-1.923-1.421A23.961,23.961,0,0,0,50.674,0C42.8,0,37.131,4.97,37.131,11.563c0,5.978,4.822,10.167,9.832,12.541,4.858,2.3,12.365,3.711,13.15,9.856.759,5.931-3.526,11.235-9.3,10.811-4.1-.3-7.594-3.733-11.753-7.976l-2.228,4.984.641.512c2.945,1.844,6.975,4.771,13.126,4.681,6.289-.093,12.732-3.98,14.047-10.417,1.623-7.942-4.509-12.59-10.84-15.659" transform="translate(-6.098 0)" fill="#fff"/>
        <path id="Path_54267" data-name="Path 54267" d="M114.094,25.8c6.455-1.348,14.165-5.639,14.365-13.561A10.137,10.137,0,0,0,125.673,4.6C122.713,1.56,117.575.021,110.4.021H99.94V46.494h4.32V26.1l4.677.01L124.6,46.535h5.407ZM104.26,1.512H110.4c8.37,0,13.367,4.143,13.367,11.082a12.358,12.358,0,0,1-.441,3.32,10.654,10.654,0,0,1-1.27,2.861,10.217,10.217,0,0,1-2.005,2.3,10.864,10.864,0,0,1-2.647,1.648,12.545,12.545,0,0,1-3.2.914,28.1,28.1,0,0,1-4.207.158q-2.512,0-5.023-.005h-.715Z" transform="translate(-16.543 -0.004)" fill="#fff"/>
        <path id="Path_54268" data-name="Path 54268" d="M83.4.039h5.606v.89l-8.552,11.31H76.838Z" transform="translate(-12.719 -0.007)" fill="#fff"/>
        <path id="Path_54269" data-name="Path 54269" d="M1.519,95.3H0V83.614H3.905a4.569,4.569,0,0,1,1.686.284,3.466,3.466,0,0,1,1.193.759,3.027,3.027,0,0,1,.709,1.118,3.916,3.916,0,0,1,.234,1.343A3.555,3.555,0,0,1,7.46,88.5a3.259,3.259,0,0,1-.793,1.135,3.751,3.751,0,0,1-1.31.776,5.279,5.279,0,0,1-1.8.285,7.446,7.446,0,0,1-1.1-.076,8.232,8.232,0,0,1-.935-.192Zm0-5.558a2.982,2.982,0,0,0,.784.175c.289.028.607.042.951.042a3.009,3.009,0,0,0,1.285-.25,2.657,2.657,0,0,0,.885-.651,2.515,2.515,0,0,0,.509-.893,3.16,3.16,0,0,0,.159-.976,3.088,3.088,0,0,0-.175-1.01,2.8,2.8,0,0,0-.526-.918,2.61,2.61,0,0,0-.885-.659,2.893,2.893,0,0,0-1.235-.25H1.519Z" transform="translate(0 -13.841)" fill="#fff"/>
        <path id="Path_54270" data-name="Path 54270" d="M18.248,83.614a4.8,4.8,0,0,1,1.853.309,3.313,3.313,0,0,1,1.16.768,2.694,2.694,0,0,1,.6.994,3.17,3.17,0,0,1,.175.984,3.44,3.44,0,0,1-.165,1.026,2.921,2.921,0,0,1-1.465,1.727,3.385,3.385,0,0,1-1.374.35v.067l.167.083a1.217,1.217,0,0,1,.342.25,4.15,4.15,0,0,1,.367.485q.225.333.607.942t1.075,1.627q.232.35.447.626a2.976,2.976,0,0,0,.45.467,1.65,1.65,0,0,0,1.118.392,1.6,1.6,0,0,0,.167-.008,1.679,1.679,0,0,0,.167-.025V95.3a1.316,1.316,0,0,1-.467.167,4.358,4.358,0,0,1-.6.033,2.447,2.447,0,0,1-.858-.134A2.279,2.279,0,0,1,21.376,95a2.991,2.991,0,0,1-.521-.542q-.24-.317-.487-.7l-1.323-1.953q-.3-.467-.52-.784a2.37,2.37,0,0,0-.469-.517,1.53,1.53,0,0,0-.561-.284,3.085,3.085,0,0,0-.779-.083h-.737V95.3H14.46V83.614Zm-2.27,5.775H17.7a2.8,2.8,0,0,0,1.181-.234,2.72,2.72,0,0,0,.864-.609,2.563,2.563,0,0,0,.527-.834,2.521,2.521,0,0,0,.176-.91,2.479,2.479,0,0,0-.193-.985,2.165,2.165,0,0,0-.561-.776,2.69,2.69,0,0,0-.88-.509,3.367,3.367,0,0,0-1.147-.184H15.979Z" transform="translate(-2.394 -13.841)" fill="#fff"/>
        <path id="Path_54271" data-name="Path 54271" d="M31.456,91.859,29.988,95.3H29.22l4.94-11.683h.834L40.435,95.3H38.816l-1.6-3.438Zm2.787-6.375h-.067l-2.4,5.624h5.09Z" transform="translate(-4.837 -13.841)" fill="#fff"/>
        <path id="Path_54272" data-name="Path 54272" d="M58.041,83.574V95.457h-.083l-9.263-9.129h-.067v8.929H47.86V83.374h.083L57.206,92.5h.067V83.574Z" transform="translate(-7.922 -13.801)" fill="#fff"/>
        <path id="Path_54273" data-name="Path 54273" d="M77.241,83.574V95.457h-.083l-9.263-9.129h-.067v8.929H67.06V83.374h.083L76.406,92.5h.067V83.574Z" transform="translate(-11.101 -13.801)" fill="#fff"/>
        <path id="Path_54274" data-name="Path 54274" d="M85.219,87.4a5.83,5.83,0,0,1,1.127-1.961A6.054,6.054,0,0,1,88.3,83.958a6.353,6.353,0,0,1,2.837-.585,6.61,6.61,0,0,1,2.9.592,6.408,6.408,0,0,1,2.028,1.494,6.045,6.045,0,0,1,1.185,1.962,5.886,5.886,0,0,1,.384,1.994,5.242,5.242,0,0,1-.175,1.3,6.7,6.7,0,0,1-.517,1.361,6.174,6.174,0,0,1-.876,1.285,5.945,5.945,0,0,1-1.26,1.076,6.441,6.441,0,0,1-1.636.744,6.986,6.986,0,0,1-2.028.275,6.284,6.284,0,0,1-2.837-.592,6.118,6.118,0,0,1-1.953-1.494,5.948,5.948,0,0,1-1.127-1.962,6.215,6.215,0,0,1-.359-1.994,6.34,6.34,0,0,1,.359-2.019m1.636,4.164a5.181,5.181,0,0,0,.985,1.677,4.459,4.459,0,0,0,1.477,1.092,4.365,4.365,0,0,0,1.853.393,4.494,4.494,0,0,0,1.861-.393,4.751,4.751,0,0,0,1.535-1.092,5.206,5.206,0,0,0,1.043-1.677,6.185,6.185,0,0,0,0-4.29,5.193,5.193,0,0,0-1.043-1.676A4.766,4.766,0,0,0,93.029,84.5a4.507,4.507,0,0,0-1.861-.393,4.377,4.377,0,0,0-1.853.393,4.473,4.473,0,0,0-1.477,1.093,5.169,5.169,0,0,0-.985,1.676,6.591,6.591,0,0,0,0,4.29" transform="translate(-14.047 -13.801)" fill="#fff"/>
        <path id="Path_54275" data-name="Path 54275" d="M105.76,83.614h1.519V90.19l6.259-6.576h.834l-4.239,4.523,5.207,7.16H113.6l-4.439-6.125-1.886,2.019V95.3H105.76Z" transform="translate(-17.507 -13.841)" fill="#fff"/>
        <rect id="Rectangle_1214" data-name="Rectangle 1214" width="4.122" height="1.252" transform="translate(101.171 76.366)" fill="#fff"/>
        <path id="Path_54276" data-name="Path 54276" d="M131.98,83.614H133.5V90.19l6.258-6.576h.834l-4.239,4.523,5.207,7.16h-1.736l-4.439-6.125L133.5,91.191V95.3H131.98Z" transform="translate(-21.847 -13.841)" fill="#fff"/>
        <path id="Path_54277" data-name="Path 54277" d="M149.1,91.859,147.628,95.3h-.768l4.94-11.683h.834L158.075,95.3h-1.619l-1.6-3.438Zm2.787-6.375h-.067l-2.4,5.624h5.09Z" transform="translate(-24.31 -13.841)" fill="#fff"/>
        <path id="Path_54278" data-name="Path 54278" d="M175.681,83.574V95.457H175.6l-9.262-9.129h-.067v8.929H165.5V83.374h.083l9.263,9.129h.067V83.574Z" transform="translate(-27.396 -13.801)" fill="#fff"/>
        <path id="Path_54279" data-name="Path 54279" d="M194.8,93.555a4.959,4.959,0,0,1-.634.584,5.157,5.157,0,0,1-1.043.626,7.643,7.643,0,0,1-1.469.492,8.282,8.282,0,0,1-1.91.2,7.3,7.3,0,0,1-2.9-.526,5.739,5.739,0,0,1-2-1.385,5.5,5.5,0,0,1-1.16-1.969A7.064,7.064,0,0,1,183.3,89.3a6.153,6.153,0,0,1,.467-2.445,5.33,5.33,0,0,1,1.318-1.869,5.869,5.869,0,0,1,2.044-1.193,7.976,7.976,0,0,1,2.644-.417,7.244,7.244,0,0,1,1.787.2,5.11,5.11,0,0,1,1.369.551,3.672,3.672,0,0,1,.976.834,4.657,4.657,0,0,1,.643,1.051h-1.235a2.085,2.085,0,0,0-.41-.693,2.859,2.859,0,0,0-.75-.609,4.566,4.566,0,0,0-1.051-.434,5.159,5.159,0,0,0-3.254.217A4.622,4.622,0,0,0,186.3,85.56a4.812,4.812,0,0,0-1.01,1.627,5.791,5.791,0,0,0-.359,2.078,6.194,6.194,0,0,0,.342,2.053,5.11,5.11,0,0,0,1.01,1.736,4.868,4.868,0,0,0,1.669,1.2,5.56,5.56,0,0,0,2.3.451,5.693,5.693,0,0,0,4.039-1.6Z" transform="translate(-30.342 -13.801)" fill="#fff"/>
        <path id="Path_54280" data-name="Path 54280" d="M203.6,95.3H202.08V83.614H203.6v5.107h6.993V83.614h1.518V95.3h-1.518V89.489H203.6Z" transform="translate(-33.451 -13.841)" fill="#fff"/>
        <path id="Path_54281" data-name="Path 54281" d="M221.535,91.859,220.067,95.3H219.3l4.94-11.683h.834L230.515,95.3H228.9l-1.6-3.438Zm2.788-6.375h-.067l-2.4,5.624h5.09Z" transform="translate(-36.301 -13.841)" fill="#fff"/>
        <path id="Path_54282" data-name="Path 54282" d="M248.12,83.574V95.457h-.083l-9.263-9.129h-.067v8.929h-.768V83.374h.083l9.263,9.129h.067V83.574Z" transform="translate(-39.387 -13.801)" fill="#fff"/>
        <path id="Path_54283" data-name="Path 54283" d="M257.575,91.859,256.107,95.3h-.768l4.94-11.683h.834L266.555,95.3h-1.62l-1.6-3.438Zm2.788-6.375H260.3l-2.4,5.624h5.09Z" transform="translate(-42.267 -13.841)" fill="#fff"/>
      </g>
    </g>
  </g>
</svg>
